**ABCDEFGHIJKLMNOPQRSTUVWXYZabcdefghijklmnopqrstuvwxyz**************************
**PARASOLID !"#$%&'()*+,-./:;<=>?@[\]^_`{|}~0123456789**************************
**PART1;
MC=AMD64;
MC_MODEL=Intel64 Family 6 Model 142 Stepping 10, GenuineIntel;
MC_ID=unknown;
OS=Windows_NT;
OS_RELEASE=unknown;
FRU=Parasolid Version 31.1, build 290,  3- 9-2020;
APPL=SOLIDWORKS 2020-2020128;
SITE=;
USER=unknown;
FORMAT=text;
GUISE=transmit;
KEY=P1_16pines;
FILE=P1_16pines.x_t;
DATE=Wed Apr 28 17:50:07 2021;
**PART2;
SCH=SCH_3101290_31100;
USFLD_SIZE=0;
**PART3;
**END_OF_HEADER*****************************************************************
T51 : TRANSMIT FILE created by modeller version 310129023 SCH_3101290_31100_1300
6222 0 12 34 CCCCCCI4 mesh1006 0 I8 polyline1008 0 CCCCCCCDI5 owner1040 0 CCCCCC
I13 boundary_mesh1006 0 I17 boundary_polyline1008 0 CCCA16 index_map_offset0 0 1
 dA9 index_map82 0 A17 node_id_index_map82 0 A20 schema_embedding_map82 0 A5 chi
ld12 0 A14 lowest_node_id0 0 1 dA16 mesh_offset_data206 0 Z1 2357 2 3 0 0 0 0 0
 0 1e3 1e-8 0 4 0 1 0 1 1 5 6 7 8 0 0 9 10 11 0 0 0 0 0 0 0 81 255 2 2 2254 12 1
 13 0 0 0 0 14 70 11 CI9 list_type0 0 1 uI10 notransmit0 0 1 lCCCDCCDI12 finger_
index0 0 1 dI12 finger_block1012 0 CZ3 0 4 T1 0 0 8 20 1 15 15 13 255 5 94 0 1 0
 16 0 0 17 0 50 255 6 93 0 18 19 0 0 +-.032 .003 .008 1 0 0 0 0 -1 31 255 7 1533
 0 10 20 0 0 -.024 .002 -433680868994202e-32 0 1 0 0 0 1 .0028 29 255 8 740 0 11
 21 0 .031 0 .007 19 8 CCCCCCCA5 owner12 0 Z9 28 0 1 17 0 22 V0 16 255 10 1530 0
 ?23 0 24 7 0 0 1 18 255 11 738 0 25 0 26 8 ?1 17 255 25 0 27 28 29 11 30 31 0 3
2 -18 26 25 0 33 11 34 35 ?1 17 33 0 36 37 38 26 39 40 0 41 +18 34 22 0 38 26 42
 43 ?1 29 35 27 0 26 43 44 -.032 .003 -.008 29 43 24 0 34 45 35 .032 .003 -.008
 29 44 73 0 46 35 47 -.032 0 .008 18 46 64 0 48 49 50 44 ?1 29 47 72 0 49 44 51
 .032 0 .008 18 49 63 0 52 53 46 47 ?1 29 51 71 0 53 47 21 .032 0 -.008 18 53 62
 0 54 55 49 51 ?1 29 21 70 0 55 51 8 -.032 0 -.008 18 55 61 0 56 57 53 21 ?1 17
 56 0 58 41 59 55 60 61 0 62 +18 57 16 0 63 42 55 64 ?1 17 63 0 65 66 67 57 68 6
9 0 37 -18 42 19 0 68 34 57 45 ?1 29 64 18 0 57 70 45 -.032 .003 .008 29 70 1071
 0 71 72 64 -.031 0 .007 29 45 21 0 42 64 43 .032 .003 .008 18 71 803 0 73 74 0
 70 ?1 29 72 1073 0 74 75 70 .031 0 -.007 18 74 801 0 29 76 71 72 ?1 29 75 1074
 0 76 77 72 -.031 0 -.007 18 76 802 0 78 79 74 75 ?1 29 77 1075 0 50 80 75 -.031
 .002 -.007 18 50 798 0 81 46 82 77 ?1 29 80 1076 0 82 83 77 .031 .002 -.007 18
 82 797 0 84 50 85 80 ?1 29 83 1077 0 79 86 80 -.031 .002 .007 18 79 800 0 87 85
 76 83 ?1 29 86 1078 0 85 0 83 .031 .002 .007 18 85 796 0 88 82 79 86 ?1 17 88 0
 89 32 90 85 87 91 0 28 +15 255 89 831 0 73 92 0 17 32 0 89 73 88 11 28 93 0 94
 +17 90 0 89 88 73 79 95 96 0 0 -17 87 0 97 98 99 79 88 91 0 100 -16 91 753 0 ?8
8 101 102 103 0 0 1 17 28 0 27 84 25 85 32 93 0 99 -15 27 835 0 25 104 0 17 84 0
 27 29 28 82 99 101 0 105 +16 93 761 0 ?32 96 106 107 0 0 1 17 99 0 97 87 108 85
 84 101 0 0 -15 97 815 0 98 16 109 17 108 0 97 99 98 82 81 110 0 0 -16 101 754 0
 ?84 110 91 111 0 0 1 16 110 755 0 ?81 112 101 113 0 0 1 30 255 111 1060 0 101 1
03 113 0 +.031 .002 .008 0 0 -1 30 103 1061 0 91 114 111 0 +.032 .002 .007 1 0 -
1626303258728255e-31 30 113 1059 0 110 111 115 0 +.032 .002 -.007 -1 0 162630325
8728255e-31 31 115 1058 0 116 113 117 0 +-.02 .002 -.00400000000000012 0 1 0 0 0
 1 .001 16 116 766 0 ?118 119 120 115 0 0 1 31 117 1057 0 121 115 122 0 +-.004 .
002 -.00400000000000034 0 1 0 0 0 1 .001 16 121 770 0 ?123 124 125 117 0 0 1 31
 122 1056 0 126 117 127 0 +.012 .002 -.004000000000000565 0 1 0 0 0 1 .001 16 12
6 774 0 ?128 129 130 122 0 0 1 31 127 1055 0 131 122 132 0 +.028 .002 -.00400000
000000079 0 1 0 0 0 1 .001 16 131 778 0 ?133 134 135 127 0 0 1 31 132 1054 0 136
 127 137 0 +-.012 .002 .00399999999999977 0 1 0 0 0 1 .001 16 136 782 0 ?138 139
 140 132 0 0 1 31 137 1053 0 141 132 142 0 +.00400000000000009 .002 .00399999999
9999545 0 1 0 0 0 1 .001 16 141 786 0 ?143 144 145 137 0 0 1 31 142 1052 0 146 1
37 147 0 +.02 .002 .003999999999999325 0 1 0 0 0 1 .001 16 146 790 0 ?148 149 15
0 142 0 0 1 31 147 1051 0 151 142 152 0 +-.028 .002 .004 0 1 0 0 0 1 .001 16 151
 794 0 ?153 154 155 147 0 0 1 30 152 1050 0 96 147 156 0 +-.031 .003 .007 0 -1 0
 16 96 759 0 ?95 157 93 152 0 0 1 30 156 1049 0 112 152 107 0 +-.031 .003 -.007
 0 -1 0 16 112 757 0 ?78 106 110 156 0 0 1 30 107 1048 0 93 156 158 0 +.031 .003
 .007 0 -1 0 30 158 1047 0 106 107 159 0 +.031 .003 -.007 0 -1 0 16 106 763 0 ?2
9 93 112 158 0 0 1 31 159 1046 0 160 158 161 0 +-.028 .004 -.004 0 1 0 0 0 1 .00
1 16 160 765 0 ?162 163 164 159 0 0 1 31 161 1045 0 119 159 165 0 +-.02 .004 -.0
0400000000000012 0 1 0 0 0 1 .001 16 119 767 0 ?166 164 116 161 0 0 1 31 165 104
4 0 120 161 167 0 +-.012 .004 -.00400000000000023 0 1 0 0 0 1 .001 16 120 769 0
 ?168 116 169 165 0 0 1 31 167 1043 0 124 165 170 0 +-.004 .004 -.00400000000000
034 0 1 0 0 0 1 .001 16 124 771 0 ?171 169 121 167 0 0 1 31 170 1042 0 125 167 1
72 0 +.004 .004 -.004000000000000455 0 1 0 0 0 1 .001 16 125 773 0 ?173 121 174
 170 0 0 1 31 172 1041 0 129 170 175 0 +.012 .004 -.004000000000000565 0 1 0 0 0
 1 .001 16 129 775 0 ?176 174 126 172 0 0 1 31 175 1040 0 130 172 177 0 +.02 .00
4 -.00400000000000068 0 1 0 0 0 1 .001 16 130 777 0 ?178 126 179 175 0 0 1 31 17
7 1039 0 134 175 180 0 +.028 .004 -.00400000000000079 0 1 0 0 0 1 .001 16 134 77
9 0 ?181 179 131 177 0 0 1 31 180 1038 0 135 177 182 0 +-.02 .004 .0039999999999
9988 0 1 0 0 0 1 .001 16 135 781 0 ?183 131 184 180 0 0 1 31 182 1037 0 139 180
 185 0 +-.012 .004 .00399999999999977 0 1 0 0 0 1 .001 16 139 783 0 ?186 184 136
 182 0 0 1 31 185 1036 0 140 182 187 0 +-.00399999999999991 .004 .00399999999999
966 0 1 0 0 0 1 .001 16 140 785 0 ?188 136 189 185 0 0 1 31 187 1035 0 144 185 1
90 0 +.00400000000000009 .004 .003999999999999545 0 1 0 0 0 1 .001 16 144 787 0
 ?191 189 141 187 0 0 1 31 190 1034 0 145 187 192 0 +.012 .004 .0039999999999994
35 0 1 0 0 0 1 .001 16 145 789 0 ?193 141 194 190 0 0 1 31 192 1033 0 149 190 19
5 0 +.02 .004 .003999999999999325 0 1 0 0 0 1 .001 16 149 791 0 ?196 194 146 192
 0 0 1 31 195 1032 0 150 192 197 0 +.028 .004 .00399999999999921 0 1 0 0 0 1 .00
1 16 150 793 0 ?198 146 199 195 0 0 1 31 197 1031 0 154 195 200 0 +-.028 .004 .0
04 0 1 0 0 0 1 .001 16 154 795 0 ?201 199 151 197 0 0 1 30 200 1030 0 163 197 20
2 0 +-.031 0 .008 0 0 1 16 163 756 0 ?203 204 160 200 0 0 1 30 202 1029 0 205 20
0 206 0 +.032 0 -.007 -1 0 1626303258728255e-31 16 205 762 0 ?207 102 31 202 0 0
 1 30 206 1028 0 31 202 208 0 +.031 0 .008 0 0 -1 16 31 760 0 ?30 205 204 206 0
 0 1 30 208 1027 0 204 206 209 0 +.032 0 .007 1 0 -1626303258728255e-31 16 204 7
58 0 ?94 31 163 208 0 0 1 31 209 627 0 210 208 211 0 +-.028 .005 .004 0 1 0 0 0
 1 .002 16 210 607 0 ?212 213 157 209 0 0 1 31 211 626 0 157 209 214 0 +-.028 .0
03 .004 0 1 0 0 0 1 .002 16 157 604 0 ?215 210 96 211 0 0 1 31 214 596 0 216 211
 217 0 +.028 .005 .00399999999999921 0 1 0 0 0 1 .002 16 216 576 0 ?218 219 213
 214 0 0 1 31 217 595 0 213 214 220 0 +.028 .003 .00399999999999921 0 1 0 0 0 1
 .002 16 213 573 0 ?221 216 210 217 0 0 1 31 220 565 0 222 217 223 0 +.02 .005 .
003999999999999325 0 1 0 0 0 1 .002 16 222 545 0 ?224 225 219 220 0 0 1 31 223 5
64 0 219 220 226 0 +.02 .003 .003999999999999325 0 1 0 0 0 1 .002 16 219 542 0 ?
227 222 216 223 0 0 1 31 226 534 0 228 223 229 0 +.012 .005 .003999999999999435
 0 1 0 0 0 1 .002 16 228 514 0 ?230 231 225 226 0 0 1 31 229 533 0 225 226 232 0
 +.012 .003 .003999999999999435 0 1 0 0 0 1 .002 16 225 511 0 ?233 228 222 229 0
 0 1 31 232 503 0 234 229 235 0 +.00400000000000009 .005 .003999999999999545 0 1
 0 0 0 1 .002 16 234 483 0 ?236 237 231 232 0 0 1 31 235 502 0 231 232 238 0 +.0
0400000000000009 .003 .003999999999999545 0 1 0 0 0 1 .002 16 231 480 0 ?239 234
 228 235 0 0 1 31 238 472 0 240 235 241 0 +-.00399999999999991 .005 .00399999999
999966 0 1 0 0 0 1 .002 16 240 452 0 ?242 243 237 238 0 0 1 31 241 471 0 237 238
 244 0 +-.00399999999999991 .003 .00399999999999966 0 1 0 0 0 1 .002 16 237 449
 0 ?245 240 234 241 0 0 1 31 244 441 0 246 241 247 0 +-.012 .005 .00399999999999
977 0 1 0 0 0 1 .002 16 246 421 0 ?248 249 243 244 0 0 1 31 247 440 0 243 244 25
0 0 +-.012 .003 .00399999999999977 0 1 0 0 0 1 .002 16 243 418 0 ?251 246 240 24
7 0 0 1 31 250 410 0 252 247 253 0 +-.02 .005 .00399999999999988 0 1 0 0 0 1 .00
2 16 252 390 0 ?254 255 249 250 0 0 1 31 253 409 0 249 250 256 0 +-.02 .003 .003
99999999999988 0 1 0 0 0 1 .002 16 249 387 0 ?257 252 246 253 0 0 1 31 256 379 0
 258 253 259 0 +.028 .005 -.00400000000000079 0 1 0 0 0 1 .002 16 258 359 0 ?260
 261 255 256 0 0 1 31 259 378 0 255 256 262 0 +.028 .003 -.00400000000000079 0 1
 0 0 0 1 .002 16 255 356 0 ?263 258 252 259 0 0 1 31 262 348 0 264 259 265 0 +.0
2 .005 -.00400000000000068 0 1 0 0 0 1 .002 16 264 328 0 ?266 267 261 262 0 0 1
 31 265 347 0 261 262 268 0 +.02 .003 -.00400000000000068 0 1 0 0 0 1 .002 16 26
1 325 0 ?269 264 258 265 0 0 1 31 268 317 0 270 265 271 0 +.012 .005 -.004000000
000000565 0 1 0 0 0 1 .002 16 270 297 0 ?272 273 267 268 0 0 1 31 271 316 0 267
 268 274 0 +.012 .003 -.004000000000000565 0 1 0 0 0 1 .002 16 267 294 0 ?275 27
0 264 271 0 0 1 31 274 286 0 276 271 277 0 +.004 .005 -.004000000000000455 0 1 0
 0 0 1 .002 16 276 266 0 ?278 279 273 274 0 0 1 31 277 285 0 273 274 280 0 +.004
 .003 -.004000000000000455 0 1 0 0 0 1 .002 16 273 263 0 ?281 276 270 277 0 0 1
 31 280 255 0 282 277 283 0 +-.004 .005 -.00400000000000034 0 1 0 0 0 1 .002 16
 282 235 0 ?284 285 279 280 0 0 1 31 283 254 0 279 280 286 0 +-.004 .003 -.00400
000000000034 0 1 0 0 0 1 .002 16 279 232 0 ?287 282 276 283 0 0 1 31 286 224 0 2
88 283 289 0 +-.012 .005 -.00400000000000023 0 1 0 0 0 1 .002 16 288 204 0 ?290
 291 285 286 0 0 1 31 289 223 0 285 286 292 0 +-.012 .003 -.00400000000000023 0
 1 0 0 0 1 .002 16 285 201 0 ?293 288 282 289 0 0 1 31 292 193 0 294 289 295 0 +
-.02 .005 -.00400000000000012 0 1 0 0 0 1 .002 16 294 173 0 ?296 297 291 292 0 0
 1 31 295 192 0 291 292 298 0 +-.02 .003 -.00400000000000012 0 1 0 0 0 1 .002 16
 291 170 0 ?299 294 288 295 0 0 1 31 298 162 0 300 295 301 0 +-.028 .005 -.004 0
 1 0 0 0 1 .002 16 300 142 0 ?302 303 297 298 0 0 1 31 301 161 0 297 298 304 0 +
-.028 .003 -.004 0 1 0 0 0 1 .002 16 297 139 0 ?305 300 294 301 0 0 1 30 304 5 0
 306 301 307 0 +-.032 .003 .008 0 0 1 16 306 4 0 ?37 69 61 304 0 0 1 30 307 8 0
 69 304 308 0 +.032 .003 .008 1 0 -1626303258728255e-31 16 69 7 0 ?68 309 306 30
7 0 0 1 30 308 11 0 309 307 310 0 +.032 .003 .008 0 0 -1 16 309 10 0 ?38 40 69 3
08 0 0 1 30 310 14 0 40 308 311 0 +.032 .003 -.008 -1 0 1626303258728255e-31 16
 40 13 0 ?33 312 309 310 0 0 1 30 311 69 0 303 310 313 0 +-.032 0 .008 0 0 1 16
 303 57 0 ?314 315 300 311 0 0 1 30 313 68 0 315 311 316 0 +.032 0 .008 1 0 -162
6303258728255e-31 16 315 53 0 ?52 317 303 313 0 0 1 30 316 67 0 317 313 318 0 +.
032 0 .008 0 0 -1 16 317 49 0 ?54 61 315 316 0 0 1 30 318 66 0 61 316 319 0 +.03
2 0 -.008 -1 0 1626303258728255e-31 16 61 45 0 ?56 306 317 318 0 0 1 30 319 86 0
 312 318 320 0 +-.032 .003 -.008 0 -1 0 16 312 74 0 ?62 321 40 319 0 0 1 30 320
 87 0 321 319 322 0 +.032 .003 -.008 0 -1 0 16 321 75 0 ?59 323 312 320 0 0 1 30
 322 88 0 323 320 324 0 +.032 .003 .008 0 -1 0 16 323 76 0 ?325 326 321 322 0 0
 1 30 324 89 0 326 322 327 0 +-.032 .003 .008 0 -1 0 16 326 77 0 ?66 328 323 324
 0 0 1 31 327 1166 0 328 324 329 0 --.024 .002 3469446951953615e-33 0 1 0 0 0 1
 .0028 16 328 1163 0 ?330 331 326 327 0 0 1 31 329 1238 0 331 327 332 0 --.016 .
002 216840434497101e-32 0 1 0 0 0 1 .0028 16 331 1235 0 ?333 334 328 329 0 0 1 3
1 332 1297 0 334 329 335 0 --.008 .002 867361737988404e-33 0 1 0 0 0 1 .0028 16
 334 1294 0 ?336 337 331 332 0 0 1 31 335 1356 0 337 332 338 0 -693889390390723e
-32 .002 -433680868994202e-33 0 1 0 0 0 1 .0028 16 337 1353 0 ?339 340 334 335 0
 0 1 31 338 1415 0 340 335 20 0 -.008 .002 -1734723475976805e-33 0 1 0 0 0 1 .00
28 16 340 1412 0 ?341 24 337 338 0 0 1 31 20 1474 0 24 338 7 0 -.016 .002 -30357
6608295941e-32 0 1 0 0 0 1 .0028 16 24 1471 0 ?342 10 340 20 0 0 1 17 342 0 343
 342 342 0 344 24 0 0 +15 343 1494 0 342 345 0 17 344 0 346 344 344 0 342 24 0 0
 -15 346 1473 0 344 16 347 14 255 16 1534 348 ?349 0 350 5 351 -352 353 349 0 22
 15 347 1532 0 354 16 0 17 354 0 347 354 354 0 23 10 0 0 -17 23 0 355 23 23 0 35
4 10 0 0 +15 355 1553 0 23 356 0 14 356 1549 357 ?358 359 360 5 361 -0 0 358 359
 22 81 1 357 2256 362 356 363 0 348 364 365 14 358 1554 364 ?366 356 367 5 368 +
0 0 366 356 22 14 359 1416 369 ?356 370 371 5 351 -372 352 356 370 22 15 360 155
2 0 373 356 355 51 255 361 1569 0 356 0 368 0 -.024 -.00791959594928933 -4336808
68994202e-32 0 1 0 .0028 0 0 1 13 22 29 0 0 0 0 0 0 9 16 51 368 1568 0 358 361 3
74 0 -.024 -.00791959594928933 -433680868994202e-32 0 1 0 .0018 0 0 1 50 374 156
7 0 366 368 375 0 +0 0 0 0 1 0 0 0 1 14 366 1559 376 ?352 358 377 5 374 -0 0 352
 358 22 51 375 1510 0 345 374 378 0 -.016 -.00791959594928933 -303576608295941e-
32 0 1 0 .0028 0 0 1 14 345 1490 379 ?380 372 381 5 375 -0 0 380 372 22 51 378 1
509 0 380 375 382 0 -.016 -.00791959594928933 -303576608295941e-32 0 1 0 .0018 0
 0 1 14 380 1495 383 ?370 345 384 5 378 +0 0 370 345 22 50 382 1508 0 370 378 38
5 0 +0 0 0 0 1 0 0 0 1 14 370 1500 386 ?359 380 387 5 382 -0 0 359 380 22 51 385
 1451 0 388 382 389 0 -.008 -.00791959594928933 -1734723475976805e-33 0 1 0 .002
8 0 0 1 14 388 1431 390 ?391 392 393 5 385 -0 0 391 392 22 51 389 1450 0 391 385
 394 0 -.008 -.00791959594928933 -1734723475976805e-33 0 1 0 .0018 0 0 1 14 391
 1436 395 ?396 388 397 5 389 +0 0 396 388 22 50 394 1449 0 396 389 398 0 +0 0 0
 0 1 0 0 0 1 14 396 1441 399 ?372 391 400 5 394 -0 0 372 391 22 51 398 1392 0 40
1 394 402 0 -693889390390723e-32 -.00791959594928933 -433680868994202e-33 0 1 0
 .0028 0 0 1 14 401 1372 403 ?404 405 406 5 398 -0 0 404 405 22 51 402 1391 0 40
4 398 407 0 -693889390390723e-32 -.00791959594928933 -433680868994202e-33 0 1 0
 .0018 0 0 1 14 404 1377 408 ?409 401 410 5 402 +0 0 409 401 22 50 407 1390 0 40
9 402 411 0 +0 0 0 0 1 0 0 0 1 14 409 1382 412 ?392 404 413 5 407 -0 0 392 404 2
2 51 411 1333 0 414 407 415 0 --.008 -.00791959594928933 867361737988404e-33 0 1
 0 .0028 0 0 1 14 414 1313 416 ?417 418 419 5 411 -0 0 417 418 22 51 415 1332 0
 417 411 420 0 --.008 -.00791959594928933 867361737988404e-33 0 1 0 .0018 0 0 1
 14 417 1318 421 ?422 414 423 5 415 +0 0 422 414 22 50 420 1331 0 422 415 424 0
 +0 0 0 0 1 0 0 0 1 14 422 1323 425 ?405 417 426 5 420 -0 0 405 417 22 51 424 12
74 0 427 420 428 0 --.016 -.00791959594928933 216840434497101e-32 0 1 0 .0028 0
 0 1 14 427 1254 429 ?430 353 431 5 424 -0 0 430 353 22 51 428 1273 0 430 424 43
2 0 --.016 -.00791959594928933 216840434497101e-32 0 1 0 .0018 0 0 1 14 430 1259
 433 ?434 427 435 5 428 +0 0 434 427 22 50 432 1272 0 434 428 436 0 +0 0 0 0 1 0
 0 0 1 14 434 1264 437 ?418 430 438 5 432 -0 0 418 430 22 51 436 1202 0 439 432
 440 0 --.024 -.00791959594928933 3469446951953615e-33 0 1 0 .0028 0 0 1 14 439
 1182 441 ?442 443 444 5 436 -0 0 442 443 22 51 440 1201 0 442 436 445 0 --.024
 -.00791959594928933 3469446951953615e-33 0 1 0 .0018 0 0 1 14 442 1187 446 ?447
 439 448 5 440 +0 0 447 439 22 50 445 1200 0 447 440 351 0 +0 0 0 0 1 0 0 0 1 14
 447 1192 449 ?353 442 450 5 445 -0 0 353 442 22 50 351 1025 0 353 445 451 0 +0
 .002 0 0 1 0 0 0 1 14 353 804 452 ?427 447 453 5 351 -16 418 427 447 22 50 451
 1024 0 454 351 455 0 +-.031 .003 .008 1 0 0 0 0 -1 14 454 824 456 ?92 457 458 5
 451 +0 0 92 457 22 50 455 1023 0 92 451 459 0 +.032 .003 .007 -1626303258728255
e-31 0 -1 -1 0 1626303258728255e-31 14 92 828 460 ?104 454 89 5 455 +0 0 104 454
 22 50 459 1022 0 104 455 461 0 +.031 .003 .008 -1 0 0 0 0 1 14 104 832 462 ?463
 92 27 5 459 +0 0 463 92 22 50 461 1021 0 463 459 464 0 +.032 .003 -.007 1626303
258728255e-31 0 1 1 0 -1626303258728255e-31 14 463 836 465 ?466 104 467 5 461 +0
 0 466 104 22 51 464 1020 0 466 461 468 0 --.028 .005 -.004 0 -1 0 .001 0 0 -1 1
4 466 843 469 ?470 463 471 5 464 +0 0 470 463 22 50 468 1019 0 470 464 472 0 +-.
028 .004 -.004 0 1 0 0 0 1 14 470 848 473 ?474 466 475 5 468 -0 0 474 466 22 51
 472 1018 0 474 468 476 0 --.02 .005 -.00400000000000012 0 -1 0 .001 0 0 -1 14 4
74 852 477 ?478 470 479 5 472 +0 0 478 470 22 50 476 1017 0 478 472 480 0 +-.02
 .004 -.00400000000000012 0 1 0 0 0 1 14 478 857 481 ?482 474 483 5 476 -0 0 482
 474 22 51 480 1016 0 482 476 484 0 --.012 .005 -.00400000000000023 0 -1 0 .001
 0 0 -1 14 482 861 485 ?486 478 487 5 480 +0 0 486 478 22 50 484 1015 0 486 480
 488 0 +-.012 .004 -.00400000000000023 0 1 0 0 0 1 14 486 866 489 ?490 482 491 5
 484 -0 0 490 482 22 51 488 1014 0 490 484 492 0 --.004 .005 -.00400000000000034
 0 -1 0 .001 0 0 -1 14 490 870 493 ?494 486 495 5 488 +0 0 494 486 22 50 492 101
3 0 494 488 496 0 +-.004 .004 -.00400000000000034 0 1 0 0 0 1 14 494 875 497 ?49
8 490 499 5 492 -0 0 498 490 22 51 496 1012 0 498 492 500 0 -.004 .005 -.0040000
00000000455 0 -1 0 .001 0 0 -1 14 498 879 501 ?502 494 503 5 496 +0 0 502 494 22
 50 500 1011 0 502 496 504 0 +.004 .004 -.004000000000000455 0 1 0 0 0 1 14 502
 884 505 ?506 498 507 5 500 -0 0 506 498 22 51 504 1010 0 506 500 508 0 -.012 .0
05 -.004000000000000565 0 -1 0 .001 0 0 -1 14 506 888 509 ?510 502 511 5 504 +0
 0 510 502 22 50 508 1009 0 510 504 512 0 +.012 .004 -.004000000000000565 0 1 0
 0 0 1 14 510 893 513 ?514 506 515 5 508 -0 0 514 506 22 51 512 1008 0 514 508 5
16 0 -.02 .005 -.00400000000000068 0 -1 0 .001 0 0 -1 14 514 897 517 ?518 510 51
9 5 512 +0 0 518 510 22 50 516 1007 0 518 512 520 0 +.02 .004 -.0040000000000006
8 0 1 0 0 0 1 14 518 902 521 ?522 514 523 5 516 -0 0 522 514 22 51 520 1006 0 52
2 516 524 0 -.028 .005 -.00400000000000079 0 -1 0 .001 0 0 -1 14 522 906 525 ?52
6 518 527 5 520 +0 0 526 518 22 50 524 1005 0 526 520 528 0 +.028 .004 -.0040000
0000000079 0 1 0 0 0 1 14 526 911 529 ?530 522 531 5 524 -0 0 530 522 22 51 528
 1004 0 530 524 532 0 --.02 .005 .00399999999999988 0 -1 0 .001 0 0 -1 14 530 91
5 533 ?534 526 535 5 528 +0 0 534 526 22 50 532 1003 0 534 528 536 0 +-.02 .004
 .00399999999999988 0 1 0 0 0 1 14 534 920 537 ?538 530 539 5 532 -0 0 538 530 2
2 51 536 1002 0 538 532 540 0 --.012 .005 .00399999999999977 0 -1 0 .001 0 0 -1
 14 538 924 541 ?542 534 543 5 536 +0 0 542 534 22 50 540 1001 0 542 536 544 0 +
-.012 .004 .00399999999999977 0 1 0 0 0 1 14 542 929 545 ?546 538 547 5 540 -0 0
 546 538 22 51 544 1000 0 546 540 548 0 --.00399999999999991 .005 .0039999999999
9966 0 -1 0 .001 0 0 -1 14 546 933 549 ?550 542 551 5 544 +0 0 550 542 22 50 548
 999 0 550 544 552 0 +-.00399999999999991 .004 .00399999999999966 0 1 0 0 0 1 14
 550 938 553 ?554 546 555 5 548 -0 0 554 546 22 51 552 998 0 554 548 556 0 -.004
00000000000009 .005 .003999999999999545 0 -1 0 .001 0 0 -1 14 554 942 557 ?558 5
50 559 5 552 +0 0 558 550 22 50 556 997 0 558 552 560 0 +.00400000000000009 .004
 .003999999999999545 0 1 0 0 0 1 14 558 947 561 ?562 554 563 5 556 -0 0 562 554
 22 51 560 996 0 562 556 564 0 -.012 .005 .003999999999999435 0 -1 0 .001 0 0 -1
 14 562 951 565 ?566 558 567 5 560 +0 0 566 558 22 50 564 995 0 566 560 568 0 +.
012 .004 .003999999999999435 0 1 0 0 0 1 14 566 956 569 ?570 562 571 5 564 -0 0
 570 562 22 51 568 994 0 570 564 572 0 -.02 .005 .003999999999999325 0 -1 0 .001
 0 0 -1 14 570 960 573 ?574 566 575 5 568 +0 0 574 566 22 50 572 993 0 574 568 5
76 0 +.02 .004 .003999999999999325 0 1 0 0 0 1 14 574 965 577 ?578 570 579 5 572
 -0 0 578 570 22 51 576 992 0 578 572 580 0 -.028 .005 .00399999999999921 0 -1 0
 .001 0 0 -1 14 578 969 581 ?582 574 583 5 576 +0 0 582 574 22 50 580 991 0 582
 576 584 0 +.028 .004 .00399999999999921 0 1 0 0 0 1 14 582 974 585 ?586 578 587
 5 580 -0 0 586 578 22 51 584 990 0 586 580 588 0 --.028 .005 .004 0 -1 0 .001 0
 0 -1 14 586 978 589 ?443 582 590 5 584 +0 0 443 582 22 50 588 989 0 443 584 591
 0 +-.028 .004 .004 0 1 0 0 0 1 14 443 983 592 ?439 586 593 5 588 -0 0 439 586 2
2 50 591 625 0 457 588 594 0 +-.028 .005 .004 0 1 0 0 0 1 14 457 615 595 ?454 59
6 597 5 591 +0 0 454 596 22 51 594 623 0 596 591 598 0 --.028 .005 .004 0 -1 0 .
002 0 0 -1 14 596 610 599 ?457 600 601 5 594 -0 0 457 600 22 50 598 594 0 600 59
4 602 0 +.028 .005 .00399999999999921 0 1 0 0 0 1 14 600 584 603 ?596 604 605 5
 598 +0 0 596 604 22 51 602 592 0 604 598 606 0 -.028 .005 .00399999999999921 0
 -1 0 .002 0 0 -1 14 604 579 607 ?600 608 609 5 602 -0 0 600 608 22 50 606 563 0
 608 602 610 0 +.02 .005 .003999999999999325 0 1 0 0 0 1 14 608 553 611 ?604 612
 613 5 606 +0 0 604 612 22 51 610 561 0 612 606 614 0 -.02 .005 .003999999999999
325 0 -1 0 .002 0 0 -1 14 612 548 615 ?608 616 617 5 610 -0 0 608 616 22 50 614
 532 0 616 610 618 0 +.012 .005 .003999999999999435 0 1 0 0 0 1 14 616 522 619 ?
612 620 621 5 614 +0 0 612 620 22 51 618 530 0 620 614 622 0 -.012 .005 .0039999
99999999435 0 -1 0 .002 0 0 -1 14 620 517 623 ?616 624 625 5 618 -0 0 616 624 22
 50 622 501 0 624 618 626 0 +.00400000000000009 .005 .003999999999999545 0 1 0 0
 0 1 14 624 491 627 ?620 628 629 5 622 +0 0 620 628 22 51 626 499 0 628 622 630
 0 -.00400000000000009 .005 .003999999999999545 0 -1 0 .002 0 0 -1 14 628 486 63
1 ?624 632 633 5 626 -0 0 624 632 22 50 630 470 0 632 626 634 0 +-.0039999999999
9991 .005 .00399999999999966 0 1 0 0 0 1 14 632 460 635 ?628 636 637 5 630 +0 0
 628 636 22 51 634 468 0 636 630 638 0 --.00399999999999991 .005 .00399999999999
966 0 -1 0 .002 0 0 -1 14 636 455 639 ?632 640 641 5 634 -0 0 632 640 22 50 638
 439 0 640 634 642 0 +-.012 .005 .00399999999999977 0 1 0 0 0 1 14 640 429 643 ?
636 644 645 5 638 +0 0 636 644 22 51 642 437 0 644 638 646 0 --.012 .005 .003999
99999999977 0 -1 0 .002 0 0 -1 14 644 424 647 ?640 648 649 5 642 -0 0 640 648 22
 50 646 408 0 648 642 650 0 +-.02 .005 .00399999999999988 0 1 0 0 0 1 14 648 398
 651 ?644 652 653 5 646 +0 0 644 652 22 51 650 406 0 652 646 654 0 --.02 .005 .0
0399999999999988 0 -1 0 .002 0 0 -1 14 652 393 655 ?648 656 657 5 650 -0 0 648 6
56 22 50 654 377 0 656 650 658 0 +.028 .005 -.00400000000000079 0 1 0 0 0 1 14 6
56 367 659 ?652 660 661 5 654 +0 0 652 660 22 51 658 375 0 660 654 662 0 -.028 .
005 -.00400000000000079 0 -1 0 .002 0 0 -1 14 660 362 663 ?656 664 665 5 658 -0
 0 656 664 22 50 662 346 0 664 658 666 0 +.02 .005 -.00400000000000068 0 1 0 0 0
 1 14 664 336 667 ?660 668 669 5 662 +0 0 660 668 22 51 666 344 0 668 662 670 0
 -.02 .005 -.00400000000000068 0 -1 0 .002 0 0 -1 14 668 331 671 ?664 672 673 5
 666 -0 0 664 672 22 50 670 315 0 672 666 674 0 +.012 .005 -.004000000000000565
 0 1 0 0 0 1 14 672 305 675 ?668 676 677 5 670 +0 0 668 676 22 51 674 313 0 676
 670 678 0 -.012 .005 -.004000000000000565 0 -1 0 .002 0 0 -1 14 676 300 679 ?67
2 680 681 5 674 -0 0 672 680 22 50 678 284 0 680 674 682 0 +.004 .005 -.00400000
0000000455 0 1 0 0 0 1 14 680 274 683 ?676 684 685 5 678 +0 0 676 684 22 51 682
 282 0 684 678 686 0 -.004 .005 -.004000000000000455 0 -1 0 .002 0 0 -1 14 684 2
69 687 ?680 688 689 5 682 -0 0 680 688 22 50 686 253 0 688 682 690 0 +-.004 .005
 -.00400000000000034 0 1 0 0 0 1 14 688 243 691 ?684 692 693 5 686 +0 0 684 692
 22 51 690 251 0 692 686 694 0 --.004 .005 -.00400000000000034 0 -1 0 .002 0 0 -
1 14 692 238 695 ?688 696 697 5 690 -0 0 688 696 22 50 694 222 0 696 690 698 0 +
-.012 .005 -.00400000000000023 0 1 0 0 0 1 14 696 212 699 ?692 700 701 5 694 +0
 0 692 700 22 51 698 220 0 700 694 702 0 --.012 .005 -.00400000000000023 0 -1 0
 .002 0 0 -1 14 700 207 703 ?696 704 705 5 698 -0 0 696 704 22 50 702 191 0 704
 698 706 0 +-.02 .005 -.00400000000000012 0 1 0 0 0 1 14 704 181 707 ?700 708 70
9 5 702 +0 0 700 708 22 51 706 189 0 708 702 710 0 --.02 .005 -.0040000000000001
2 0 -1 0 .002 0 0 -1 14 708 176 711 ?704 712 713 5 706 -0 0 704 712 22 50 710 16
0 0 712 706 714 0 +-.028 .005 -.004 0 1 0 0 0 1 14 712 150 715 ?708 716 717 5 71
0 +0 0 708 716 22 51 714 158 0 716 710 718 0 --.028 .005 -.004 0 -1 0 .002 0 0 -
1 14 716 145 719 ?712 720 721 5 714 -0 0 712 720 22 50 718 2 0 349 714 722 0 +0
 .003 0 0 1 0 0 0 1 14 349 601 723 ?18 16 724 5 718 +0 0 18 16 22 50 722 65 0 72
0 718 725 0 +0 0 0 0 1 0 0 0 1 14 720 43 726 ?716 727 728 5 722 -0 0 716 727 22
 50 725 90 0 727 722 729 0 +.032 .003 -.008 1626303258728255e-31 0 1 1 0 -162630
3258728255e-31 14 727 79 730 ?720 731 58 5 725 -0 0 720 731 22 50 729 91 0 731 7
25 19 0 +.032 .003 .008 -1 0 0 0 0 1 14 731 81 732 ?727 733 734 5 729 -0 0 727 7
33 22 50 19 92 0 733 729 6 0 +.032 .003 .008 -1626303258728255e-31 0 -1 -1 0 162
6303258728255e-31 14 733 83 735 ?731 18 65 5 19 -0 0 731 18 22 81 1 735 2351 362
 733 736 0 732 737 738 14 18 85 737 ?733 349 739 5 6 -0 0 733 349 22 15 65 82 0
 52 733 0 17 52 0 65 67 66 49 48 315 0 325 +17 67 0 65 63 52 42 325 323 0 740 -1
7 66 0 65 52 63 46 741 326 0 314 +17 48 0 742 743 744 46 52 315 0 66 -17 325 0 7
34 54 740 49 67 323 0 744 +15 734 80 0 54 731 0 17 54 0 734 745 325 53 744 317 0
 59 +17 740 0 734 325 745 42 38 309 0 0 -17 744 0 742 48 60 49 54 317 0 0 -15 74
2 44 0 743 720 0 17 60 0 742 744 743 53 56 61 0 0 -17 743 0 742 60 48 55 314 303
 0 0 -17 314 0 739 741 62 46 743 303 0 0 +15 739 84 0 314 18 0 17 741 0 739 746
 314 57 66 326 0 0 -17 62 0 739 314 746 55 41 312 0 743 +17 746 0 739 62 741 26
 37 306 0 0 -17 41 0 58 39 56 26 62 312 0 746 -15 58 78 0 56 727 0 17 39 0 58 59
 41 34 33 40 0 0 -17 59 0 58 56 39 53 745 321 0 60 +17 745 0 734 740 54 34 59 32
1 0 39 -17 37 0 36 68 33 57 746 306 0 741 +15 36 3 0 37 349 747 17 68 0 36 38 37
 42 63 69 0 67 +17 38 0 36 33 68 34 740 309 0 745 +15 747 164 0 748 349 749 17 7
48 0 747 748 748 0 299 291 0 0 -15 749 226 0 750 349 751 17 750 0 749 750 750 0
 287 279 0 0 -15 751 288 0 752 349 753 17 752 0 751 752 752 0 275 267 0 0 -15 75
3 350 0 754 349 755 17 754 0 753 754 754 0 263 255 0 0 -15 755 412 0 756 349 757
 17 756 0 755 756 756 0 251 243 0 0 -15 757 474 0 758 349 759 17 758 0 757 758 7
58 0 239 231 0 0 -15 759 536 0 760 349 761 17 760 0 759 760 760 0 227 219 0 0 -1
5 761 598 0 762 349 0 17 762 0 761 762 762 0 215 157 0 0 -17 215 0 763 215 215 0
 762 157 0 0 +15 763 614 0 215 596 0 17 227 0 764 227 227 0 760 219 0 0 +15 764
 552 0 227 612 0 17 239 0 765 239 239 0 758 231 0 0 +15 765 490 0 239 628 0 17 2
51 0 766 251 251 0 756 243 0 0 +15 766 428 0 251 644 0 17 263 0 767 263 263 0 75
4 255 0 0 +15 767 366 0 263 660 0 17 275 0 768 275 275 0 752 267 0 0 +15 768 304
 0 275 676 0 17 287 0 769 287 287 0 750 279 0 0 +15 769 242 0 287 692 0 17 299 0
 770 299 299 0 748 291 0 0 +15 770 180 0 299 708 0 81 1 737 2352 362 18 771 0 73
5 772 773 80 255 1 362 774 775 9000 1 1 1 1 1 1 1 1 0 FFFFTFTFFFFFFF1 81 1 771 1
946 776 18 0 737 777 736 778 81 1 772 2353 362 418 779 0 737 780 781 82 255 1 77
3 1442316392 14 418 1167 772 ?414 434 782 5 351 -353 405 414 434 22 81 1 779 202
6 776 418 0 772 783 784 785 81 1 780 2354 362 405 786 0 772 787 788 82 1 781 805
240948 14 405 1239 780 ?401 422 789 5 351 -418 392 401 422 22 81 1 786 2030 776
 405 0 780 790 791 792 81 1 787 2355 362 392 793 0 780 794 795 82 1 788 -1534197
644 14 392 1298 787 ?388 409 796 5 351 -405 372 388 409 22 81 1 793 2034 776 392
 0 787 797 798 799 81 1 794 2356 362 372 800 0 787 801 802 82 1 795 -1532755852
 14 372 1357 794 ?345 396 803 5 351 -392 359 345 396 22 81 1 800 2038 776 372 0
 794 804 805 806 81 1 801 2357 362 352 807 0 794 0 808 82 1 802 -1531314060 14 3
52 1475 801 ?0 366 809 5 351 -359 16 0 366 22 81 1 807 2046 776 352 0 801 810 0
 811 82 1 808 -1528430476 80 1 776 0 812 8001 0 0 0 0 3 5 0 0 0 FFFFTFTFFFFFFF2
 81 1 810 2045 776 366 0 376 813 807 814 83 255 3 811 .792156862745098 .81960784
3137255 .933333333333333 81 1 376 2259 362 366 810 0 369 379 815 81 1 813 2044 7
76 358 0 364 363 810 816 83 3 814 .792156862745098 .819607843137255 .93333333333
3333 81 1 364 2257 362 358 813 0 357 369 817 81 1 363 2043 776 356 0 357 818 813
 819 83 3 816 .792156862745098 .819607843137255 .933333333333333 81 1 818 2042 7
76 359 0 369 820 363 821 83 3 819 .792156862745098 .819607843137255 .93333333333
3333 81 1 369 2258 362 359 818 0 364 376 822 81 1 820 2041 776 370 0 386 823 818
 824 83 3 821 .792156862745098 .819607843137255 .933333333333333 81 1 386 2262 3
62 370 820 0 383 390 825 81 1 823 2040 776 380 0 383 805 820 826 83 3 824 .79215
6862745098 .819607843137255 .933333333333333 81 1 383 2261 362 380 823 0 379 386
 827 81 1 805 2039 776 345 0 379 800 823 828 83 3 826 .792156862745098 .81960784
3137255 .933333333333333 81 1 379 2260 362 345 805 0 376 383 829 83 3 828 .79215
6862745098 .819607843137255 .933333333333333 82 1 829 -1585971084 82 1 827 -1581
842316 81 1 390 2263 362 388 798 0 386 395 830 82 1 825 -1568866188 81 1 798 203
5 776 388 0 390 793 831 832 81 1 395 2264 362 391 831 0 390 399 833 82 1 830 -16
15462284 81 1 831 2036 776 391 0 395 798 804 834 81 1 399 2265 362 396 804 0 395
 403 835 82 1 833 -1611333516 81 1 804 2037 776 396 0 399 831 800 836 81 1 403 2
266 362 401 791 0 399 408 837 82 1 835 -1598357388 81 1 791 2031 776 401 0 403 7
86 838 839 81 1 408 2267 362 404 838 0 403 412 840 82 1 837 -1644953484 81 1 838
 2032 776 404 0 408 791 797 841 81 1 412 2268 362 409 797 0 408 416 842 82 1 840
 -1640824716 81 1 797 2033 776 409 0 412 838 793 843 81 1 416 2269 362 414 784 0
 412 421 844 82 1 842 -1627848588 81 1 784 2027 776 414 0 416 779 845 846 81 1 4
21 2270 362 417 845 0 416 425 847 82 1 844 -1674444684 81 1 845 2028 776 417 0 4
21 784 790 848 81 1 425 2271 362 422 790 0 421 429 849 82 1 847 -1670315916 81 1
 790 2029 776 422 0 425 845 786 850 81 1 429 2272 362 427 851 0 425 433 852 82 1
 849 -1657339788 81 1 851 2023 776 427 0 429 853 854 855 81 1 433 2273 362 430 8
54 0 429 437 856 82 1 852 -1704001420 81 1 854 2024 776 430 0 433 851 783 857 81
 1 437 2274 362 434 783 0 433 441 858 82 1 856 -1699872652 81 1 783 2025 776 434
 0 437 854 779 859 81 1 441 2275 362 439 860 0 437 446 861 82 1 858 -1686896524
 81 1 860 2019 776 439 0 441 862 863 864 81 1 446 2276 362 442 863 0 441 449 865
 82 1 861 783220850 81 1 863 2020 776 442 0 446 860 866 867 81 1 449 2277 362 44
7 866 0 446 452 868 82 1 865 787349618 81 1 866 2021 776 447 0 449 863 853 869 8
1 1 452 2278 362 353 853 0 449 456 870 82 1 868 800325746 81 1 853 2022 776 353
 0 452 866 851 871 81 1 456 2279 362 454 872 0 452 460 873 82 1 870 -187236238 8
1 1 872 1983 776 454 0 456 874 875 876 81 1 460 2280 362 92 875 0 456 462 877 82
 1 873 -187105170 81 1 875 1984 776 92 0 460 872 878 879 81 1 462 2281 362 104 8
78 0 460 465 880 82 1 877 -186318738 81 1 878 1985 776 104 0 462 875 881 882 81
 1 465 2282 362 463 881 0 462 469 883 82 1 880 -186449810 81 1 881 1986 776 463
 0 465 878 884 885 81 1 469 2283 362 466 884 0 465 473 886 82 1 883 -186580882 8
1 1 884 1987 776 466 0 469 881 887 888 81 1 473 2284 362 470 887 0 469 477 889 8
2 1 886 -185728914 81 1 887 1988 776 470 0 473 884 890 891 81 1 477 2285 362 474
 890 0 473 481 892 82 1 889 -185532306 81 1 890 1989 776 474 0 477 887 893 894 8
1 1 481 2286 362 478 893 0 477 485 895 82 1 892 -185335698 81 1 893 1990 776 478
 0 481 890 896 897 81 1 485 2287 362 482 896 0 481 489 898 82 1 895 -185139090 8
1 1 896 1991 776 482 0 485 893 899 900 81 1 489 2288 362 486 899 0 485 493 901 8
2 1 898 -184942482 81 1 899 1992 776 486 0 489 896 902 903 81 1 493 2289 362 490
 902 0 489 497 904 82 1 901 -184745874 81 1 902 1993 776 490 0 493 899 905 906 8
1 1 497 2290 362 494 905 0 493 501 907 82 1 904 -184549266 81 1 905 1994 776 494
 0 497 902 908 909 81 1 501 2291 362 498 908 0 497 505 910 82 1 907 -184352658 8
1 1 908 1995 776 498 0 501 905 911 912 81 1 505 2292 362 502 911 0 501 509 913 8
2 1 910 -184156050 81 1 911 1996 776 502 0 505 908 914 915 81 1 509 2293 362 506
 914 0 505 513 916 82 1 913 -183959442 81 1 914 1997 776 506 0 509 911 917 918 8
1 1 513 2294 362 510 917 0 509 517 919 82 1 916 -183762834 81 1 917 1998 776 510
 0 513 914 920 921 81 1 517 2295 362 514 920 0 513 521 922 82 1 919 -183566226 8
1 1 920 1999 776 514 0 517 917 923 924 81 1 521 2296 362 518 923 0 517 525 925 8
2 1 922 -183369618 81 1 923 2000 776 518 0 521 920 926 927 81 1 525 2297 362 522
 926 0 521 529 928 82 1 925 -183173010 81 1 926 2001 776 522 0 525 923 929 930 8
1 1 529 2298 362 526 929 0 525 533 931 82 1 928 -182976402 81 1 929 2002 776 526
 0 529 926 932 933 81 1 533 2299 362 530 932 0 529 537 934 82 1 931 -182779794 8
1 1 932 2003 776 530 0 533 929 935 936 81 1 537 2300 362 534 935 0 533 541 937 8
2 1 934 -182583186 81 1 935 2004 776 534 0 537 932 938 939 81 1 541 2301 362 538
 938 0 537 545 940 82 1 937 -182386578 81 1 938 2005 776 538 0 541 935 941 942 8
1 1 545 2302 362 542 941 0 541 549 943 82 1 940 -182189970 81 1 941 2006 776 542
 0 545 938 944 945 81 1 549 2303 362 546 944 0 545 553 946 82 1 943 -181993362 8
1 1 944 2007 776 546 0 549 941 947 948 81 1 553 2304 362 550 947 0 549 557 949 8
2 1 946 -181796754 81 1 947 2008 776 550 0 553 944 950 951 81 1 557 2305 362 554
 950 0 553 561 952 82 1 949 -181600146 81 1 950 2009 776 554 0 557 947 953 954 8
1 1 561 2306 362 558 953 0 557 565 955 82 1 952 -181403538 81 1 953 2010 776 558
 0 561 950 956 957 81 1 565 2307 362 562 956 0 561 569 958 82 1 955 -181206930 8
1 1 956 2011 776 562 0 565 953 959 960 81 1 569 2308 362 566 959 0 565 573 961 8
2 1 958 -181010322 81 1 959 2012 776 566 0 569 956 962 963 81 1 573 2309 362 570
 962 0 569 577 964 82 1 961 -180813714 81 1 962 2013 776 570 0 573 959 965 966 8
1 1 577 2310 362 574 965 0 573 581 967 82 1 964 -180617106 81 1 965 2014 776 574
 0 577 962 968 969 81 1 581 2311 362 578 968 0 577 585 970 82 1 967 -180420498 8
1 1 968 2015 776 578 0 581 965 971 972 81 1 585 2312 362 582 971 0 581 589 973 8
2 1 970 -180223890 81 1 971 2016 776 582 0 585 968 974 975 81 1 589 2313 362 586
 974 0 585 592 976 82 1 973 -180027282 81 1 974 2017 776 586 0 589 971 862 977 8
1 1 592 2314 362 443 862 0 589 595 978 82 1 976 -187563922 81 1 862 2018 776 443
 0 592 974 860 979 81 1 595 2315 362 457 874 0 592 599 980 82 1 978 -179699602 8
1 1 874 1982 776 457 0 595 981 872 982 81 1 599 2316 362 596 981 0 595 603 983 8
2 1 980 -1146748820 81 1 981 1981 776 596 0 599 984 874 985 81 1 603 2317 362 60
0 984 0 599 607 986 82 1 983 -1144782740 81 1 984 1980 776 600 0 603 987 981 988
 81 1 607 2318 362 604 987 0 603 611 989 82 1 986 -1150812052 81 1 987 1979 776
 604 0 607 990 984 991 81 1 611 2319 362 608 990 0 607 615 992 82 1 989 -1148845
972 81 1 990 1978 776 608 0 611 993 987 994 81 1 615 2320 362 612 993 0 611 619
 995 82 1 992 -1154875284 81 1 993 1977 776 612 0 615 996 990 997 81 1 619 2321
 362 616 996 0 615 623 998 82 1 995 -1152909204 81 1 996 1976 776 616 0 619 999
 993 1000 81 1 623 2322 362 620 999 0 619 627 1001 82 1 998 -1158938516 81 1 999
 1975 776 620 0 623 1002 996 1003 81 1 627 2323 362 624 1002 0 623 631 1004 82 1
 1001 -1156972436 81 1 1002 1974 776 624 0 627 1005 999 1006 81 1 631 2324 362 6
28 1005 0 627 635 1007 82 1 1004 -1163001748 81 1 1005 1973 776 628 0 631 1008 1
002 1009 81 1 635 2325 362 632 1008 0 631 639 1010 82 1 1007 -1161035668 81 1 10
08 1972 776 632 0 635 1011 1005 1012 81 1 639 2326 362 636 1011 0 635 643 1013 8
2 1 1010 -1167064980 81 1 1011 1971 776 636 0 639 1014 1008 1015 81 1 643 2327 3
62 640 1014 0 639 647 1016 82 1 1013 -1165098900 81 1 1014 1970 776 640 0 643 10
17 1011 1018 81 1 647 2328 362 644 1017 0 643 651 1019 82 1 1016 -1171128212 81
 1 1017 1969 776 644 0 647 1020 1014 1021 81 1 651 2329 362 648 1020 0 647 655 1
022 82 1 1019 -1169162132 81 1 1020 1968 776 648 0 651 1023 1017 1024 81 1 655 2
330 362 652 1023 0 651 659 1025 82 1 1022 -1175191444 81 1 1023 1967 776 652 0 6
55 1026 1020 1027 81 1 659 2331 362 656 1026 0 655 663 1028 82 1 1025 -117322536
4 81 1 1026 1966 776 656 0 659 1029 1023 1030 81 1 663 2332 362 660 1029 0 659 6
67 1031 82 1 1028 -1179254676 81 1 1029 1965 776 660 0 663 1032 1026 1033 81 1 6
67 2333 362 664 1032 0 663 671 1034 82 1 1031 -1177288596 81 1 1032 1964 776 664
 0 667 1035 1029 1036 81 1 671 2334 362 668 1035 0 667 675 1037 82 1 1034 -11833
17908 81 1 1035 1963 776 668 0 671 1038 1032 1039 81 1 675 2335 362 672 1038 0 6
71 679 1040 82 1 1037 -1181351828 81 1 1038 1962 776 672 0 675 1041 1035 1042 81
 1 679 2336 362 676 1041 0 675 683 1043 82 1 1040 -1187381140 81 1 1041 1961 776
 676 0 679 1044 1038 1045 81 1 683 2337 362 680 1044 0 679 687 1046 82 1 1043 -1
185415060 81 1 1044 1960 776 680 0 683 1047 1041 1048 81 1 687 2338 362 684 1047
 0 683 691 1049 82 1 1046 -1191444372 81 1 1047 1959 776 684 0 687 1050 1044 105
1 81 1 691 2339 362 688 1050 0 687 695 1052 82 1 1049 -1189478292 81 1 1050 1958
 776 688 0 691 1053 1047 1054 81 1 695 2340 362 692 1053 0 691 699 1055 82 1 105
2 -1195507604 81 1 1053 1957 776 692 0 695 1056 1050 1057 81 1 699 2341 362 696
 1056 0 695 703 1058 82 1 1055 -1193541524 81 1 1056 1956 776 696 0 699 1059 105
3 1060 81 1 703 2342 362 700 1059 0 699 707 1061 82 1 1058 -1199570836 81 1 1059
 1955 776 700 0 703 1062 1056 1063 81 1 707 2343 362 704 1062 0 703 711 1064 82
 1 1061 -1197604756 81 1 1062 1954 776 704 0 707 1065 1059 1066 81 1 711 2344 36
2 708 1065 0 707 715 1067 82 1 1064 -1203634068 81 1 1065 1953 776 708 0 711 106
8 1062 1069 81 1 715 2345 362 712 1068 0 711 719 1070 82 1 1067 -1201667988 81 1
 1068 1952 776 712 0 715 1071 1065 1072 81 1 719 2346 362 716 1071 0 715 723 107
3 82 1 1070 -1207762836 81 1 1071 1951 776 716 0 719 1074 1068 1075 81 1 723 234
7 362 349 777 0 719 726 1076 82 1 1073 -1205796756 81 1 777 1945 776 349 0 723 1
077 771 1078 81 1 726 2348 362 720 1074 0 723 730 1079 82 1 1076 -1127612308 81
 1 1074 1950 776 720 0 726 1080 1071 1081 81 1 730 2349 362 727 1080 0 726 732 1
082 82 1 1079 1440612462 81 1 1080 1949 776 727 0 730 1083 1074 1084 81 1 732 23
50 362 731 1083 0 730 735 1085 82 1 1082 1441529960 81 1 1083 1948 776 731 0 732
 736 1080 1086 82 1 1085 1441792104 81 1 736 1947 776 733 0 735 771 1083 1087 83
 3 1086 .792156862745098 .819607843137255 .933333333333333 83 3 1087 .7921568627
45098 .819607843137255 .933333333333333 83 3 1084 .792156862745098 .819607843137
255 .933333333333333 83 3 1081 .792156862745098 .819607843137255 .93333333333333
3 81 1 1077 1944 776 16 0 348 0 777 1088 83 3 1078 .792156862745098 .81960784313
7255 .933333333333333 81 1 348 2255 362 16 1077 0 0 357 1089 83 3 1088 .79215686
2745098 .819607843137255 .933333333333333 82 1 1089 -1526988684 83 3 1075 .79215
6862745098 .819607843137255 .933333333333333 83 3 1072 .792156862745098 .8196078
43137255 .933333333333333 83 3 1069 .792156862745098 .819607843137255 .933333333
333333 83 3 1066 .792156862745098 .819607843137255 .933333333333333 83 3 1063 .7
92156862745098 .819607843137255 .933333333333333 83 3 1060 .792156862745098 .819
607843137255 .933333333333333 83 3 1057 .792156862745098 .819607843137255 .93333
3333333333 83 3 1054 .792156862745098 .819607843137255 .933333333333333 83 3 105
1 .792156862745098 .819607843137255 .933333333333333 83 3 1048 .792156862745098
 .819607843137255 .933333333333333 83 3 1045 .792156862745098 .819607843137255 .
933333333333333 83 3 1042 .792156862745098 .819607843137255 .933333333333333 83
 3 1039 .792156862745098 .819607843137255 .933333333333333 83 3 1036 .7921568627
45098 .819607843137255 .933333333333333 83 3 1033 .792156862745098 .819607843137
255 .933333333333333 83 3 1030 .792156862745098 .819607843137255 .93333333333333
3 83 3 1027 .792156862745098 .819607843137255 .933333333333333 83 3 1024 .792156
862745098 .819607843137255 .933333333333333 83 3 1021 .792156862745098 .81960784
3137255 .933333333333333 83 3 1018 .792156862745098 .819607843137255 .9333333333
33333 83 3 1015 .792156862745098 .819607843137255 .933333333333333 83 3 1012 .79
2156862745098 .819607843137255 .933333333333333 83 3 1009 .792156862745098 .8196
07843137255 .933333333333333 83 3 1006 .792156862745098 .819607843137255 .933333
333333333 83 3 1003 .792156862745098 .819607843137255 .933333333333333 83 3 1000
 .792156862745098 .819607843137255 .933333333333333 83 3 997 .792156862745098 .8
19607843137255 .933333333333333 83 3 994 .792156862745098 .819607843137255 .9333
33333333333 83 3 991 .792156862745098 .819607843137255 .933333333333333 83 3 988
 .792156862745098 .819607843137255 .933333333333333 83 3 985 .792156862745098 .8
19607843137255 .933333333333333 83 3 982 .792156862745098 .819607843137255 .9333
33333333333 83 3 979 .792156862745098 .819607843137255 .933333333333333 83 3 977
 .792156862745098 .819607843137255 .933333333333333 83 3 975 .792156862745098 .8
19607843137255 .933333333333333 83 3 972 .792156862745098 .819607843137255 .9333
33333333333 83 3 969 .792156862745098 .819607843137255 .933333333333333 83 3 966
 .792156862745098 .819607843137255 .933333333333333 83 3 963 .792156862745098 .8
19607843137255 .933333333333333 83 3 960 .792156862745098 .819607843137255 .9333
33333333333 83 3 957 .792156862745098 .819607843137255 .933333333333333 83 3 954
 .792156862745098 .819607843137255 .933333333333333 83 3 951 .792156862745098 .8
19607843137255 .933333333333333 83 3 948 .792156862745098 .819607843137255 .9333
33333333333 83 3 945 .792156862745098 .819607843137255 .933333333333333 83 3 942
 .792156862745098 .819607843137255 .933333333333333 83 3 939 .792156862745098 .8
19607843137255 .933333333333333 83 3 936 .792156862745098 .819607843137255 .9333
33333333333 83 3 933 .792156862745098 .819607843137255 .933333333333333 83 3 930
 .792156862745098 .819607843137255 .933333333333333 83 3 927 .792156862745098 .8
19607843137255 .933333333333333 83 3 924 .792156862745098 .819607843137255 .9333
33333333333 83 3 921 .792156862745098 .819607843137255 .933333333333333 83 3 918
 .792156862745098 .819607843137255 .933333333333333 83 3 915 .792156862745098 .8
19607843137255 .933333333333333 83 3 912 .792156862745098 .819607843137255 .9333
33333333333 83 3 909 .792156862745098 .819607843137255 .933333333333333 83 3 906
 .792156862745098 .819607843137255 .933333333333333 83 3 903 .792156862745098 .8
19607843137255 .933333333333333 83 3 900 .792156862745098 .819607843137255 .9333
33333333333 83 3 897 .792156862745098 .819607843137255 .933333333333333 83 3 894
 .792156862745098 .819607843137255 .933333333333333 83 3 891 .792156862745098 .8
19607843137255 .933333333333333 83 3 888 .792156862745098 .819607843137255 .9333
33333333333 83 3 885 .792156862745098 .819607843137255 .933333333333333 83 3 882
 .792156862745098 .819607843137255 .933333333333333 83 3 879 .792156862745098 .8
19607843137255 .933333333333333 83 3 876 .792156862745098 .819607843137255 .9333
33333333333 83 3 871 .792156862745098 .819607843137255 .933333333333333 83 3 869
 .792156862745098 .819607843137255 .933333333333333 83 3 867 .792156862745098 .8
19607843137255 .933333333333333 83 3 864 .792156862745098 .819607843137255 .9333
33333333333 83 3 859 .792156862745098 .819607843137255 .933333333333333 83 3 857
 .792156862745098 .819607843137255 .933333333333333 83 3 855 .792156862745098 .8
19607843137255 .933333333333333 83 3 850 .792156862745098 .819607843137255 .9333
33333333333 83 3 848 .792156862745098 .819607843137255 .933333333333333 83 3 846
 .792156862745098 .819607843137255 .933333333333333 83 3 843 .792156862745098 .8
19607843137255 .933333333333333 83 3 841 .792156862745098 .819607843137255 .9333
33333333333 83 3 839 .792156862745098 .819607843137255 .933333333333333 83 3 836
 .792156862745098 .819607843137255 .933333333333333 83 3 834 .792156862745098 .8
19607843137255 .933333333333333 83 3 832 .792156862745098 .819607843137255 .9333
33333333333 82 1 822 -1529872268 82 1 817 -1552351116 82 1 815 -1539374988 79 25
5 15 812 SDL/TYSA_COLOUR15 809 1525 0 1090 352 0 17 1090 0 809 1090 1090 0 1091
 1092 0 0 +17 1091 0 1093 1091 1091 0 1090 1092 0 0 -16 1092 1537 0 ?1090 1094 0
 1095 0 0 1 16 1094 1540 0 ?373 1096 1092 1097 0 0 1 31 1095 1573 0 1092 0 1097
 0 +.024 .002 -433680868994202e-32 0 -1 0 0 0 -1 .0018 31 1097 1572 0 1094 1095
 1098 0 +.024 0 -433680868994202e-32 0 1 0 0 0 1 .0028 31 1098 1571 0 1096 1097
 1099 0 +.024 0 -433680868994202e-32 0 1 0 0 0 1 .0018 16 1096 1544 0 ?1100 1101
 1094 1098 0 0 1 31 1099 1514 0 1101 1098 1102 0 +.016 .002 -303576608295941e-32
 0 -1 0 0 0 -1 .0018 16 1101 1478 0 ?1103 1104 1096 1099 0 0 1 31 1102 1513 0 11
04 1099 1105 0 +.016 0 -303576608295941e-32 0 1 0 0 0 1 .0028 16 1104 1481 0 ?11
06 1107 1101 1102 0 0 1 31 1105 1512 0 1107 1102 1108 0 +.016 0 -303576608295941
e-32 0 1 0 0 0 1 .0018 16 1107 1485 0 ?1109 1110 1104 1105 0 0 1 31 1108 1455 0
 1110 1105 1111 0 +.008 .002 -1734723475976805e-33 0 -1 0 0 0 -1 .0018 16 1110 1
419 0 ?1112 1113 1107 1108 0 0 1 31 1111 1454 0 1113 1108 1114 0 +.008 0 -173472
3475976805e-33 0 1 0 0 0 1 .0028 16 1113 1422 0 ?1115 1116 1110 1111 0 0 1 31 11
14 1453 0 1116 1111 1117 0 +.008 0 -1734723475976805e-33 0 1 0 0 0 1 .0018 16 11
16 1426 0 ?1118 1119 1113 1114 0 0 1 31 1117 1396 0 1119 1114 1120 0 +6938893903
90723e-32 .002 -433680868994202e-33 0 -1 0 0 0 -1 .0018 16 1119 1360 0 ?1121 112
2 1116 1117 0 0 1 31 1120 1395 0 1122 1117 1123 0 +693889390390723e-32 0 -433680
868994202e-33 0 1 0 0 0 1 .0028 16 1122 1363 0 ?1124 1125 1119 1120 0 0 1 31 112
3 1394 0 1125 1120 1126 0 +693889390390723e-32 0 -433680868994202e-33 0 1 0 0 0
 1 .0018 16 1125 1367 0 ?1127 1128 1122 1123 0 0 1 31 1126 1337 0 1128 1123 1129
 0 +-.008 .002 867361737988404e-33 0 -1 0 0 0 -1 .0018 16 1128 1301 0 ?1130 1131
 1125 1126 0 0 1 31 1129 1336 0 1131 1126 1132 0 +-.008 0 867361737988404e-33 0
 1 0 0 0 1 .0028 16 1131 1304 0 ?1133 1134 1128 1129 0 0 1 31 1132 1335 0 1134 1
129 1135 0 +-.008 0 867361737988404e-33 0 1 0 0 0 1 .0018 16 1134 1308 0 ?1136 1
137 1131 1132 0 0 1 31 1135 1278 0 1137 1132 1138 0 +-.016 .002 216840434497101e
-32 0 -1 0 0 0 -1 .0018 16 1137 1242 0 ?1139 1140 1134 1135 0 0 1 31 1138 1277 0
 1140 1135 1141 0 +-.016 0 216840434497101e-32 0 1 0 0 0 1 .0028 16 1140 1245 0
 ?1142 1143 1137 1138 0 0 1 31 1141 1276 0 1143 1138 1144 0 +-.016 0 21684043449
7101e-32 0 1 0 0 0 1 .0018 16 1143 1249 0 ?1145 1146 1140 1141 0 0 1 31 1144 120
6 0 1146 1141 1147 0 +-.024 .002 3469446951953615e-33 0 -1 0 0 0 -1 .0018 16 114
6 1170 0 ?1148 1149 1143 1144 0 0 1 31 1147 1205 0 1149 1144 1150 0 +-.024 0 346
9446951953615e-33 0 1 0 0 0 1 .0028 16 1149 1173 0 ?1151 155 1146 1147 0 0 1 31
 1150 1204 0 155 1147 1152 0 +-.024 0 3469446951953615e-33 0 1 0 0 0 1 .0018 16
 155 1177 0 ?1153 151 1149 1150 0 0 1 31 1152 1070 0 199 1150 1154 0 +.028 .002
 .00399999999999921 0 1 0 0 0 1 .001 16 199 792 0 ?1155 150 154 1152 0 0 1 31 11
54 1069 0 194 1152 1156 0 +.012 .002 .003999999999999435 0 1 0 0 0 1 .001 16 194
 788 0 ?1157 145 149 1154 0 0 1 31 1156 1068 0 189 1154 1158 0 +-.00399999999999
991 .002 .00399999999999966 0 1 0 0 0 1 .001 16 189 784 0 ?1159 140 144 1156 0 0
 1 31 1158 1067 0 184 1156 1160 0 +-.02 .002 .00399999999999988 0 1 0 0 0 1 .001
 16 184 780 0 ?1161 135 139 1158 0 0 1 31 1160 1066 0 179 1158 1162 0 +.02 .002
 -.00400000000000068 0 1 0 0 0 1 .001 16 179 776 0 ?1163 130 134 1160 0 0 1 31 1
162 1065 0 174 1160 1164 0 +.004 .002 -.004000000000000455 0 1 0 0 0 1 .001 16 1
74 772 0 ?1165 125 129 1162 0 0 1 31 1164 1064 0 169 1162 1166 0 +-.012 .002 -.0
0400000000000023 0 1 0 0 0 1 .001 16 169 768 0 ?1167 120 124 1164 0 0 1 31 1166
 1063 0 164 1164 114 0 +-.028 .002 -.004 0 1 0 0 0 1 .001 16 164 764 0 ?1168 160
 119 1166 0 0 1 30 114 1062 0 102 1166 103 0 +-.031 .002 .008 0 0 1 16 102 752 0
 ?100 91 205 114 0 0 1 17 100 0 458 95 1169 79 98 102 0 90 +15 458 827 0 1170 45
4 0 17 95 0 458 1170 100 71 90 96 0 203 +17 1169 0 458 100 1170 50 78 112 0 98 -
17 98 0 97 108 87 50 100 102 0 0 -17 1170 0 458 1169 95 76 203 163 0 207 -17 78
 0 467 1171 81 76 1169 112 0 1170 +15 467 839 0 1171 463 0 17 1171 0 467 105 78
 74 207 205 0 30 -17 81 0 467 78 105 50 108 110 0 1169 +17 105 0 467 81 1171 82
 29 106 0 108 -17 29 0 27 25 84 74 105 106 0 1171 +17 207 0 728 203 30 76 1171 2
05 0 0 +17 30 0 728 207 94 74 25 31 0 0 +15 728 736 0 207 720 742 17 94 0 728 30
 203 11 73 204 0 0 +17 203 0 728 94 207 71 1170 163 0 0 +17 73 0 89 90 32 71 94
 204 0 95 -17 1168 0 1172 1168 1168 0 1173 164 0 0 +15 1172 814 0 1168 16 97 17
 1173 0 1174 1173 1173 0 1168 164 0 0 -15 1174 847 0 1173 466 0 17 1167 0 1175 1
167 1167 0 1176 169 0 0 +15 1175 813 0 1167 16 1172 17 1176 0 1177 1176 1176 0 1
167 169 0 0 -15 1177 865 0 1176 482 0 17 1165 0 1178 1165 1165 0 1179 174 0 0 +1
5 1178 812 0 1165 16 1175 17 1179 0 1180 1179 1179 0 1165 174 0 0 -15 1180 883 0
 1179 498 0 17 1163 0 1181 1163 1163 0 1182 179 0 0 +15 1181 811 0 1163 16 1178
 17 1182 0 1183 1182 1182 0 1163 179 0 0 -15 1183 901 0 1182 514 0 17 1161 0 118
4 1161 1161 0 1185 184 0 0 +15 1184 810 0 1161 16 1181 17 1185 0 1186 1185 1185
 0 1161 184 0 0 -15 1186 919 0 1185 530 0 17 1159 0 1187 1159 1159 0 1188 189 0
 0 +15 1187 809 0 1159 16 1184 17 1188 0 1189 1188 1188 0 1159 189 0 0 -15 1189
 937 0 1188 546 0 17 1157 0 1190 1157 1157 0 1191 194 0 0 +15 1190 808 0 1157 16
 1187 17 1191 0 1192 1191 1191 0 1157 194 0 0 -15 1192 955 0 1191 562 0 17 1155
 0 350 1155 1155 0 1193 199 0 0 +15 350 807 0 1155 16 1190 17 1193 0 1194 1193 1
193 0 1155 199 0 0 -15 1194 973 0 1193 578 0 17 1153 0 450 1153 1153 0 1195 155
 0 0 +15 450 1196 0 1153 447 1196 17 1195 0 448 1195 1195 0 1153 155 0 0 -15 448
 1190 0 1195 442 1197 15 1197 1191 0 1198 442 0 17 1198 0 1197 1198 1198 0 1148
 1146 0 0 -17 1148 0 453 1148 1148 0 1198 1146 0 0 +15 453 1158 0 1148 353 0 15
 1196 1197 0 1199 447 0 17 1199 0 1196 1199 1199 0 1151 1149 0 0 -17 1151 0 444
 1151 1151 0 1199 1149 0 0 +15 444 1185 0 1151 439 1200 15 1200 1186 0 330 439 0
 17 330 0 1200 330 330 0 1201 328 0 0 +17 1201 0 1202 1201 1201 0 330 328 0 0 -1
5 1202 1165 0 1201 16 1203 15 1203 1237 0 1204 16 1205 17 1204 0 1203 1204 1204
 0 333 331 0 0 -15 1205 1296 0 1206 16 1207 17 1206 0 1205 1206 1206 0 336 334 0
 0 -15 1207 1355 0 1208 16 1209 17 1208 0 1207 1208 1208 0 339 337 0 0 -15 1209
 1414 0 1210 16 346 17 1210 0 1209 1210 1210 0 341 340 0 0 -17 341 0 1211 341 34
1 0 1210 340 0 0 +15 1211 1435 0 341 388 0 17 339 0 1212 339 339 0 1208 337 0 0
 +15 1212 1376 0 339 401 0 17 336 0 1213 336 336 0 1206 334 0 0 +15 1213 1317 0
 336 414 0 17 333 0 1214 333 333 0 1204 331 0 0 +15 1214 1258 0 333 427 0 17 114
5 0 438 1145 1145 0 1215 1143 0 0 +15 438 1268 0 1145 434 1216 17 1215 0 435 121
5 1215 0 1145 1143 0 0 -15 435 1262 0 1215 430 1217 15 1217 1263 0 1218 430 0 17
 1218 0 1217 1218 1218 0 1139 1137 0 0 -17 1139 0 782 1139 1139 0 1218 1137 0 0
 +15 782 1230 0 1139 418 0 15 1216 1269 0 1219 434 0 17 1219 0 1216 1219 1219 0
 1142 1140 0 0 -17 1142 0 431 1142 1142 0 1219 1140 0 0 +15 431 1257 0 1142 427
 1214 17 1136 0 426 1136 1136 0 1220 1134 0 0 +15 426 1327 0 1136 422 1221 17 12
20 0 423 1220 1220 0 1136 1134 0 0 -15 423 1321 0 1220 417 1222 15 1222 1322 0 1
223 417 0 17 1223 0 1222 1223 1223 0 1130 1128 0 0 -17 1130 0 789 1130 1130 0 12
23 1128 0 0 +15 789 1289 0 1130 405 0 15 1221 1328 0 1224 422 0 17 1224 0 1221 1
224 1224 0 1133 1131 0 0 -17 1133 0 419 1133 1133 0 1224 1131 0 0 +15 419 1316 0
 1133 414 1213 17 1127 0 413 1127 1127 0 1225 1125 0 0 +15 413 1386 0 1127 409 1
226 17 1225 0 410 1225 1225 0 1127 1125 0 0 -15 410 1380 0 1225 404 1227 15 1227
 1381 0 1228 404 0 17 1228 0 1227 1228 1228 0 1121 1119 0 0 -17 1121 0 796 1121
 1121 0 1228 1119 0 0 +15 796 1348 0 1121 392 0 15 1226 1387 0 1229 409 0 17 122
9 0 1226 1229 1229 0 1124 1122 0 0 -17 1124 0 406 1124 1124 0 1229 1122 0 0 +15
 406 1375 0 1124 401 1212 17 1118 0 400 1118 1118 0 1230 1116 0 0 +15 400 1445 0
 1118 396 1231 17 1230 0 397 1230 1230 0 1118 1116 0 0 -15 397 1439 0 1230 391 1
232 15 1232 1440 0 1233 391 0 17 1233 0 1232 1233 1233 0 1112 1110 0 0 -17 1112
 0 803 1112 1112 0 1233 1110 0 0 +15 803 1407 0 1112 372 0 15 1231 1446 0 1234 3
96 0 17 1234 0 1231 1234 1234 0 1115 1113 0 0 -17 1115 0 393 1115 1115 0 1234 11
13 0 0 +15 393 1434 0 1115 388 1211 17 1109 0 387 1109 1109 0 1235 1107 0 0 +15
 387 1504 0 1109 370 1236 17 1235 0 384 1235 1235 0 1109 1107 0 0 -15 384 1498 0
 1235 380 1237 15 1237 1499 0 1238 380 0 17 1238 0 1237 1238 1238 0 1103 1101 0
 0 -17 1103 0 371 1103 1103 0 1238 1101 0 0 +15 371 1466 0 1103 359 0 15 1236 15
05 0 1239 370 0 17 1239 0 1236 1239 1239 0 1106 1104 0 0 -17 1106 0 381 1106 110
6 0 1239 1104 0 0 +15 381 1493 0 1106 345 343 17 1100 0 377 1100 1100 0 1240 109
6 0 0 +15 377 1563 0 1100 366 1241 17 1240 0 367 1240 1240 0 1100 1096 0 0 -15 3
67 1557 0 1240 358 1093 15 1093 1558 0 1091 358 0 15 1241 1564 0 1242 366 0 17 1
242 0 1241 1242 1242 0 373 1094 0 0 -17 373 0 360 373 373 0 1242 1094 0 0 +83 3
 806 .792156862745098 .819607843137255 .933333333333333 83 3 799 .79215686274509
8 .819607843137255 .933333333333333 83 3 792 .792156862745098 .819607843137255 .
933333333333333 83 3 785 .792156862745098 .819607843137255 .933333333333333 83 3
 778 .792156862745098 .819607843137255 .933333333333333 79 14 775 SWEntUnchanged
82 1 738 1442054248 15 724 567 0 1243 349 1244 17 1243 0 724 1243 1243 0 221 213
 0 0 -15 1244 505 0 1245 349 1246 17 1245 0 1244 1245 1245 0 233 225 0 0 -15 124
6 443 0 1247 349 1248 17 1247 0 1246 1247 1247 0 245 237 0 0 -15 1248 381 0 1249
 349 1250 17 1249 0 1248 1249 1249 0 257 249 0 0 -15 1250 319 0 1251 349 1252 17
 1251 0 1250 1251 1251 0 269 261 0 0 -15 1252 257 0 1253 349 1254 17 1253 0 1252
 1253 1253 0 281 273 0 0 -15 1254 195 0 1255 349 1256 17 1255 0 1254 1255 1255 0
 293 285 0 0 -15 1256 133 0 1257 349 36 17 1257 0 1256 1257 1257 0 305 297 0 0 -
17 305 0 1258 305 305 0 1257 297 0 0 +15 1258 149 0 305 716 0 17 293 0 1259 293
 293 0 1255 285 0 0 +15 1259 211 0 293 700 0 17 281 0 1260 281 281 0 1253 273 0
 0 +15 1260 273 0 281 684 0 17 269 0 1261 269 269 0 1251 261 0 0 +15 1261 335 0
 269 668 0 17 257 0 1262 257 257 0 1249 249 0 0 +15 1262 397 0 257 652 0 17 245
 0 1263 245 245 0 1247 237 0 0 +15 1263 459 0 245 636 0 17 233 0 1264 233 233 0
 1245 225 0 0 +15 1264 521 0 233 620 0 17 221 0 1265 221 221 0 1243 213 0 0 +15
 1265 583 0 221 604 0 15 721 148 0 1266 716 1258 17 1266 0 721 1266 1266 0 302 3
00 0 0 -17 302 0 717 302 302 0 1266 300 0 0 +15 717 152 0 302 712 0 15 713 179 0
 1267 708 770 17 1267 0 713 1267 1267 0 296 294 0 0 -17 296 0 709 296 296 0 1267
 294 0 0 +15 709 183 0 296 704 0 15 705 210 0 1268 700 1259 17 1268 0 705 1268 1
268 0 290 288 0 0 -17 290 0 701 290 290 0 1268 288 0 0 +15 701 214 0 290 696 0 1
5 697 241 0 1269 692 769 17 1269 0 697 1269 1269 0 284 282 0 0 -17 284 0 693 284
 284 0 1269 282 0 0 +15 693 245 0 284 688 0 15 689 272 0 1270 684 1260 17 1270 0
 689 1270 1270 0 278 276 0 0 -17 278 0 685 278 278 0 1270 276 0 0 +15 685 276 0
 278 680 0 15 681 303 0 1271 676 768 17 1271 0 681 1271 1271 0 272 270 0 0 -17 2
72 0 677 272 272 0 1271 270 0 0 +15 677 307 0 272 672 0 15 673 334 0 1272 668 12
61 17 1272 0 673 1272 1272 0 266 264 0 0 -17 266 0 669 266 266 0 1272 264 0 0 +1
5 669 338 0 266 664 0 15 665 365 0 1273 660 767 17 1273 0 665 1273 1273 0 260 25
8 0 0 -17 260 0 661 260 260 0 1273 258 0 0 +15 661 369 0 260 656 0 15 657 396 0
 1274 652 1262 17 1274 0 657 1274 1274 0 254 252 0 0 -17 254 0 653 254 254 0 127
4 252 0 0 +15 653 400 0 254 648 0 15 649 427 0 1275 644 766 17 1275 0 649 1275 1
275 0 248 246 0 0 -17 248 0 645 248 248 0 1275 246 0 0 +15 645 431 0 248 640 0 1
5 641 458 0 1276 636 1263 17 1276 0 641 1276 1276 0 242 240 0 0 -17 242 0 637 24
2 242 0 1276 240 0 0 +15 637 462 0 242 632 0 15 633 489 0 1277 628 765 17 1277 0
 633 1277 1277 0 236 234 0 0 -17 236 0 629 236 236 0 1277 234 0 0 +15 629 493 0
 236 624 0 15 625 520 0 1278 620 1264 17 1278 0 625 1278 1278 0 230 228 0 0 -17
 230 0 621 230 230 0 1278 228 0 0 +15 621 524 0 230 616 0 15 617 551 0 1279 612
 764 17 1279 0 617 1279 1279 0 224 222 0 0 -17 224 0 613 224 224 0 1279 222 0 0
 +15 613 555 0 224 608 0 15 609 582 0 1280 604 1265 17 1280 0 609 1280 1280 0 21
8 216 0 0 -17 218 0 605 218 218 0 1280 216 0 0 +15 605 586 0 218 600 0 15 601 61
3 0 1281 596 763 17 1281 0 601 1281 1281 0 212 210 0 0 -17 212 0 597 212 212 0 1
281 210 0 0 +15 597 617 0 212 457 0 15 593 986 0 1282 443 0 17 1282 0 593 1282 1
282 0 201 154 0 0 -17 201 0 590 201 201 0 1282 154 0 0 +15 590 981 0 201 586 128
3 15 1283 982 0 1284 586 0 17 1284 0 1283 1284 1284 0 153 151 0 0 -17 153 0 1285
 153 153 0 1284 151 0 0 +15 1285 823 0 153 16 1202 15 587 977 0 1286 582 0 17 12
86 0 587 1286 1286 0 198 150 0 0 -17 198 0 583 198 198 0 1286 150 0 0 +15 583 97
2 0 198 578 1194 15 579 968 0 1287 574 0 17 1287 0 579 1287 1287 0 196 149 0 0 -
17 196 0 575 196 196 0 1287 149 0 0 +15 575 963 0 196 570 1288 15 1288 964 0 128
9 570 0 17 1289 0 1288 1289 1289 0 148 146 0 0 -17 148 0 1290 148 148 0 1289 146
 0 0 +15 1290 822 0 148 16 1285 15 571 959 0 1291 566 0 17 1291 0 571 1291 1291
 0 193 145 0 0 -17 193 0 567 193 193 0 1291 145 0 0 +15 567 954 0 193 562 1192 1
5 563 950 0 1292 558 0 17 1292 0 563 1292 1292 0 191 144 0 0 -17 191 0 559 191 1
91 0 1292 144 0 0 +15 559 945 0 191 554 1293 15 1293 946 0 1294 554 0 17 1294 0
 1293 1294 1294 0 143 141 0 0 -17 143 0 1295 143 143 0 1294 141 0 0 +15 1295 821
 0 143 16 1290 15 555 941 0 1296 550 0 17 1296 0 555 1296 1296 0 188 140 0 0 -17
 188 0 551 188 188 0 1296 140 0 0 +15 551 936 0 188 546 1189 15 547 932 0 1297 5
42 0 17 1297 0 547 1297 1297 0 186 139 0 0 -17 186 0 543 186 186 0 1297 139 0 0
 +15 543 927 0 186 538 1298 15 1298 928 0 1299 538 0 17 1299 0 1298 1299 1299 0
 138 136 0 0 -17 138 0 1300 138 138 0 1299 136 0 0 +15 1300 820 0 138 16 1295 15
 539 923 0 1301 534 0 17 1301 0 539 1301 1301 0 183 135 0 0 -17 183 0 535 183 18
3 0 1301 135 0 0 +15 535 918 0 183 530 1186 15 531 914 0 1302 526 0 17 1302 0 53
1 1302 1302 0 181 134 0 0 -17 181 0 527 181 181 0 1302 134 0 0 +15 527 909 0 181
 522 1303 15 1303 910 0 1304 522 0 17 1304 0 1303 1304 1304 0 133 131 0 0 -17 13
3 0 1305 133 133 0 1304 131 0 0 +15 1305 819 0 133 16 1300 15 523 905 0 1306 518
 0 17 1306 0 523 1306 1306 0 178 130 0 0 -17 178 0 519 178 178 0 1306 130 0 0 +1
5 519 900 0 178 514 1183 15 515 896 0 1307 510 0 17 1307 0 515 1307 1307 0 176 1
29 0 0 -17 176 0 511 176 176 0 1307 129 0 0 +15 511 891 0 176 506 1308 15 1308 8
92 0 1309 506 0 17 1309 0 1308 1309 1309 0 128 126 0 0 -17 128 0 1310 128 128 0
 1309 126 0 0 +15 1310 818 0 128 16 1305 15 507 887 0 1311 502 0 17 1311 0 507 1
311 1311 0 173 125 0 0 -17 173 0 503 173 173 0 1311 125 0 0 +15 503 882 0 173 49
8 1180 15 499 878 0 1312 494 0 17 1312 0 499 1312 1312 0 171 124 0 0 -17 171 0 4
95 171 171 0 1312 124 0 0 +15 495 873 0 171 490 1313 15 1313 874 0 1314 490 0 17
 1314 0 1313 1314 1314 0 123 121 0 0 -17 123 0 1315 123 123 0 1314 121 0 0 +15 1
315 817 0 123 16 1310 15 491 869 0 1316 486 0 17 1316 0 491 1316 1316 0 168 120
 0 0 -17 168 0 487 168 168 0 1316 120 0 0 +15 487 864 0 168 482 1177 15 483 860
 0 1317 478 0 17 1317 0 483 1317 1317 0 166 119 0 0 -17 166 0 479 166 166 0 1317
 119 0 0 +15 479 855 0 166 474 1318 15 1318 856 0 1319 474 0 17 1319 0 1318 1319
 1319 0 118 116 0 0 -17 118 0 109 118 118 0 1319 116 0 0 +15 109 816 0 118 16 13
15 15 475 851 0 1320 470 0 17 1320 0 475 1320 1320 0 162 160 0 0 -17 162 0 471 1
62 162 0 1320 160 0 0 +15 471 846 0 162 466 1174 82 1 365 -1556479884 19 17 95 0
 1 0 9 5 S0 74 4 CI16 index_map_offset0 0 1 dCCZ20 15 8 0 0 801 1321 1322 1323 1
324 13 807 2 0 0 0 0 0 0 0 0 0 0 0 0 81 2 1321 1583 1325 1 0 1322 0 0 0 1326 81
 2 1322 1585 1327 1 1321 1323 0 0 0 1328 81 1 1323 1629 1329 1 1322 1324 0 0 133
0 81 2 1324 1733 1331 1 1323 13 0 0 0 1332 81 2 13 1942 1333 1 1324 2 0 0 0 0 80
 2 1333 1334 1335 9000 0 0 0 0 3 5 0 0 0 FFTFFFFFFFFFFF9 1 79 16 1335 BODY_RECIP
E_200180 2 1331 1336 1337 9000 0 0 0 0 3 5 0 0 0 FFTFFFFFFFFFFF9 1 82 1 1332 1 7
9 24 1337 BODY_IN_LIGHTWEIGHT_PERM80 1 1329 1338 1339 9000 1 1 1 1 1 1 1 1 0 FFT
FFFFFFFFFFF1 82 1 1330 3560837 79 10 1339 BODY_MATCH80 2 1327 1340 1341 9000 0 0
 0 0 3 5 0 0 0 FFTFFFFFFFFFFF9 1 82 1 1328 72 79 30 1341 LAST_BODY_MODIFYING_FEA
TURE_ID80 2 1325 1342 1343 9000 0 0 0 0 3 5 0 0 0 FFTFFFFFFFFFFT9 1 82 1 1326 11
7 79 19 1343 ENT_TIME_STAMP_200180 2 12 1344 1345 9000 0 0 0 0 3 5 0 0 0 FFTFFFF
FFFFFFF9 1 82 1 14 104 79 12 1345 ATOM_ID_20011 0 
