**ABCDEFGHIJKLMNOPQRSTUVWXYZabcdefghijklmnopqrstuvwxyz**************************
**PARASOLID !"#$%&'()*+,-./:;<=>?@[\]^_`{|}~0123456789**************************
**PART1;
MC=AMD64;
MC_MODEL=Intel64 Family 6 Model 142 Stepping 10, GenuineIntel;
MC_ID=unknown;
OS=Windows_NT;
OS_RELEASE=unknown;
FRU=Parasolid Version 31.1, build 290,  3- 9-2020;
APPL=SOLIDWORKS 2020-2020128;
SITE=;
USER=unknown;
FORMAT=text;
GUISE=transmit;
KEY=P2_4pines;
FILE=P2_4pines.x_t;
DATE=Wed Apr 28 17:49:55 2021;
**PART2;
SCH=SCH_3101290_31100;
USFLD_SIZE=0;
**PART3;
**END_OF_HEADER*****************************************************************
T51 : TRANSMIT FILE created by modeller version 310129023 SCH_3101290_31100_1300
6222 0 12 34 CCCCCCI4 mesh1006 0 I8 polyline1008 0 CCCCCCCDI5 owner1040 0 CCCCCC
I13 boundary_mesh1006 0 I17 boundary_polyline1008 0 CCCA16 index_map_offset0 0 1
 dA9 index_map82 0 A17 node_id_index_map82 0 A20 schema_embedding_map82 0 A5 chi
ld12 0 A14 lowest_node_id0 0 1 dA16 mesh_offset_data206 0 Z1 782 2 3 0 0 0 0 0 0
 1e3 1e-8 0 4 0 1 0 1 1 5 6 7 8 0 0 9 10 11 0 0 0 0 0 0 0 81 255 2 2 751 12 1 13
 0 0 0 0 14 70 11 CI9 list_type0 0 1 uI10 notransmit0 0 1 lCCCDCCDI12 finger_ind
ex0 0 1 dI12 finger_block1012 0 CZ3 0 4 T1 0 0 8 20 1 15 15 13 255 5 94 0 1 0 16
 0 0 17 0 50 255 6 93 0 18 19 0 0 +-.008 .01 .008 1 0 0 0 0 -1 31 255 7 482 0 10
 20 0 0 -0 .009 0 0 1 0 0 0 1 .0027 29 255 8 296 0 11 21 0 .007 0 .007 19 8 CCCC
CCCA5 owner12 0 Z9 28 0 1 17 0 22 V0 16 255 10 479 0 ?23 0 24 7 0 0 1 18 255 11
 294 0 25 0 26 8 ?1 17 255 25 0 27 28 29 11 30 31 0 32 -18 26 25 0 33 11 34 35 ?
1 17 33 0 36 37 38 26 39 40 0 41 +18 34 22 0 38 26 42 43 ?1 29 35 27 0 26 43 44
 -.008 .01 -.008 29 43 24 0 34 45 35 .008 .01 -.008 29 44 73 0 46 35 47 -.008 0
 .008 18 46 64 0 48 49 50 44 ?1 29 47 72 0 49 44 51 .008 0 .008 18 49 63 0 52 53
 46 47 ?1 29 51 71 0 53 47 21 .008 0 -.008 18 53 62 0 54 55 49 51 ?1 29 21 70 0
 55 51 8 -.008 0 -.008 18 55 61 0 56 57 53 21 ?1 17 56 0 58 41 59 55 60 61 0 62
 +18 57 16 0 63 42 55 64 ?1 17 63 0 65 66 67 57 68 69 0 37 -18 42 19 0 68 34 57
 45 ?1 29 64 18 0 57 70 45 -.008 .01 .008 29 70 435 0 71 72 64 -.007 0 .007 29 4
5 21 0 42 64 43 .008 .01 .008 18 71 335 0 73 74 0 70 ?1 29 72 437 0 74 75 70 .00
7 0 -.007 18 74 333 0 29 76 71 72 ?1 29 75 438 0 76 77 72 -.007 0 -.007 18 76 33
4 0 78 79 74 75 ?1 29 77 439 0 50 80 75 -.007 .009 -.007 18 50 330 0 81 46 82 77
 ?1 29 80 440 0 82 83 77 .007 .009 -.007 18 82 329 0 84 50 85 80 ?1 29 83 441 0
 79 86 80 -.007 .009 .007 18 79 332 0 87 85 76 83 ?1 29 86 442 0 85 0 83 .007 .0
09 .007 18 85 328 0 88 82 79 86 ?1 17 88 0 89 32 90 85 87 91 0 28 +15 255 89 351
 0 73 92 0 17 32 0 89 73 88 11 28 93 0 94 +17 90 0 89 88 73 79 95 96 0 0 -17 87
 0 97 98 99 79 88 91 0 100 -16 91 309 0 ?88 101 102 103 0 0 1 17 28 0 27 84 25 8
5 32 93 0 99 -15 27 355 0 25 104 0 17 84 0 27 29 28 82 99 101 0 105 +16 93 317 0
 ?32 96 106 107 0 0 1 17 99 0 97 87 108 85 84 101 0 0 -15 97 341 0 98 16 109 17
 108 0 97 99 98 82 81 110 0 0 -16 101 310 0 ?84 110 91 111 0 0 1 16 110 311 0 ?8
1 112 101 113 0 0 1 30 255 111 430 0 101 103 113 0 +.007 .009 .008 0 0 -1 30 103
 431 0 91 114 111 0 +.008 .009 .007 1 0 -1084202172485504e-31 30 113 429 0 110 1
11 115 0 +.008 .009 -.007 -1 0 1084202172485504e-31 31 115 428 0 116 113 117 0 +
.004 .009 -.004 0 1 0 0 0 1 .001 16 116 322 0 ?118 119 120 115 0 0 1 31 117 427
 0 121 115 122 0 +.004 .009 .004 0 1 0 0 0 1 .001 16 121 326 0 ?123 124 125 117
 0 0 1 30 122 426 0 96 117 126 0 +-.007 .01 .007 0 -1 0 16 96 315 0 ?95 127 93 1
22 0 0 1 30 126 425 0 112 122 107 0 +-.007 .01 -.007 0 -1 0 16 112 313 0 ?78 106
 110 126 0 0 1 30 107 424 0 93 126 128 0 +.007 .01 .007 0 -1 0 30 128 423 0 106
 107 129 0 +.007 .01 -.007 0 -1 0 16 106 319 0 ?29 93 112 128 0 0 1 31 129 422 0
 130 128 131 0 +-.004 .011 -.004 0 1 0 0 0 1 .001 16 130 321 0 ?132 133 134 129
 0 0 1 31 131 421 0 119 129 135 0 -.004 .011 -.004 0 -1 0 0 0 -1 .001 16 119 323
 0 ?136 134 116 131 0 0 1 31 135 420 0 120 131 137 0 --.004 .011 .004 0 -1 0 0 0
 -1 .001 16 120 325 0 ?138 116 139 135 0 0 1 31 137 419 0 124 135 140 0 +.004 .0
11 .004 0 1 0 0 0 1 .001 16 124 327 0 ?141 139 121 137 0 0 1 30 140 418 0 133 13
7 142 0 +-.007 0 .008 0 0 1 16 133 312 0 ?143 144 130 140 0 0 1 30 142 417 0 145
 140 146 0 +.008 0 -.007 -1 0 1084202172485504e-31 16 145 318 0 ?147 102 31 142
 0 0 1 30 146 416 0 31 142 148 0 +.007 0 .008 0 0 -1 16 31 316 0 ?30 145 144 146
 0 0 1 30 148 415 0 144 146 149 0 +.008 0 .007 1 0 -1084202172485504e-31 16 144
 314 0 ?94 31 133 148 0 0 1 31 149 255 0 150 148 151 0 +.004 .012 .004 0 1 0 0 0
 1 .002 16 150 235 0 ?152 153 127 149 0 0 1 31 151 254 0 127 149 154 0 +.004 .01
 .004 0 1 0 0 0 1 .002 16 127 232 0 ?155 150 96 151 0 0 1 31 154 224 0 156 151 1
57 0 +-.004 .012 .004 0 1 0 0 0 -1 .002 16 156 204 0 ?158 159 153 154 0 0 1 31 1
57 223 0 153 154 160 0 +-.004 .01 .004 0 1 0 0 0 -1 .002 16 153 201 0 ?161 156 1
50 157 0 0 1 31 160 193 0 162 157 163 0 +.004 .012 -.004 0 1 0 0 0 -1 .002 16 16
2 173 0 ?164 165 159 160 0 0 1 31 163 192 0 159 160 166 0 +.004 .01 -.004 0 1 0
 0 0 -1 .002 16 159 170 0 ?167 162 156 163 0 0 1 31 166 162 0 168 163 169 0 +-.0
04 .012 -.004 0 1 0 0 0 1 .002 16 168 142 0 ?170 171 165 166 0 0 1 31 169 161 0
 165 166 172 0 +-.004 .01 -.004 0 1 0 0 0 1 .002 16 165 139 0 ?173 168 162 169 0
 0 1 30 172 5 0 174 169 175 0 +-.008 .01 .008 0 0 1 16 174 4 0 ?37 69 61 172 0 0
 1 30 175 8 0 69 172 176 0 +.008 .01 .008 1 0 -1084202172485504e-31 16 69 7 0 ?6
8 177 174 175 0 0 1 30 176 11 0 177 175 178 0 +.008 .01 .008 0 0 -1 16 177 10 0
 ?38 40 69 176 0 0 1 30 178 14 0 40 176 179 0 +.008 .01 -.008 -1 0 1084202172485
504e-31 16 40 13 0 ?33 180 177 178 0 0 1 30 179 69 0 171 178 181 0 +-.008 0 .008
 0 0 1 16 171 57 0 ?182 183 168 179 0 0 1 30 181 68 0 183 179 184 0 +.008 0 .008
 1 0 -1084202172485504e-31 16 183 53 0 ?52 185 171 181 0 0 1 30 184 67 0 185 181
 186 0 +.008 0 .008 0 0 -1 16 185 49 0 ?54 61 183 184 0 0 1 30 186 66 0 61 184 1
87 0 +.008 0 -.008 -1 0 1084202172485504e-31 16 61 45 0 ?56 174 185 186 0 0 1 30
 187 86 0 180 186 188 0 +-.008 .01 -.008 0 -1 0 16 180 74 0 ?62 189 40 187 0 0 1
 30 188 87 0 189 187 190 0 +.008 .01 -.008 0 -1 0 16 189 75 0 ?59 191 180 188 0
 0 1 30 190 88 0 191 188 20 0 +.008 .01 .008 0 -1 0 16 191 76 0 ?192 24 189 190
 0 0 1 30 20 89 0 24 190 7 0 +-.008 .01 .008 0 -1 0 16 24 77 0 ?66 10 191 20 0 0
 1 17 66 0 65 52 63 46 193 24 0 182 +15 65 82 0 52 194 0 17 52 0 65 67 66 49 48
 183 0 192 +17 193 0 195 196 182 57 66 24 0 0 -17 182 0 195 193 62 46 197 171 0
 0 +15 195 84 0 182 18 0 17 62 0 195 182 196 55 41 180 0 197 +17 197 0 198 60 48
 55 182 171 0 0 -15 198 44 0 197 199 0 17 60 0 198 200 197 53 56 61 0 0 -17 48 0
 198 197 200 46 52 183 0 66 -17 200 0 198 48 60 49 54 185 0 0 -17 54 0 201 202 1
92 53 200 185 0 59 +15 201 80 0 54 203 0 17 202 0 201 204 54 34 59 189 0 39 -17
 192 0 201 54 204 49 67 191 0 200 +17 59 0 58 56 39 53 202 189 0 60 +15 58 78 0
 56 205 0 17 39 0 58 59 41 34 33 40 0 0 -17 41 0 58 39 56 26 62 180 0 196 -17 19
6 0 195 62 193 26 37 174 0 0 -17 37 0 36 68 33 57 196 174 0 193 +15 36 3 0 37 20
6 207 17 68 0 36 38 37 42 63 69 0 67 +17 38 0 36 33 68 34 204 177 0 202 +17 67 0
 65 63 52 42 192 191 0 204 -17 204 0 201 192 202 42 38 177 0 0 -14 255 206 229 2
08 ?18 16 209 5 210 +0 0 18 16 22 15 207 164 0 211 206 212 17 211 0 207 211 211
 0 167 159 0 0 -15 212 226 0 213 206 0 17 213 0 212 213 213 0 155 127 0 0 -17 15
5 0 214 155 155 0 213 127 0 0 +15 214 242 0 155 215 0 14 215 238 216 ?217 218 21
9 5 220 -0 0 217 218 22 81 1 216 753 221 215 222 0 208 223 224 14 217 243 223 ?2
25 215 226 5 227 +0 0 225 215 22 14 218 212 228 ?215 229 230 5 231 -0 0 215 229
 22 15 219 241 0 232 215 214 51 255 220 251 0 215 227 231 0 -.004 .012 .004 0 -1
 0 .002 0 0 -1 13 22 29 0 0 0 0 0 0 9 16 14 16 483 233 ?206 0 234 5 235 -236 236
 206 0 22 81 1 233 756 221 16 237 0 228 238 239 15 234 339 0 240 16 241 50 235 4
13 0 236 242 243 0 +0 .009 0 0 1 0 0 0 1 14 236 336 238 ?0 244 245 5 235 -16 16
 0 244 22 81 1 238 757 221 236 246 0 233 247 248 14 244 511 247 ?236 249 250 5 2
51 +0 0 236 249 22 15 245 474 0 252 236 0 17 252 0 245 252 252 0 253 254 0 0 +17
 253 0 255 253 253 0 252 254 0 0 -16 254 489 0 ?252 256 0 257 0 0 1 16 256 495 0
 ?258 125 254 259 0 0 1 31 257 524 0 254 259 260 0 +0 .009 0 0 -1 0 0 0 -1 .0017
 31 259 525 0 256 0 257 0 +0 1734723475976805e-33 0 0 -1 0 0 0 -1 .0017 31 260 5
23 0 125 257 261 0 +0 1734723475976805e-33 0 0 -1 0 0 0 -1 .0027 16 125 486 0 ?2
62 121 256 260 0 0 1 31 261 434 0 139 260 263 0 +-.004 .009 .004 0 1 0 0 0 1 .00
1 16 139 324 0 ?240 120 124 261 0 0 1 31 263 433 0 134 261 114 0 +-.004 .009 -.0
04 0 1 0 0 0 1 .001 16 134 320 0 ?264 130 119 263 0 0 1 30 114 432 0 102 263 103
 0 +-.007 .009 .008 0 0 1 16 102 308 0 ?100 91 145 114 0 0 1 17 100 0 265 95 266
 79 98 102 0 90 +15 265 347 0 267 225 0 17 95 0 265 267 100 71 90 96 0 143 +17 2
66 0 265 100 267 50 78 112 0 98 -17 98 0 97 108 87 50 100 102 0 0 -17 267 0 265
 266 95 76 143 133 0 147 -17 78 0 268 269 81 76 266 112 0 267 +15 268 359 0 269
 270 0 17 269 0 268 105 78 74 147 145 0 30 -17 81 0 268 78 105 50 108 110 0 266
 +17 105 0 268 81 269 82 29 106 0 108 -17 29 0 27 25 84 74 105 106 0 269 +17 147
 0 271 143 30 76 269 145 0 0 +17 30 0 271 147 94 74 25 31 0 0 +15 271 292 0 147
 199 198 17 94 0 271 30 143 11 73 144 0 0 +17 143 0 271 94 147 71 267 133 0 0 +1
7 73 0 89 90 32 71 94 144 0 95 -14 199 43 272 ?273 205 271 5 274 -0 0 273 205 22
 81 1 272 759 221 199 275 0 247 276 277 14 273 145 276 ?278 199 279 5 280 -0 0 2
78 199 22 14 205 79 281 ?199 203 58 5 282 -0 0 199 203 22 50 274 65 0 199 210 28
2 0 +0 0 0 0 1 0 0 0 1 50 210 2 0 206 280 274 0 +0 .01 0 0 1 0 0 0 1 50 282 90 0
 205 274 283 0 +.008 .01 -.008 1084202172485504e-31 0 1 1 0 -1084202172485504e-3
1 50 283 91 0 203 282 19 0 +.008 .01 .008 -1 0 0 0 0 1 14 203 81 284 ?205 194 20
1 5 283 -0 0 205 194 22 50 19 92 0 194 283 6 0 +.008 .01 .008 -1084202172485504e
-31 0 -1 -1 0 1084202172485504e-31 14 194 83 285 ?203 18 65 5 19 -0 0 203 18 22
 81 1 285 763 221 194 286 0 284 287 288 14 18 85 287 ?194 206 195 5 6 -0 0 194 2
06 22 81 1 287 764 221 18 289 0 285 290 291 80 255 1 221 292 293 9000 1 1 1 1 1
 1 1 1 0 FFFFTFTFFFFFFF1 81 1 289 659 294 18 0 287 295 286 296 81 1 290 765 221
 278 297 0 287 298 299 82 255 1 291 -1015087000 14 278 150 290 ?300 273 301 5 30
2 +0 0 300 273 22 81 1 297 665 294 278 0 290 303 304 305 81 1 298 766 221 300 30
4 0 290 306 307 82 1 299 1923285100 14 300 176 298 ?308 278 309 5 310 -0 0 308 2
78 22 81 1 304 666 294 300 0 298 297 311 312 81 1 306 767 221 308 311 0 298 313
 314 82 1 307 1929379948 14 308 181 306 ?229 300 315 5 316 -0 0 229 300 22 81 1
 311 667 294 308 0 306 304 317 318 81 1 313 768 221 229 317 0 306 319 320 82 1 3
14 1927413868 14 229 207 313 ?218 308 321 5 322 -0 0 218 308 22 81 1 317 668 294
 229 0 313 311 323 324 81 1 319 769 221 225 325 0 313 326 327 82 1 320 193344318
0 14 225 344 319 ?92 217 265 5 243 +0 0 92 217 22 81 1 325 672 294 225 0 319 328
 329 330 81 1 326 770 221 92 329 0 319 331 332 82 1 327 -1592721298 14 92 348 32
6 ?104 225 89 5 333 +0 0 104 225 22 81 1 329 673 294 92 0 326 325 334 335 81 1 3
31 771 221 104 334 0 326 336 337 82 1 332 -1591934866 14 104 352 331 ?270 92 27
 5 338 +0 0 270 92 22 81 1 334 674 294 104 0 331 329 339 340 81 1 336 772 221 27
0 339 0 331 341 342 82 1 337 -1592065938 14 270 356 336 ?343 104 268 5 344 +0 0
 343 104 22 81 1 339 675 294 270 0 336 334 345 346 81 1 341 773 221 343 345 0 33
6 347 348 82 1 342 -1592197010 14 343 363 341 ?349 270 350 5 351 +0 0 349 270 22
 81 1 345 676 294 343 0 341 339 352 353 81 1 347 774 221 349 352 0 341 354 355 8
2 1 348 -1591345042 14 349 368 347 ?356 343 357 5 358 -0 0 356 343 22 81 1 352 6
77 294 349 0 347 345 359 360 81 1 354 775 221 356 359 0 347 361 362 82 1 355 -15
91148434 14 356 372 354 ?363 349 364 5 365 +0 0 363 349 22 81 1 359 678 294 356
 0 354 352 366 367 81 1 361 776 221 363 366 0 354 368 369 82 1 362 -1590951826 1
4 363 377 361 ?370 356 371 5 372 +0 0 370 356 22 81 1 366 679 294 363 0 361 359
 373 374 81 1 368 777 221 370 373 0 361 375 376 82 1 369 -1590755218 14 370 381
 368 ?377 363 378 5 379 +0 0 377 363 22 81 1 373 680 294 370 0 368 366 380 381 8
1 1 375 778 221 377 380 0 368 382 383 82 1 376 -1590558610 14 377 386 375 ?384 3
70 385 5 386 +0 0 384 370 22 81 1 380 681 294 377 0 375 373 387 388 81 1 382 779
 221 384 387 0 375 389 390 82 1 383 -1590362002 14 384 390 382 ?391 377 392 5 39
3 +0 0 391 377 22 81 1 387 682 294 384 0 382 380 394 395 81 1 389 780 221 391 39
4 0 382 396 397 82 1 390 -1593180050 14 391 395 389 ?398 384 399 5 400 -0 0 398
 384 22 81 1 394 683 294 391 0 389 387 401 402 81 1 396 781 221 398 401 0 389 40
3 404 82 1 397 -1590034322 14 398 498 396 ?249 391 405 5 406 +0 0 249 391 22 81
 1 401 684 294 398 0 396 394 407 408 81 1 403 782 221 249 407 0 396 0 409 82 1 4
04 -34209676 14 249 506 403 ?244 398 410 5 242 -0 0 244 398 22 81 1 407 685 294
 249 0 403 401 411 412 82 1 409 -40107916 80 1 294 0 413 8001 0 0 0 0 3 5 0 0 0
 FFFFTFTFFFFFFF2 81 1 411 686 294 244 0 247 407 246 414 83 255 3 412 .9098039215
68627 .443137254901961 .03137254901960785 81 1 247 758 221 244 411 0 238 272 415
 81 1 246 687 294 236 0 238 411 0 416 83 3 414 .909803921568627 .443137254901961
 .03137254901960785 83 3 416 .909803921568627 .443137254901961 .0313725490196078
5 82 1 415 -44236684 79 255 15 413 SDL/TYSA_COLOUR15 410 509 0 417 249 418 51 24
2 518 0 249 406 235 0 -0 1734723475976805e-33 0 0 1 0 .0027 0 0 1 50 406 520 0 3
98 251 242 0 +0 1734723475976805e-33 0 0 -1 0 0 0 -1 51 251 521 0 244 0 406 0 -0
 1734723475976805e-33 0 0 1 0 .0017 0 0 1 17 417 0 410 417 417 0 262 125 0 0 -15
 418 510 0 23 249 0 17 23 0 418 23 23 0 419 10 0 0 +17 419 0 420 419 419 0 23 10
 0 0 -15 420 481 0 419 16 0 17 262 0 405 262 262 0 417 125 0 0 +15 405 500 0 262
 398 421 15 421 501 0 422 398 0 17 422 0 421 422 422 0 258 256 0 0 -17 258 0 250
 258 258 0 422 256 0 0 +15 250 514 0 258 244 255 15 255 515 0 253 244 0 83 3 408
 .909803921568627 .443137254901961 .03137254901960785 83 3 402 .909803921568627
 .443137254901961 .03137254901960785 15 399 398 0 423 391 0 50 400 401 0 391 393
 227 0 +.004 .011 .004 0 1 0 0 0 1 51 393 402 0 384 386 400 0 -.004 .012 .004 0
 -1 0 .001 0 0 -1 50 227 253 0 217 400 220 0 +.004 .012 .004 0 1 0 0 0 1 50 386
 403 0 377 379 393 0 +-.004 .011 .004 0 -1 0 0 0 -1 51 379 404 0 370 372 386 0 -
-.004 .012 .004 0 -1 0 .001 0 0 -1 50 372 405 0 363 365 379 0 +.004 .011 -.004 0
 -1 0 0 0 -1 51 365 406 0 356 358 372 0 -.004 .012 -.004 0 -1 0 .001 0 0 -1 50 3
58 407 0 349 351 365 0 +-.004 .011 -.004 0 1 0 0 0 1 51 351 408 0 343 344 358 0
 --.004 .012 -.004 0 -1 0 .001 0 0 -1 50 344 409 0 270 338 351 0 +.008 .01 -.007
 1084202172485504e-31 0 1 1 0 -1084202172485504e-31 50 338 410 0 104 333 344 0 +
.007 .01 .008 -1 0 0 0 0 1 50 333 411 0 92 243 338 0 +.008 .01 .007 -10842021724
85504e-31 0 -1 -1 0 1084202172485504e-31 50 243 412 0 225 235 333 0 +-.007 .01 .
008 1 0 0 0 0 -1 17 423 0 399 423 423 0 141 124 0 0 -17 141 0 392 141 141 0 423
 124 0 0 +15 392 393 0 141 384 424 15 424 394 0 425 384 0 17 425 0 424 425 425 0
 123 121 0 0 -17 123 0 426 123 123 0 425 121 0 0 +15 426 343 0 123 16 420 83 3 3
95 .909803921568627 .443137254901961 .03137254901960785 83 3 388 .90980392156862
7 .443137254901961 .03137254901960785 15 385 389 0 427 377 0 17 427 0 385 427 42
7 0 138 120 0 0 -17 138 0 378 138 138 0 427 120 0 0 +15 378 384 0 138 370 428 15
 428 385 0 429 370 0 17 429 0 428 429 429 0 240 139 0 0 -17 240 0 234 240 240 0
 429 139 0 0 +83 3 381 .909803921568627 .443137254901961 .03137254901960785 83 3
 374 .909803921568627 .443137254901961 .03137254901960785 15 371 380 0 430 363 0
 17 430 0 371 430 430 0 136 119 0 0 -17 136 0 364 136 136 0 430 119 0 0 +15 364
 375 0 136 356 431 15 431 376 0 432 356 0 17 432 0 431 432 432 0 118 116 0 0 -17
 118 0 109 118 118 0 432 116 0 0 +15 109 342 0 118 16 426 83 3 367 .909803921568
627 .443137254901961 .03137254901960785 83 3 360 .909803921568627 .4431372549019
61 .03137254901960785 15 357 371 0 433 349 0 17 433 0 357 433 433 0 132 130 0 0
 -17 132 0 350 132 132 0 433 130 0 0 +15 350 366 0 132 343 434 15 434 367 0 435
 343 0 17 435 0 434 435 435 0 264 134 0 0 -17 264 0 241 264 264 0 435 134 0 0 +1
5 241 340 0 264 16 97 83 3 353 .909803921568627 .443137254901961 .03137254901960
785 83 3 346 .909803921568627 .443137254901961 .03137254901960785 83 3 340 .9098
03921568627 .443137254901961 .03137254901960785 83 3 335 .909803921568627 .44313
7254901961 .03137254901960785 81 1 328 671 294 217 0 223 222 325 436 83 3 330 .9
09803921568627 .443137254901961 .03137254901960785 81 1 223 754 221 217 328 0 21
6 228 437 81 1 222 670 294 215 0 216 323 328 438 83 3 436 .909803921568627 .4431
37254901961 .03137254901960785 81 1 323 669 294 218 0 228 317 222 439 83 3 438 .
909803921568627 .443137254901961 .03137254901960785 81 1 228 755 221 218 323 0 2
23 233 440 83 3 439 .909803921568627 .443137254901961 .03137254901960785 82 1 44
0 1931477100 82 1 437 1935540332 83 3 324 .909803921568627 .443137254901961 .031
37254901960785 15 321 210 0 441 229 442 51 322 220 0 229 231 316 0 --.004 .012 .
004 0 -1 0 .002 0 0 -1 50 231 222 0 218 220 322 0 +-.004 .012 .004 0 -1 0 0 0 -1
 50 316 191 0 308 322 310 0 +.004 .012 -.004 0 -1 0 0 0 -1 51 310 189 0 300 316
 302 0 -.004 .012 -.004 0 -1 0 .002 0 0 -1 50 302 160 0 278 310 280 0 +-.004 .01
2 -.004 0 1 0 0 0 1 51 280 158 0 273 302 210 0 --.004 .012 -.004 0 -1 0 .002 0 0
 -1 17 441 0 321 441 441 0 158 156 0 0 -15 442 211 0 161 229 0 17 161 0 442 161
 161 0 443 153 0 0 +17 443 0 209 443 443 0 161 153 0 0 -15 209 195 0 443 206 444
 15 444 133 0 445 206 36 17 445 0 444 445 445 0 173 165 0 0 -17 173 0 446 173 17
3 0 445 165 0 0 +15 446 149 0 173 273 0 17 158 0 230 158 158 0 441 156 0 0 +15 2
30 214 0 158 218 0 83 3 318 .909803921568627 .443137254901961 .03137254901960785
 15 315 183 0 164 308 0 17 164 0 315 164 164 0 447 162 0 0 +17 447 0 309 447 447
 0 164 162 0 0 -15 309 179 0 447 300 448 15 448 180 0 167 300 0 17 167 0 448 167
 167 0 211 159 0 0 +83 3 312 .909803921568627 .443137254901961 .0313725490196078
5 81 1 303 664 294 273 0 276 275 297 449 83 3 305 .909803921568627 .443137254901
961 .03137254901960785 81 1 276 760 221 273 303 0 272 281 450 81 1 275 663 294 1
99 0 272 451 303 452 83 3 449 .909803921568627 .443137254901961 .031372549019607
85 81 1 451 662 294 205 0 281 453 275 454 83 3 452 .909803921568627 .44313725490
1961 .03137254901960785 81 1 281 761 221 205 451 0 276 284 455 81 1 453 661 294
 203 0 284 286 451 456 83 3 454 .909803921568627 .443137254901961 .0313725490196
0785 81 1 284 762 221 203 453 0 281 285 457 81 1 286 660 294 194 0 285 289 453 4
58 83 3 456 .909803921568627 .443137254901961 .03137254901960785 83 3 458 .90980
3921568627 .443137254901961 .03137254901960785 82 1 457 -1015611288 82 1 455 -10
15873432 82 1 450 1925251180 15 301 152 0 170 278 0 17 170 0 301 170 170 0 459 1
68 0 0 +17 459 0 279 459 459 0 170 168 0 0 -15 279 148 0 459 273 446 81 1 295 65
8 294 206 0 208 237 289 460 83 3 296 .909803921568627 .443137254901961 .03137254
901960785 81 1 208 752 221 206 295 0 0 216 461 81 1 237 657 294 16 0 233 0 295 4
62 83 3 460 .909803921568627 .443137254901961 .03137254901960785 83 3 462 .90980
3921568627 .443137254901961 .03137254901960785 82 1 461 1942880364 79 14 293 SWE
ntUnchanged82 1 288 -1015349144 82 1 277 -1016790930 82 1 248 -1592852364 82 1 2
39 -32046988 17 232 0 219 232 232 0 152 150 0 0 -17 152 0 226 152 152 0 232 150
 0 0 +15 226 245 0 152 217 0 82 1 224 1937506412 19 17 95 0 1 0 9 5 S0 74 4 CI16
 index_map_offset0 0 1 dCCZ20 15 8 0 0 403 463 464 465 466 13 246 2 0 0 0 0 0 0
 0 0 0 0 0 0 81 2 463 534 467 1 0 464 0 0 0 468 81 2 464 539 469 1 463 465 0 0 0
 470 81 1 465 545 471 1 464 466 0 0 472 81 2 466 652 473 1 465 13 0 0 0 474 81 2
 13 655 475 1 466 2 0 0 0 0 80 2 475 476 477 9000 0 0 0 0 3 5 0 0 0 FFTFFFFFFFFF
FF9 1 79 16 477 BODY_RECIPE_200180 2 473 478 479 9000 0 0 0 0 3 5 0 0 0 FFTFFFFF
FFFFFF9 1 82 1 474 1 79 24 479 BODY_IN_LIGHTWEIGHT_PERM80 1 471 480 481 9000 1 1
 1 1 1 1 1 1 0 FFTFFFFFFFFFFF1 82 1 472 3195660 79 10 481 BODY_MATCH80 2 469 482
 483 9000 0 0 0 0 3 5 0 0 0 FFTFFFFFFFFFFF9 1 82 1 470 72 79 30 483 LAST_BODY_MO
DIFYING_FEATURE_ID80 2 467 484 485 9000 0 0 0 0 3 5 0 0 0 FFTFFFFFFFFFFT9 1 82 1
 468 111 79 19 485 ENT_TIME_STAMP_200180 2 12 486 487 9000 0 0 0 0 3 5 0 0 0 FFT
FFFFFFFFFFF9 1 82 1 14 103 79 12 487 ATOM_ID_20011 0 
