**ABCDEFGHIJKLMNOPQRSTUVWXYZabcdefghijklmnopqrstuvwxyz**************************
**PARASOLID !"#$%&'()*+,-./:;<=>?@[\]^_`{|}~0123456789**************************
**PART1;
MC=AMD64;
MC_MODEL=Intel64 Family 6 Model 142 Stepping 10, GenuineIntel;
MC_ID=unknown;
OS=Windows_NT;
OS_RELEASE=unknown;
FRU=Parasolid Version 31.1, build 290,  3- 9-2020;
APPL=SOLIDWORKS 2020-2020128;
SITE=;
USER=unknown;
FORMAT=text;
GUISE=transmit;
KEY=P3_2pines_triang;
FILE=P3_2pines_triang.x_t;
DATE=Wed Apr 28 17:49:41 2021;
**PART2;
SCH=SCH_3101290_31100;
USFLD_SIZE=0;
**PART3;
**END_OF_HEADER*****************************************************************
T51 : TRANSMIT FILE created by modeller version 310129023 SCH_3101290_31100_1300
6222 0 12 34 CCCCCCI4 mesh1006 0 I8 polyline1008 0 CCCCCCCDI5 owner1040 0 CCCCCC
I13 boundary_mesh1006 0 I17 boundary_polyline1008 0 CCCA16 index_map_offset0 0 1
 dA9 index_map82 0 A17 node_id_index_map82 0 A20 schema_embedding_map82 0 A5 chi
ld12 0 A14 lowest_node_id0 0 1 dA16 mesh_offset_data206 0 Z1 753 2 3 0 0 0 0 0 0
 1e3 1e-8 0 4 0 1 0 1 1 5 6 7 8 0 0 9 10 11 0 0 0 0 0 0 0 81 255 2 2 723 12 1 13
 0 0 0 0 14 70 11 CI9 list_type0 0 1 uI10 notransmit0 0 1 lCCCDCCDI12 finger_ind
ex0 0 1 dI12 finger_block1012 0 CZ3 0 4 T1 0 0 8 20 1 15 15 13 255 5 114 0 1 0 1
6 0 0 17 0 50 255 6 113 0 18 19 0 0 +.008 .008 -.016 0 -.894427190999916 -.44721
3595499958 0 .447213595499958 -.894427190999916 32 255 7 419 0 10 20 0 0 -0 .002
881966011273105 -.008 0 -.894427190999916 -.447213595499958 0 -.447213595499958
 .894427190999916 .00190065778087482 .0017 29 255 8 485 0 11 21 0 -.002689660184
855915 .007000000000005 -.0162360679774998 19 8 CCCCCCCA5 owner12 0 Z9 34 0 1 17
 0 22 V0 16 255 10 416 0 ?23 0 24 7 0 0 1 18 255 11 483 0 25 0 26 8 ?1 17 255 25
 0 27 28 28 11 29 30 0 31 +18 26 477 0 32 11 33 21 ?1 17 32 0 34 35 35 26 36 37
 0 38 +18 33 247 0 39 26 40 41 ?1 29 21 479 0 26 41 8 .00168352959878915 .007000
000000005 -.0162360679774998 29 41 249 0 33 42 21 .007 -.002 -.001 29 42 84 0 43
 44 41 -.008 .008 -.016 18 43 73 0 45 46 47 42 ?1 29 44 85 0 47 48 42 -.008 .008
 -.024 18 47 74 0 49 43 50 44 ?1 29 48 86 0 50 51 44 -.008 -.002 -.024 18 50 75
 0 52 47 53 48 ?1 29 51 87 0 53 54 48 -.008 -.002 0 18 53 76 0 55 50 56 51 ?1 29
 54 88 0 56 57 51 -.008 0 0 18 56 77 0 58 53 59 54 ?1 29 57 33 0 40 60 54 .008 .
008 -.016 18 40 31 0 61 33 62 57 ?1 29 60 30 0 62 63 57 .008 .008 -.024 18 62 28
 0 64 40 65 60 ?1 29 63 27 0 65 66 60 .008 -.002 -.024 18 65 25 0 67 62 68 63 ?1
 29 66 24 0 68 69 63 .008 -.002 0 18 68 22 0 70 65 46 66 ?1 29 69 21 0 46 71 66
 .008 0 0 18 46 19 0 72 68 43 69 ?1 29 71 373 0 73 74 69 .007 -.002 -.023 18 73
 289 0 75 76 77 71 ?1 29 74 374 0 78 79 71 -.007 -.002 -.023 18 78 286 0 80 81 8
2 74 ?1 29 79 375 0 82 83 74 -.007 -.002 -.001 18 82 284 0 84 78 85 79 ?1 29 83
 376 0 81 86 79 -.007 .007 -.023 18 81 287 0 87 88 78 83 ?1 29 86 377 0 76 89 83
 .007 .007 -.023 18 76 290 0 90 59 73 86 ?1 29 89 378 0 77 91 86 .007 -.00061803
3988749895 -.001 18 77 285 0 92 73 88 89 ?1 29 91 379 0 85 93 89 -.007 -.0006180
33988749895 -.001 18 85 292 0 94 82 95 91 ?1 29 93 380 0 59 96 91 .007 .007 -.01
62360679774998 18 59 291 0 97 56 76 93 ?1 29 96 381 0 88 98 93 -.007 .007 -.0162
360679774998 18 88 283 0 99 77 81 96 ?1 29 98 561 0 95 100 96 -.0016835295987891
5 .007000000000005 -.0162360679774998 18 95 521 0 35 85 101 98 ?1 29 100 564 0 1
01 0 98 .002689660184855915 .007000000000005 -.0162360679774998 18 101 522 0 28
 95 0 100 ?1 17 28 0 27 25 25 101 31 102 0 29 +15 255 27 545 0 28 103 104 17 31
 0 105 99 106 11 28 102 0 107 -16 102 514 0 ?28 30 108 109 0 0 1 17 29 0 110 111
 107 101 25 30 0 106 -15 110 302 0 107 16 0 17 111 0 110 112 29 59 106 113 0 114
 -17 107 0 110 29 115 11 99 116 0 0 -16 30 515 0 ?25 117 102 118 0 0 1 17 106 0
 105 31 97 101 111 113 0 0 +15 105 297 0 106 119 0 17 97 0 105 106 120 59 121 12
2 0 111 +16 113 267 0 ?106 123 124 125 116 124 1 16 123 265 0 ?126 127 113 128 0
 0 1 16 124 478 0 ?35 113 116 125 113 116 1 30 255 125 369 0 113 129 130 0 +.008
 .007 -.0162360679774998 -1 0 0 16 116 484 0 ?99 124 122 125 124 113 1 17 99 0 1
05 131 31 88 107 116 0 132 +16 122 278 0 ?97 116 133 130 0 0 1 16 133 277 0 ?90
 122 134 135 0 0 1 30 130 368 0 122 125 128 0 +.007 .007 -.024 0 -21684043449710
1e-30 1 30 128 367 0 123 130 136 0 +.008 .007 -.023 -1 0 0 31 255 136 366 0 137
 128 138 0 -.004 .007 -.02 0 -1 -216840434497101e-30 0 216840434497101e-30 -1 .0
01 16 137 281 0 ?139 140 141 136 0 0 1 30 138 365 0 142 136 143 0 +-.007 .007105
57280900008 -.01644721359549995 0 -.447213595499958 .894427190999916 16 142 266
 0 ?144 145 146 138 0 0 1 30 143 364 0 147 138 148 0 +.008 -.000618033988749895
 -.001 -1 0 0 16 147 269 0 ?149 141 150 143 0 0 1 30 148 363 0 151 143 152 0 +.0
07 .00710557280900008 -.01644721359549995 0 -.447213595499958 .894427190999916 1
6 151 274 0 ?112 153 154 148 0 0 1 30 152 362 0 145 148 155 0 +-.007 0 -.001 0 -
1 0 16 145 268 0 ?84 156 142 152 0 0 1 30 155 361 0 153 152 135 0 +.007 0 -.001
 0 -1 0 16 153 275 0 ?157 134 151 155 0 0 1 30 135 360 0 133 155 158 0 +.007 -.0
02 -.023 0 1 0 30 158 359 0 159 135 160 0 +-.007 -.002 -.023 0 1 0 16 159 272 0
 ?87 154 156 158 0 0 1 31 160 358 0 146 158 161 0 +-.004 .009 -.02 0 1 216840434
497101e-30 0 -216840434497101e-30 1 .001 16 146 280 0 ?162 142 163 160 0 0 1 31
 161 357 0 163 160 164 0 -.004 .009 -.02 0 -1 -216840434497101e-30 0 21684043449
7101e-30 -1 .001 16 163 282 0 ?165 146 166 161 0 0 1 30 164 356 0 150 161 167 0
 +.008 -.002 -.001 -1 0 0 16 150 271 0 ?168 147 127 164 0 0 1 30 167 355 0 156 1
64 169 0 +-.007 -.002 0 0 0 -1 16 156 270 0 ?80 159 145 167 0 0 1 30 169 354 0 1
27 167 170 0 +.008 -.002 -.023 -1 0 0 16 127 273 0 ?171 150 123 169 0 0 1 30 170
 353 0 134 169 172 0 +.007 -.002 0 0 0 -1 16 134 276 0 ?173 133 153 170 0 0 1 31
 172 220 0 140 170 174 0 +.004 .01 -.02 0 1 216840434497101e-30 0 21684043449710
1e-30 -1 .002 16 140 200 0 ?175 176 137 172 0 0 1 31 174 187 0 176 172 177 0 +-.
004 .01 -.02 0 1 216840434497101e-30 0 -216840434497101e-30 1 .002 16 176 167 0
 ?178 179 140 174 0 0 1 30 177 5 0 180 174 181 0 +.008 .008 -.016 0 -.4472135954
99958 .894427190999916 16 180 4 0 ?182 183 184 177 0 0 1 30 181 8 0 183 177 185
 0 +.008 0 0 0 -1 0 16 183 7 0 ?70 186 180 181 0 0 1 30 185 11 0 186 181 187 0 +
.008 -.002 0 0 0 -1 16 186 10 0 ?67 188 183 185 0 0 1 30 187 14 0 188 185 189 0
 +.008 -.002 -.024 0 1 0 16 188 13 0 ?64 190 186 187 0 0 1 30 189 17 0 190 187 1
91 0 +.008 .008 -.024 0 -216840434497101e-30 1 16 190 16 0 ?61 192 188 189 0 0 1
 30 191 83 0 179 189 193 0 +-.008 .008 -.016 0 -.447213595499958 .89442719099991
6 16 179 69 0 ?194 195 176 191 0 0 1 30 193 82 0 195 191 196 0 +-.008 0 0 0 -1 0
 16 195 65 0 ?55 197 179 193 0 0 1 30 196 81 0 197 193 198 0 +-.008 -.002 0 0 0
 -1 16 197 61 0 ?52 199 195 196 0 0 1 30 198 80 0 199 196 200 0 +-.008 -.002 -.0
24 0 1 0 16 199 57 0 ?49 184 197 198 0 0 1 30 200 79 0 184 198 201 0 +-.008 .008
 -.024 0 -216840434497101e-30 1 16 184 53 0 ?45 180 199 200 0 0 1 30 201 104 0 1
92 200 202 0 +.008 .008 -.016 -1 0 0 16 192 89 0 ?203 204 190 201 0 0 1 30 202 1
05 0 204 201 205 0 +.008 .008 -.024 -1 0 0 16 204 90 0 ?206 207 192 202 0 0 1 30
 205 106 0 207 202 208 0 +.008 -.002 -.024 -1 0 0 16 207 91 0 ?209 210 204 205 0
 0 1 30 208 107 0 210 205 211 0 +.008 -.002 0 -1 0 0 16 210 92 0 ?212 213 207 20
8 0 0 1 30 211 108 0 213 208 214 0 +.008 0 0 -1 0 0 16 213 93 0 ?215 216 210 211
 0 0 1 31 214 160 0 216 211 20 0 --.004 .008 -.02 0 -1 -216840434497101e-30 0 21
6840434497101e-30 -1 .002 16 216 157 0 ?217 24 213 214 0 0 1 31 20 193 0 24 214
 7 0 -.004 .008 -.02 0 -1 -216840434497101e-30 0 216840434497101e-30 -1 .002 16
 24 190 0 ?218 10 216 20 0 0 1 17 218 0 219 218 218 0 220 24 0 0 +15 219 207 0 2
18 221 0 17 220 0 222 220 220 0 218 24 0 0 -15 222 192 0 220 223 0 14 255 223 19
4 224 ?18 225 226 5 227 -0 0 18 225 22 81 1 224 724 228 223 229 0 0 230 231 14 1
8 103 230 ?232 223 233 5 6 -0 0 232 223 22 14 225 99 234 ?223 119 235 5 236 -0 0
 223 119 22 15 226 159 0 237 223 238 50 227 109 0 223 239 240 0 +.008 .008 -.024
 0 -1 -216840434497101e-30 0 216840434497101e-30 -1 13 22 35 0 0 0 0 0 0 9 16 14
 16 499 241 ?119 0 242 5 243 +244 245 119 0 22 81 1 241 727 228 16 246 0 234 247
 248 14 119 489 247 ?225 16 249 5 250 +251 251 225 16 22 15 242 423 0 252 16 110
 50 243 350 0 245 250 253 0 +.008 .00710557280900008 -.01644721359549995 0 -.894
427190999916 -.447213595499958 0 .447213595499958 -.894427190999916 14 244 426 2
54 ?0 251 255 5 243 +245 16 0 251 22 14 245 299 256 ?257 258 259 5 243 +16 244 1
03 260 22 81 1 256 730 228 245 261 0 254 262 263 14 257 531 262 ?264 245 265 5 2
66 +0 0 251 264 22 14 258 453 267 ?245 268 269 5 270 +0 0 268 271 22 15 259 418
 0 272 245 0 14 103 542 273 ?251 264 27 5 274 -0 0 264 245 22 14 260 442 275 ?26
8 271 276 5 277 -0 0 245 268 22 81 1 275 734 228 260 278 0 273 279 280 14 268 44
8 279 ?258 260 281 5 282 -0 0 260 258 22 14 271 336 283 ?260 284 285 5 286 +0 0
 258 284 22 15 276 446 0 287 260 288 50 277 463 0 260 274 270 0 +0 0 -.008 0 1 0
 0 0 1 51 255 274 551 0 103 289 277 0 -0 5e2 -.016 0 -1 0 .0027 0 0 -1 51 270 46
2 0 258 277 282 0 -0 5e2 -.008 0 -1 0 .0017 0 0 -1 51 282 461 0 268 270 250 0 -0
 5e2 -.008 0 -1 0 .0027 0 0 -1 50 250 351 0 251 282 243 0 +.008 .007 -.024 0 -1
 -216840434497101e-30 0 216840434497101e-30 -1 14 251 293 290 ?244 103 34 5 250
 +119 119 244 257 22 81 1 290 737 228 251 291 0 283 292 293 15 34 492 0 32 251 0
 80 255 1 228 294 295 9000 1 1 1 1 1 1 1 1 0 FFFFTFTFFFFFFF1 81 1 291 660 296 25
1 0 290 297 298 299 81 1 283 736 228 271 300 0 279 290 301 81 1 292 738 228 264
 302 0 290 303 304 82 255 1 293 -1208680334 14 264 537 292 ?103 257 305 5 289 +0
 0 257 103 22 81 1 302 658 296 264 0 292 306 297 307 81 1 303 739 228 308 309 0
 292 310 311 82 1 304 1802502258 14 308 314 303 ?312 313 314 5 315 -0 0 312 313
 22 81 1 309 647 296 308 0 303 316 317 318 81 1 310 740 228 312 317 0 303 319 32
0 82 1 311 -1207500690 14 312 318 310 ?321 308 322 5 323 +0 0 321 308 22 81 1 31
7 648 296 312 0 310 309 324 325 81 1 319 741 228 313 316 0 310 326 327 82 1 320
 -1207369618 14 313 310 319 ?308 328 329 5 330 +0 0 308 328 22 81 1 316 646 296
 313 0 319 331 309 332 81 1 326 742 228 321 324 0 319 333 334 82 1 327 -12071730
10 14 321 322 326 ?335 312 336 5 337 +0 0 335 312 22 81 1 324 649 296 321 0 326
 317 338 339 81 1 333 743 228 335 338 0 326 340 341 82 1 334 -1207631762 14 335
 327 333 ?284 321 342 5 343 -0 0 284 321 22 81 1 338 650 296 335 0 333 324 344 3
45 81 1 340 744 228 284 344 0 333 346 347 82 1 341 -1208090514 14 284 331 340 ?2
71 335 348 5 349 +0 0 271 335 22 81 1 344 651 296 284 0 340 338 300 350 81 1 346
 745 228 351 352 0 340 353 354 82 1 347 -1208287122 14 351 208 346 ?328 221 355
 5 356 -0 0 328 221 22 81 1 352 644 296 351 0 346 357 331 358 81 1 353 746 228 2
21 357 0 346 359 360 82 1 354 1885012076 14 221 203 353 ?351 361 362 5 363 -0 0
 351 361 22 81 1 357 643 296 221 0 353 364 352 365 81 1 359 747 228 361 364 0 35
3 366 367 82 1 360 1886978156 14 361 175 359 ?221 368 369 5 370 +0 0 221 368 22
 81 1 364 642 296 361 0 359 371 357 372 81 1 366 748 228 368 371 0 359 373 374 8
2 1 367 1880883308 14 368 170 366 ?361 375 376 5 377 -0 0 361 375 22 81 1 371 64
1 296 368 0 366 378 364 379 81 1 373 749 228 380 381 0 366 382 383 82 1 374 1882
849388 14 380 1 373 ?375 384 385 5 386 +0 0 375 384 22 81 1 381 639 296 380 0 37
3 387 378 388 81 1 382 750 228 375 378 0 373 389 390 82 1 383 -2139029400 14 375
 51 382 ?368 380 391 5 239 -0 0 368 380 22 81 1 378 640 296 375 0 382 381 371 39
2 81 1 389 751 228 232 393 0 382 394 395 82 1 390 -2132213656 14 232 101 389 ?38
4 18 396 5 19 -0 0 384 18 22 81 1 393 637 296 232 0 389 397 387 398 81 1 394 752
 228 384 387 0 389 399 400 82 1 395 -2130313112 14 384 97 394 ?380 232 401 5 240
 -0 0 380 232 22 81 1 387 638 296 384 0 394 393 381 402 81 1 399 753 228 328 331
 0 394 0 403 82 1 400 -2130837400 14 328 303 399 ?313 351 404 5 253 +0 0 313 351
 22 81 1 331 645 296 328 0 399 352 316 405 82 1 403 -1206910866 80 1 296 0 406 8
001 0 0 0 0 3 5 0 0 0 FFFFTFTFFFFFFF2 83 255 3 405 .792156862745098 .81960784313
7255 .933333333333333 79 255 15 406 SDL/TYSA_COLOUR15 404 306 0 94 328 0 50 253
 349 0 328 243 330 0 +.008 0 -.001 0 0 -1 -1 0 0 50 330 348 0 313 253 315 0 +.00
8 -.002 -.023 0 0 1 1 0 0 50 315 347 0 308 330 323 0 +.007 0 0 1 0 0 0 0 -1 50 3
23 346 0 312 315 337 0 +-.007 0 0 1 0 0 0 0 -1 51 337 345 0 321 323 343 0 --.004
 .01 -.02 0 -1 -216840434497101e-30 .001 0 216840434497101e-30 -1 50 343 344 0 3
35 337 349 0 +-.004 .009 -.02 0 1 216840434497101e-30 0 -216840434497101e-30 1 5
1 349 343 0 284 343 286 0 -.004 .01 -.02 0 -1 -216840434497101e-30 .001 0 216840
434497101e-30 -1 50 286 342 0 271 349 356 0 +.004 .009 -.02 0 -1 -21684043449710
1e-30 0 216840434497101e-30 -1 50 356 218 0 351 286 363 0 +.004 .01 -.02 0 -1 -2
16840434497101e-30 0 216840434497101e-30 -1 51 363 216 0 221 356 370 0 -.004 .01
 -.02 0 -1 -216840434497101e-30 .002 0 216840434497101e-30 -1 50 370 185 0 361 3
63 377 0 +-.004 .01 -.02 0 1 216840434497101e-30 0 -216840434497101e-30 1 51 377
 183 0 368 370 386 0 --.004 .01 -.02 0 -1 -216840434497101e-30 .002 0 2168404344
97101e-30 -1 50 386 2 0 380 377 239 0 +.008 0 0 1 0 0 0 0 -1 50 239 78 0 375 386
 227 0 +-.008 0 0 1 0 0 0 0 -1 17 94 0 404 407 168 85 84 145 0 149 -17 407 0 404
 157 94 77 149 147 0 0 -17 168 0 404 94 157 82 408 150 0 409 +17 84 0 322 80 144
 82 94 145 0 168 +17 149 0 110 115 112 85 407 147 0 144 +17 115 0 110 107 149 88
 144 142 0 0 -17 112 0 110 149 111 77 114 151 0 407 +17 144 0 322 84 132 85 115
 142 0 0 +15 322 321 0 144 312 0 17 132 0 322 144 87 88 131 154 0 115 +17 87 0 3
22 132 80 81 410 159 0 126 +17 131 0 105 120 99 81 132 154 0 0 -16 154 264 0 ?13
2 151 159 129 0 0 1 30 129 370 0 154 411 125 0 +-.007 .007 -.024 0 -216840434497
101e-30 1 31 411 371 0 141 412 129 0 --.004 .007 -.02 0 -1 -216840434497101e-30
 0 216840434497101e-30 -1 .001 16 141 279 0 ?413 137 147 411 0 0 1 32 412 465 0
 166 414 411 0 +0 .002881966011273105 -.008 0 -.894427190999916 -.44721359549995
8 0 -.447213595499958 .894427190999916 .003018691769624715 .0027 16 166 433 0 ?4
15 163 416 412 0 0 1 31 414 466 0 417 418 412 0 +0 0 -.008 0 1 0 0 0 1 .0027 16
 417 434 0 ?419 416 37 414 0 0 1 31 418 467 0 416 118 414 0 +0 0 -.008 0 1 0 0 0
 1 .0017 16 416 430 0 ?287 166 417 418 0 0 1 32 118 554 0 30 109 418 0 +0 .00688
196601123536 -.016 0 -.894427190999916 -.447213595499958 0 -.447213595499958 .89
4427190999916 .003018691769624715 .0027 31 109 555 0 102 420 118 0 +0 .007000000
000005 -.016 0 -1 -216840434497101e-30 0 216840434497101e-30 -1 .0027 32 420 557
 0 117 421 109 0 +0 .00688196601123536 -.016 0 -.894427190999916 -.4472135954999
58 0 -.447213595499958 .894427190999916 .00190065778087482 .0017 16 117 509 0 ?4
22 37 30 420 0 0 1 31 421 558 0 37 423 420 0 +0 .007000000000005 -.016 0 -1 -216
840434497101e-30 0 216840434497101e-30 -1 .0017 16 37 507 0 ?32 417 117 421 0 0
 1 31 423 559 0 424 425 421 0 +0 0 -.016 0 1 0 0 0 -1 .0027 16 424 516 0 ?426 10
8 0 423 0 0 1 31 425 560 0 108 0 423 0 +0 0 -.016 0 1 0 0 0 -1 .0017 16 108 511
 0 ?427 102 424 425 0 0 1 17 427 0 428 427 427 0 429 108 0 0 +15 428 536 0 427 2
57 0 17 429 0 430 429 429 0 427 108 0 0 -15 430 541 0 429 264 0 17 426 0 104 426
 426 0 431 424 0 0 +15 104 546 0 426 103 0 17 431 0 265 431 431 0 426 424 0 0 -1
5 265 535 0 431 257 428 17 422 0 255 38 38 95 432 117 0 36 +15 255 502 0 422 244
 0 17 38 0 255 422 422 26 35 124 0 432 -17 432 0 305 36 36 26 422 117 0 0 -17 36
 0 305 432 432 95 32 37 0 0 -15 305 540 0 432 264 430 17 35 0 34 32 32 95 38 124
 0 422 +17 287 0 276 287 287 0 433 416 0 0 +17 433 0 434 433 433 0 287 416 0 0 -
15 434 457 0 433 258 0 17 419 0 435 419 419 0 436 417 0 0 +15 435 452 0 419 268
 0 17 436 0 288 436 436 0 419 417 0 0 -15 288 447 0 436 260 0 17 415 0 281 415 4
15 0 252 166 0 0 +15 281 451 0 415 268 435 17 252 0 242 252 252 0 415 166 0 0 -1
7 413 0 437 413 413 0 438 141 0 0 +15 437 296 0 413 119 105 17 438 0 439 438 438
 0 413 141 0 0 -15 439 326 0 438 321 0 17 120 0 105 97 131 76 126 123 0 121 -17
 126 0 329 410 90 81 120 123 0 131 +17 121 0 314 440 114 76 97 122 0 0 -15 314 3
17 0 114 308 0 17 440 0 314 39 121 73 90 133 0 173 -17 114 0 314 121 92 59 112 1
51 0 0 -17 92 0 314 114 39 77 157 153 0 112 -17 39 0 314 92 440 33 173 134 0 157
 -17 157 0 404 168 407 33 92 153 0 408 +17 408 0 441 173 409 33 168 150 0 0 -15
 441 260 0 409 225 0 17 173 0 441 171 408 73 39 134 0 0 +17 409 0 441 408 171 82
 80 156 0 0 -17 171 0 441 409 173 78 75 127 0 0 +17 80 0 322 87 84 78 409 156 0
 410 +17 410 0 329 75 126 78 87 159 0 171 -15 329 313 0 410 313 0 17 75 0 329 90
 410 73 171 127 0 440 -17 90 0 329 126 75 76 440 133 0 120 +83 3 402 .7921568627
45098 .819607843137255 .933333333333333 15 401 96 0 49 384 0 50 240 110 0 384 22
7 236 0 +.008 -.002 -.024 0 0 1 1 0 0 50 236 111 0 225 240 19 0 +.008 -.002 0 0
 1 0 0 0 1 50 19 112 0 232 236 6 0 +.008 0 0 0 0 -1 -1 0 0 17 49 0 401 442 209 4
7 443 199 0 206 +17 442 0 401 444 49 62 206 204 0 445 -17 209 0 401 49 444 50 44
6 207 0 443 +17 443 0 391 447 448 50 49 199 0 0 -17 206 0 238 45 445 47 442 204
 0 448 +15 238 94 0 45 223 222 17 45 0 238 449 206 43 448 184 0 203 +17 445 0 23
8 206 449 62 61 190 0 0 -17 448 0 391 443 450 47 45 184 0 0 -15 391 52 0 450 375
 0 17 450 0 391 448 58 43 194 179 0 0 -17 58 0 391 450 447 56 55 195 0 215 -17 1
94 0 233 451 203 56 450 179 0 0 +15 233 102 0 194 18 0 17 451 0 233 452 194 46 2
15 213 0 0 -17 203 0 233 194 452 43 449 192 0 450 +17 452 0 233 203 451 40 182 1
80 0 0 -17 449 0 238 445 45 40 203 192 0 452 -17 182 0 385 70 61 46 452 180 0 45
1 +15 385 3 0 182 380 0 17 70 0 385 67 182 68 72 183 0 453 +17 61 0 385 182 64 4
0 445 190 0 449 +17 64 0 385 61 67 62 444 188 0 442 +17 67 0 385 64 70 65 454 18
6 0 446 +17 444 0 401 209 442 65 64 188 0 0 -17 454 0 235 212 446 68 67 186 0 0
 -17 446 0 235 454 52 65 209 207 0 444 -15 235 98 0 52 225 441 17 52 0 235 446 2
12 50 447 197 0 209 +17 212 0 235 52 454 53 453 210 0 447 +17 447 0 391 58 443 5
3 52 197 0 0 -17 453 0 396 72 55 68 212 210 0 454 -15 396 100 0 55 232 0 17 72 0
 396 215 453 46 70 183 0 182 -17 55 0 396 453 215 53 58 195 0 212 +17 215 0 396
 55 72 56 451 213 0 194 +81 1 397 636 296 18 0 230 229 393 455 83 3 398 .7921568
62745098 .819607843137255 .933333333333333 81 1 230 725 228 18 397 0 224 234 456
 81 1 229 635 296 223 0 224 457 397 458 83 3 455 .792156862745098 .8196078431372
55 .933333333333333 81 1 457 634 296 225 0 234 459 229 460 83 3 458 .79215686274
5098 .819607843137255 .933333333333333 81 1 234 726 228 225 457 0 230 241 461 81
 1 459 633 296 119 0 247 246 457 462 83 3 460 .792156862745098 .819607843137255
 .933333333333333 81 1 247 728 228 119 459 0 241 254 463 81 1 246 632 296 16 0 2
41 0 459 464 83 3 462 .792156862745098 .819607843137255 .933333333333333 83 3 46
4 .792156862745098 .819607843137255 .933333333333333 81 1 254 729 228 244 298 0
 247 256 465 82 1 463 1841823858 81 1 298 661 296 244 0 254 291 0 466 82 1 465 1
839661170 83 3 466 .792156862745098 .819607843137255 .933333333333333 82 1 461 -
2130575250 82 1 456 -2130050968 83 3 392 .792156862745098 .819607843137255 .9333
33333333333 83 3 388 .792156862745098 .819607843137255 .933333333333333 83 3 379
 .792156862745098 .819607843137255 .933333333333333 15 376 173 0 467 368 468 17
 467 0 376 467 467 0 178 176 0 0 -15 468 174 0 217 368 0 17 217 0 468 217 217 0
 237 216 0 0 +17 237 0 226 237 237 0 217 216 0 0 -17 178 0 369 178 178 0 467 176
 0 0 +15 369 177 0 178 361 0 83 3 372 .792156862745098 .819607843137255 .9333333
33333333 83 3 365 .792156862745098 .819607843137255 .933333333333333 15 362 206
 0 469 221 219 17 469 0 362 469 469 0 175 140 0 0 -17 175 0 355 175 175 0 469 14
0 0 0 +15 355 210 0 175 351 0 83 3 358 .792156862745098 .819607843137255 .933333
333333333 81 1 300 652 296 271 0 283 344 278 470 83 3 350 .792156862745098 .8196
07843137255 .933333333333333 81 1 278 653 296 260 0 275 300 471 472 83 3 470 .79
2156862745098 .819607843137255 .933333333333333 81 1 471 654 296 268 0 279 278 4
73 474 83 3 472 .792156862745098 .819607843137255 .933333333333333 81 1 279 735
 228 268 471 0 275 283 475 81 1 473 655 296 258 0 267 471 261 476 83 3 474 .7921
56862745098 .819607843137255 .933333333333333 81 1 267 732 228 258 473 0 262 273
 477 81 1 261 656 296 245 0 256 473 306 478 83 3 476 .792156862745098 .819607843
137255 .933333333333333 81 1 306 657 296 257 0 262 261 302 479 83 3 478 .7921568
62745098 .819607843137255 .933333333333333 81 1 262 731 228 257 306 0 256 267 48
0 83 3 479 .792156862745098 .819607843137255 .933333333333333 82 1 480 180184689
8 81 1 273 733 228 103 297 0 267 275 481 82 1 477 1781661810 81 1 297 659 296 10
3 0 273 302 291 482 82 1 481 1802764402 83 3 482 .792156862745098 .8196078431372
55 .933333333333333 82 1 475 1781923954 15 348 334 0 165 284 483 17 165 0 348 16
5 165 0 484 163 0 0 +15 483 335 0 485 284 0 17 485 0 483 485 485 0 139 137 0 0 -
17 139 0 249 139 139 0 485 137 0 0 +15 249 298 0 139 119 437 17 484 0 285 484 48
4 0 165 163 0 0 -15 285 339 0 484 271 0 83 3 345 .792156862745098 .8196078431372
55 .933333333333333 15 342 330 0 486 335 0 17 486 0 342 486 486 0 162 146 0 0 -1
7 162 0 336 162 162 0 486 146 0 0 +15 336 325 0 162 321 439 83 3 339 .7921568627
45098 .819607843137255 .933333333333333 83 3 332 .792156862745098 .8196078431372
55 .933333333333333 83 3 325 .792156862745098 .819607843137255 .933333333333333
 83 3 318 .792156862745098 .819607843137255 .933333333333333 83 3 307 .792156862
745098 .819607843137255 .933333333333333 51 289 552 0 264 266 274 0 -0 5e2 -.016
 0 -1 0 .0017 0 0 -1 50 266 553 0 257 0 289 0 +0 0 -.016 0 -1 0 0 0 -1 82 1 301
 -1208156050 83 3 299 .792156862745098 .819607843137255 .933333333333333 79 14 2
95 SWEntUnchanged82 1 280 1781006450 17 272 0 259 272 272 0 23 10 0 0 -17 23 0 2
69 23 23 0 272 10 0 0 +15 269 456 0 23 258 434 82 1 263 -1206779790 82 1 248 184
2741362 82 1 231 1890386028 19 17 115 0 1 0 9 5 S0 74 4 CI16 index_map_offset0 0
 1 dCCZ20 15 8 0 0 399 487 488 489 490 13 298 2 0 0 0 0 0 0 0 0 0 0 0 0 81 2 487
 575 491 1 0 488 0 0 0 492 81 2 488 583 493 1 487 489 0 0 0 494 81 1 489 595 495
 1 488 490 0 0 496 81 2 490 627 497 1 489 13 0 0 0 498 81 2 13 630 499 1 490 2 0
 0 0 0 80 2 499 500 501 9000 0 0 0 0 3 5 0 0 0 FFTFFFFFFFFFFF9 1 79 16 501 BODY_
RECIPE_200180 2 497 502 503 9000 0 0 0 0 3 5 0 0 0 FFTFFFFFFFFFFF9 1 82 1 498 1
 79 24 503 BODY_IN_LIGHTWEIGHT_PERM80 1 495 504 505 9000 1 1 1 1 1 1 1 1 0 FFTFF
FFFFFFFFF1 82 1 496 3899518 79 10 505 BODY_MATCH80 2 493 506 507 9000 0 0 0 0 3
 5 0 0 0 FFTFFFFFFFFFFF9 1 82 1 494 74 79 30 507 LAST_BODY_MODIFYING_FEATURE_ID8
0 2 491 508 509 9000 0 0 0 0 3 5 0 0 0 FFTFFFFFFFFFFT9 1 82 1 492 109 79 19 509
 ENT_TIME_STAMP_200180 2 12 510 511 9000 0 0 0 0 3 5 0 0 0 FFTFFFFFFFFFFF9 1 82
 1 14 103 79 12 511 ATOM_ID_20011 0 
