**ABCDEFGHIJKLMNOPQRSTUVWXYZabcdefghijklmnopqrstuvwxyz**************************
**PARASOLID !"#$%&'()*+,-./:;<=>?@[\]^_`{|}~0123456789**************************
**PART1;
MC=AMD64;
MC_MODEL=Intel64 Family 6 Model 142 Stepping 10, GenuineIntel;
MC_ID=unknown;
OS=Windows_NT;
OS_RELEASE=unknown;
FRU=Parasolid Version 31.1, build 290,  3- 9-2020;
APPL=SOLIDWORKS 2020-2020128;
SITE=;
USER=unknown;
FORMAT=text;
GUISE=transmit;
KEY=P4_Base_Volante;
FILE=P4_Base_Volante.x_t;
DATE=Wed Apr 28 17:49:29 2021;
**PART2;
SCH=SCH_3101290_31100;
USFLD_SIZE=0;
**PART3;
**END_OF_HEADER*****************************************************************
T51 : TRANSMIT FILE created by modeller version 310129023 SCH_3101290_31100_1300
6222 0 12 34 CCCCCCI4 mesh1006 0 I8 polyline1008 0 CCCCCCCDI5 owner1040 0 CCCCCC
I13 boundary_mesh1006 0 I17 boundary_polyline1008 0 CCCA16 index_map_offset0 0 1
 dA9 index_map82 0 A17 node_id_index_map82 0 A20 schema_embedding_map82 0 A5 chi
ld12 0 A14 lowest_node_id0 0 1 dA16 mesh_offset_data206 0 Z1 822 2 3 0 0 0 0 0 0
 1e3 1e-8 0 4 0 1 0 1 1 5 6 7 8 0 0 9 10 11 0 0 0 0 0 0 0 81 255 2 2 802 12 1 13
 0 0 0 0 14 70 11 CI9 list_type0 0 1 uI10 notransmit0 0 1 lCCCDCCDI12 finger_ind
ex0 0 1 dI12 finger_block1012 0 CZ3 0 4 T1 0 0 8 20 1 15 15 13 255 5 94 0 1 0 16
 0 0 17 0 50 255 6 93 0 18 19 0 0 +-.008 .003 .004 1 0 0 0 0 -1 133 255 7 649 0
 20 21 0 0 +22 -.000751700249997855 .014 -.00325 -.004 .014 -.00325 .00075170024
9997855 .004 29 255 8 650 0 11 23 0 -.000751700249997855 .014 -.00325 19 8 CCCCC
CCA5 owner12 0 Z9 28 0 1 17 0 24 V0 16 255 10 431 0 ?25 0 20 21 0 0 1 18 255 11
 647 0 26 0 27 8 1e-8 1 17 255 26 0 28 29 29 11 30 31 0 32 -18 27 422 0 33 11 34
 23 ?1 17 33 0 35 25 36 27 37 38 0 39 +18 34 258 0 40 27 41 42 ?1 29 23 424 0 27
 42 8 .004 .014 -.00325 29 42 260 0 34 43 23 .004 .003 -.0025 29 43 257 0 41 44
 42 .002 .003 -.0025 18 41 255 0 45 34 46 43 ?1 29 44 254 0 46 47 43 -.002 .003
 -.0025 18 46 252 0 48 41 49 44 ?1 29 47 247 0 49 50 44 -.004 .003 -.004 18 49 2
44 0 51 46 52 47 1e-8 1 29 50 241 0 52 53 47 .004 .003 -.004 18 52 239 0 54 49 5
5 50 1e-8 1 29 53 142 0 55 56 50 .007 0 .003 18 55 140 0 57 52 58 53 ?1 29 56 70
 0 59 60 53 -.008 0 -.004 18 59 61 0 61 62 63 56 ?1 29 60 71 0 63 64 56 .008 0 -
.004 18 63 62 0 65 59 66 60 ?1 29 64 72 0 66 67 60 .008 0 .004 18 66 63 0 68 63
 69 64 ?1 29 67 73 0 69 70 64 -.008 0 .004 18 69 64 0 71 66 72 67 ?1 29 70 27 0
 58 73 67 -.008 .003 -.004 18 58 25 0 74 55 75 70 ?1 29 73 24 0 75 76 70 .008 .0
03 -.004 18 75 22 0 77 58 78 73 ?1 29 76 21 0 78 79 73 .008 .003 .004 18 78 19 0
 80 75 62 76 ?1 29 79 18 0 62 81 76 -.008 .003 .004 18 62 16 0 82 78 59 79 ?1 29
 81 217 0 83 84 79 -.007 0 .003 18 83 173 0 85 86 87 81 ?1 29 84 219 0 86 88 81
 .007 0 -.003 18 86 168 0 89 90 83 84 ?1 29 88 220 0 90 91 84 -.007 0 -.003 18 9
0 169 0 92 93 86 88 ?1 29 91 221 0 72 94 88 -.007 .002 -.003 18 72 172 0 95 69 9
6 91 ?1 29 94 222 0 96 97 91 .007 .002 -.003 18 96 171 0 98 72 99 94 ?1 29 97 22
3 0 99 100 94 .007 .002 .003 18 99 170 0 101 96 93 97 ?1 29 100 224 0 93 102 97
 -.007 .002 .003 18 93 167 0 103 99 90 100 ?1 29 102 381 0 104 105 100 -.004 .00
3 -.0025 18 104 313 0 106 107 108 102 ?1 29 105 385 0 87 109 102 .004 .014 -.004
 18 87 309 0 110 83 107 105 ?1 29 109 386 0 107 111 105 -.004 .014 -.004 18 107
 311 0 112 87 104 109 ?1 29 111 606 0 108 113 109 -.004 .0122857142857143 -.0025
 18 108 527 0 114 104 115 111 ?1 29 113 607 0 115 116 111 -.002 .012285714285714
3 -.0025 18 115 528 0 117 108 118 113 ?1 29 116 608 0 118 119 113 .002 .01228571
42857143 -.0025 18 118 533 0 120 115 121 116 ?1 29 119 609 0 121 122 116 -.004 .
014 -.00325 18 121 524 0 123 118 124 119 ?1 29 122 612 0 124 125 119 .004 .01228
57142857143 -.0025 18 124 534 0 36 121 126 122 ?1 29 125 703 0 126 0 122 .000751
700249975699 .014 -.00325 18 126 672 0 29 124 0 125 1e-8 1 17 29 0 28 26 26 126
 32 127 0 30 +15 255 28 681 0 26 128 129 17 32 0 35 123 25 11 29 127 0 130 -16 1
27 666 0 ?29 131 0 132 0 0 1 17 30 0 133 39 130 126 26 31 0 25 +15 133 658 0 30
 134 0 17 39 0 133 135 30 27 25 10 0 136 -17 130 0 133 30 137 11 123 20 0 0 -16
 31 664 0 ?30 38 131 138 0 0 1 17 25 0 35 32 33 126 39 10 0 0 +15 35 547 0 25 13
9 0 14 255 139 544 140 ?128 134 35 5 141 -0 0 128 134 24 81 1 140 803 142 139 14
3 0 0 144 145 14 128 678 144 ?146 139 28 5 147 +0 0 146 139 24 14 134 345 148 ?1
39 149 133 5 150 +0 0 139 149 24 50 141 581 0 139 147 150 0 +-.008000025 .014 -.
00325 0 -.4008188340197075 -.916157334902189 0 .916157334902189 -.40081883401970
8 13 24 29 0 0 0 0 0 0 9 16 14 16 264 151 ?18 0 152 5 153 +0 0 18 0 24 81 1 151
 806 142 16 154 0 148 155 156 14 18 85 155 ?157 16 158 5 6 -0 0 157 16 24 15 152
 3 0 54 16 0 50 153 2 0 16 159 160 0 +0 .003 0 0 1 0 0 0 1 50 159 199 0 161 162
 153 0 +0 .002 0 0 1 0 0 0 1 50 160 65 0 163 153 164 0 +0 0 0 0 1 0 0 0 1 14 163
 43 165 ?166 167 168 5 160 -0 0 166 167 24 50 164 90 0 167 160 169 0 +.008 .003
 -.004 1084202172485504e-31 0 1 1 0 -1084202172485504e-31 14 167 79 170 ?163 171
 172 5 164 -0 0 163 171 24 50 169 91 0 171 164 19 0 +.008 .003 .004 -1 0 0 0 0 1
 14 171 81 173 ?167 157 174 5 169 -0 0 167 157 24 50 19 92 0 157 169 6 0 +.008 .
003 .004 -1626303258728255e-31 0 -1 -1 0 1626303258728255e-31 14 157 83 175 ?171
 18 176 5 19 -0 0 171 18 24 81 1 175 811 142 157 177 0 173 178 179 15 176 82 0 6
8 157 0 17 68 0 176 180 181 66 71 182 0 183 +17 180 0 176 82 68 78 183 184 0 185
 -17 181 0 176 68 82 69 186 187 0 188 +17 71 0 189 190 191 69 68 182 0 181 -16 1
82 53 0 ?68 192 193 194 0 0 1 17 183 0 174 65 185 66 180 184 0 191 +15 174 80 0
 65 171 0 17 65 0 174 195 183 63 191 192 0 196 +17 185 0 174 183 195 78 77 197 0
 0 -16 184 76 0 ?183 187 198 199 0 0 1 17 191 0 189 71 200 66 65 192 0 0 -15 189
 44 0 190 163 0 17 200 0 189 191 190 63 61 201 0 0 -16 192 49 0 ?65 201 182 202
 0 0 1 16 201 45 0 ?61 203 192 204 0 0 1 30 255 202 67 0 192 194 204 0 +.008 0 .
004 0 0 -1 30 194 68 0 182 205 202 0 +.008 0 .004 1 0 -1626303258728255e-31 30 2
04 66 0 201 202 206 0 +.008 0 -.004 -1 0 1084202172485504e-31 30 206 86 0 207 20
4 208 0 +-.008 .003 -.004 0 -1 0 16 207 74 0 ?209 198 210 206 0 0 1 30 208 87 0
 198 206 199 0 +.008 .003 -.004 0 -1 0 16 198 75 0 ?196 184 207 208 0 0 1 30 199
 88 0 184 208 211 0 +.008 .003 .004 0 -1 0 30 211 89 0 187 199 212 0 +-.008 .003
 .004 0 -1 0 16 187 77 0 ?181 20 184 211 0 0 1 133 212 243 0 210 211 213 0 +214
 .008 .003 -.004 .004 .003 -.004 0 .004 16 210 13 0 ?54 207 215 212 0 0 1 133 21
3 246 0 215 212 216 0 +214 -.004 .003 -.004 -.008 .003 -.004 .012 .016 30 214 14
 0 1 217 205 218 +.008 .003 -.004 -1 0 1084202172485504e-31 30 217 11 0 197 219
 214 0 +.008 .003 .004 0 0 -1 30 205 69 0 193 214 194 0 +-.008 0 .004 0 0 1 141
 255 218 213 220 220 214 141 220 212 218 218 214 16 193 57 0 ?188 182 221 205 0
 0 1 17 188 0 158 186 209 69 190 193 0 0 +16 221 157 0 ?222 193 223 224 0 0 1 17
 222 0 225 226 227 83 228 221 0 229 +16 223 159 0 ?230 221 231 232 0 0 1 30 224
 216 0 221 233 234 0 +-.007 .003 .003 0 -1 0 30 233 361 0 235 236 224 0 +.004 .0
14 -.0025 0 -1 0 30 234 215 0 237 224 238 0 +-.007 .002 .004 0 0 1 16 237 162 0
 ?227 239 240 234 0 0 1 30 238 214 0 241 234 232 0 +-.007 .003 -.003 0 -1 0 16 2
41 155 0 ?92 231 242 238 0 0 1 30 232 213 0 223 238 243 0 +.007 .003 .003 0 -1 0
 30 243 212 0 239 232 244 0 +.008 .002 .003 1 0 -1626303258728255e-31 16 239 163
 0 ?101 245 237 243 0 0 1 30 244 211 0 231 243 246 0 +.007 .003 -.003 0 -1 0 16
 231 161 0 ?89 223 241 244 0 0 1 30 246 210 0 245 244 247 0 +.007 .002 .004 0 0
 -1 16 245 164 0 ?98 242 239 246 0 0 1 30 247 209 0 242 246 248 0 +.008 .002 -.0
03 -1 0 1084202172485504e-31 16 242 165 0 ?95 241 245 247 0 0 1 30 248 208 0 249
 247 250 0 +-.007 0 .004 0 0 1 16 249 154 0 ?229 251 252 248 0 0 1 30 250 207 0
 240 248 253 0 +.008 0 -.003 -1 0 1084202172485504e-31 16 240 160 0 ?254 237 255
 250 0 0 1 30 253 206 0 255 250 256 0 +.007 0 .004 0 0 -1 16 255 158 0 ?257 240
 251 253 0 0 1 30 256 205 0 251 253 258 0 +.008 0 .003 1 0 -1626303258728255e-31
 16 251 156 0 ?259 255 249 256 0 0 1 30 258 5 0 203 256 219 0 +-.008 .003 .004 0
 0 1 16 203 4 0 ?260 261 201 258 0 0 1 30 219 8 0 261 258 217 0 +.008 .003 .004
 1 0 -1626303258728255e-31 16 261 7 0 ?80 197 203 219 0 0 1 17 80 0 152 77 260 7
8 82 261 0 180 +16 197 10 0 ?77 215 261 217 0 0 1 17 77 0 152 54 80 75 185 197 0
 195 +16 215 245 0 ?74 210 197 213 0 0 1 17 74 0 152 260 51 58 262 215 0 263 +17
 260 0 152 80 74 62 264 203 0 186 +17 51 0 152 74 265 49 266 267 0 262 -17 262 0
 172 112 263 49 74 215 0 268 -17 263 0 172 262 61 58 209 207 0 264 -15 172 78 0
 61 167 0 17 61 0 172 263 196 59 200 201 0 209 +17 209 0 158 188 264 59 263 207
 0 190 +17 264 0 158 209 186 58 260 203 0 0 -15 158 84 0 188 18 0 17 186 0 158 2
64 188 62 181 187 0 0 -17 190 0 189 200 71 59 188 193 0 0 -17 196 0 172 61 269 6
3 195 198 0 200 +17 269 0 172 196 270 75 54 210 0 0 -17 195 0 174 185 65 75 196
 198 0 269 -17 270 0 172 269 271 52 110 252 0 272 +17 54 0 152 273 77 52 269 210
 0 270 +17 273 0 152 274 54 34 272 275 0 276 +17 274 0 152 277 273 41 276 278 0
 279 +17 272 0 280 110 40 52 273 275 0 0 -16 275 300 0 ?273 278 281 282 0 0 1 17
 276 0 283 284 45 34 274 278 0 0 -15 283 443 0 285 149 0 17 284 0 283 285 276 12
4 40 235 0 0 -17 45 0 283 276 285 41 286 287 0 274 +16 278 303 0 ?274 288 275 28
9 0 0 1 16 288 283 0 ?279 290 278 291 0 0 1 30 289 371 0 278 292 291 0 +.004 .00
3 -.0025 -1 0 0 30 292 372 0 1 293 289 294 +.004 .003 -.004 0 0 1 31 255 291 370
 0 288 289 295 0 +0 .003 -.004 0 1 0 0 0 1 .0025 30 295 369 0 290 291 296 0 +-.0
04 .003 -.0025 1 0 0 16 290 279 0 ?297 267 288 295 0 0 1 30 296 364 0 298 295 29
9 0 +-.004 .014 -.0025 0 -1 0 16 298 461 0 ?106 300 301 296 0 0 1 30 299 363 0 3
01 296 236 0 +-.002 .014 -.0025 0 -1 0 16 301 447 0 ?48 298 287 299 0 0 1 30 236
 362 0 287 299 233 0 +.002 .014 -.0025 0 -1 0 16 287 440 0 ?45 301 235 236 0 0 1
 16 235 437 0 ?40 287 302 233 0 0 1 17 40 0 280 272 37 34 284 235 0 273 +16 302
 271 0 ?271 235 303 293 0 0 1 17 271 0 172 270 112 87 304 302 0 0 +16 303 291 0
 ?137 302 305 306 0 0 1 30 293 373 0 302 306 292 0 +-.004 .014 -.004 1 0 0 30 30
6 374 0 303 307 293 0 +-.004 .014 -.004 0 0 1 30 307 378 0 305 308 306 0 +.004 .
014 -.004 0 0 1 16 305 267 0 ?136 303 267 307 0 0 1 30 308 588 0 281 309 307 0 +
-.004 .01427540983606556 -.00337049180327869 0 .916157334902189 -.40081883401970
8 16 281 486 0 ?310 275 311 308 0 0 1 30 309 589 0 311 312 308 0 +-.004 .0122857
142857143 -.0025 -1 0 0 16 311 485 0 ?313 281 314 309 0 0 1 32 255 312 590 0 314
 315 309 0 +0 .0157142857142857 -.004 0 -.4008188340197075 -.916157334902189 0 -
.916157334902189 .400818834019708 .00623723185591892 .0025 16 314 488 0 ?117 311
 316 312 0 0 1 30 315 591 0 316 317 312 0 +.004 .0122857142857143 -.0025 1 0 0 1
6 316 507 0 ?36 314 38 315 0 0 1 30 317 597 0 38 318 315 0 +.004 .014 -.00325 0
 .916157334902189 -.4008188340197075 16 38 516 0 ?33 316 31 317 0 0 1 32 318 695
 0 1 138 317 319 -0 .01400000000001 -.000916312570439004 0 1 0 0 0 1 .0029938712
90841085 .0012 133 138 696 0 31 132 318 0 +318 -.000751700249975699 .014 -.00325
 .000751700249975699 .014 -.00325 3.818540560867095 2.464644746312495 141 319 13
8 319 319 318 133 132 699 0 127 320 138 0 +320 -.000751700249975699 .014 -.00325
 .000751700249975699 .014 -.00325 3.818540560865985 8.74783005349319 31 320 700
 0 1 321 132 322 +0 .01314303937012646 -.00287507972443033 0 .400818834019708 .9
16157334902189 0 -.916157334902189 .400818834019708 .0012 31 321 701 0 131 0 320
 0 +0 .0143454958721856 -.0001266077197237632 0 .400818834019708 .91615733490218
9 0 -.916157334902189 .400818834019708 .0012 141 322 132 322 322 320 16 131 669
 0 ?323 31 127 321 0 0 1 17 323 0 324 323 323 0 325 131 0 0 +15 324 685 0 323 14
6 0 17 325 0 129 325 325 0 323 131 0 0 -15 129 682 0 325 128 0 14 146 683 178 ?0
 128 324 5 326 +0 0 0 128 24 81 1 178 812 142 146 327 0 175 328 329 50 326 694 0
 146 0 147 0 +0 .0143454958721856 -.0001266077197237632 0 .400818834019708 .9161
57334902189 0 -.916157334902189 .400818834019708 51 255 147 692 0 128 326 141 0
 +0 -218.7358095431385 -500.000480982601 0 .400818834019708 .916157334902189 .00
12 0 -.916157334902189 .400818834019708 80 255 1 142 330 331 9000 1 1 1 1 1 1 1
 1 0 FFFFTFTFFFFFFF1 81 1 327 759 332 146 0 178 333 0 334 81 1 328 813 142 149 3
35 0 178 336 337 82 255 1 329 -1354366855 14 149 341 328 ?134 338 283 5 339 +0 0
 134 338 24 81 1 335 755 332 149 0 328 340 341 342 81 1 336 814 142 338 340 0 32
8 343 344 82 1 337 -1589641102 14 338 337 336 ?149 345 346 5 347 -0 0 149 345 24
 81 1 340 754 332 338 0 336 348 335 349 81 1 343 815 142 345 348 0 336 350 351 8
2 1 344 -1589903246 14 345 333 343 ?338 352 353 5 354 -0 0 338 352 24 81 1 348 7
53 332 345 0 343 355 340 356 81 1 350 816 142 352 355 0 343 357 358 82 1 351 -15
90165390 14 352 329 350 ?345 359 360 5 361 -0 0 345 359 24 81 1 355 752 332 352
 0 350 362 348 363 81 1 357 817 142 359 362 0 350 364 365 82 1 358 -1590493070 1
4 359 321 357 ?352 161 280 5 366 +0 0 352 161 24 81 1 362 751 332 359 0 357 367
 355 368 81 1 364 818 142 161 367 0 357 369 370 82 1 365 -1589444494 14 161 190
 364 ?359 371 372 5 159 -0 0 359 371 24 81 1 367 750 332 161 0 364 373 362 374 8
1 1 369 819 142 371 373 0 364 375 376 82 1 370 2044526698 14 371 186 369 ?161 37
7 378 5 162 +0 0 161 377 24 81 1 373 749 332 371 0 369 379 367 380 81 1 375 820
 142 377 379 0 369 381 382 82 1 376 2044264554 14 377 182 375 ?371 383 384 5 385
 +0 0 371 383 24 81 1 379 748 332 377 0 375 386 373 387 81 1 381 821 142 383 386
 0 375 388 389 82 1 382 2044002410 14 383 178 381 ?377 166 390 5 391 +0 0 377 16
6 24 81 1 386 747 332 383 0 381 392 379 393 81 1 388 822 142 166 392 0 381 0 394
 82 1 389 2043805802 14 166 174 388 ?383 163 225 5 395 +0 0 383 163 24 81 1 392
 746 332 166 0 388 396 386 397 82 1 394 2043674730 80 1 332 0 398 8001 0 0 0 0 3
 5 0 0 0 FFFFTFTFFFFFFF2 81 1 396 745 332 163 0 165 399 392 400 83 255 3 397 .79
2156862745098 .819607843137255 .933333333333333 81 1 165 808 142 163 396 0 155 1
70 401 81 1 399 744 332 167 0 170 402 396 403 83 3 400 .792156862745098 .8196078
43137255 .933333333333333 81 1 170 809 142 167 399 0 165 173 404 81 1 402 743 33
2 171 0 173 177 399 405 83 3 403 .792156862745098 .819607843137255 .933333333333
333 81 1 173 810 142 171 402 0 170 175 406 81 1 177 742 332 157 0 175 407 402 40
8 83 3 405 .792156862745098 .819607843137255 .933333333333333 81 1 407 741 332 1
8 0 155 154 177 409 83 3 408 .792156862745098 .819607843137255 .933333333333333
 81 1 155 807 142 18 407 0 151 165 410 81 1 154 740 332 16 0 151 0 407 411 83 3
 409 .792156862745098 .819607843137255 .933333333333333 83 3 411 .79215686274509
8 .819607843137255 .933333333333333 82 1 410 775749736 82 1 406 775225448 82 1 4
04 774963310 82 1 401 774045802 79 255 15 398 SDL/TYSA_COLOUR15 225 177 0 226 16
6 0 50 395 203 0 166 366 391 0 +-.007 .003 .004 1 0 0 0 0 -1 50 366 353 0 359 33
9 395 0 +.004 .014 -.004 1 0 0 0 0 -1 50 391 202 0 383 395 385 0 +.008 .003 .003
 -1626303258728255e-31 0 -1 -1 0 1626303258728255e-31 50 385 201 0 377 391 162 0
 +.007 .003 .004 -1 0 0 0 0 1 50 162 200 0 371 385 159 0 +.008 .003 -.003 108420
2172485504e-31 0 1 1 0 -1084202172485504e-31 50 339 354 0 149 347 366 0 +.004 .0
14 -.0025 0 0 1 1 0 0 51 347 355 0 338 354 339 0 -0 .014 -.004 0 -1 0 .0025 0 0
 -1 50 354 356 0 345 361 347 0 +-.004 .014 -.0025 0 0 -1 -1 0 0 50 361 357 0 352
 150 354 0 +-.004 .014 -.004 1 0 0 0 0 -1 50 150 360 0 134 141 361 0 +0 .014 -.0
04 0 1 0 0 0 1 17 226 0 225 412 222 90 229 249 0 254 -17 412 0 225 227 226 72 92
 241 0 413 -17 229 0 168 259 254 83 226 249 0 0 +17 254 0 168 229 257 90 414 240
 0 0 +15 168 138 0 254 163 189 17 257 0 168 254 259 86 57 255 0 0 +17 414 0 378
 415 92 86 254 240 0 257 -15 378 189 0 414 371 0 17 415 0 378 95 414 96 89 231 0
 416 -17 92 0 378 414 95 90 412 241 0 226 +17 95 0 378 92 415 72 416 242 0 412 +
17 416 0 372 417 413 96 95 242 0 0 -15 372 193 0 413 161 0 17 417 0 372 103 416
 99 98 245 0 0 -17 413 0 372 416 103 72 227 237 0 0 -17 103 0 372 413 417 93 101
 239 0 227 -17 227 0 225 222 412 93 413 237 0 228 +17 228 0 390 101 85 93 222 22
1 0 0 -15 390 181 0 85 383 0 17 101 0 390 230 228 99 103 239 0 418 +17 85 0 390
 228 230 83 259 251 0 222 -17 230 0 390 85 101 55 418 223 0 259 +17 259 0 168 25
7 229 55 85 251 0 0 +17 418 0 384 98 57 99 230 223 0 417 -15 384 185 0 57 377 0
 17 98 0 384 89 418 96 417 245 0 415 +17 57 0 384 418 89 55 257 255 0 230 -17 89
 0 384 57 98 86 415 231 0 414 +83 3 393 .792156862745098 .819607843137255 .93333
3333333333 83 3 387 .792156862745098 .819607843137255 .933333333333333 83 3 380
 .792156862745098 .819607843137255 .933333333333333 83 3 374 .792156862745098 .8
19607843137255 .933333333333333 83 3 368 .792156862745098 .819607843137255 .9333
33333333333 15 280 472 0 37 359 0 17 37 0 280 40 136 124 33 38 0 284 -17 136 0 2
80 37 110 27 135 305 0 0 +17 110 0 280 136 272 87 270 252 0 135 -17 135 0 133 30
4 39 87 136 305 0 271 -17 304 0 133 137 135 107 271 302 0 0 -17 137 0 133 130 30
4 121 419 303 0 0 +17 419 0 360 268 310 107 137 303 0 304 -15 360 332 0 420 352
 0 17 268 0 360 266 419 49 112 300 0 0 +17 310 0 360 419 420 121 114 281 0 137 +
17 420 0 360 310 266 108 106 298 0 0 -17 114 0 35 421 123 108 310 281 0 313 -17
 421 0 35 120 114 115 313 311 0 422 -17 123 0 35 114 32 121 130 20 0 310 +17 313
 0 353 106 422 108 421 311 0 420 +15 353 336 0 422 345 0 17 106 0 353 297 313 10
4 420 298 0 265 +17 422 0 353 313 297 115 48 301 0 0 -17 297 0 353 422 106 46 26
5 290 0 0 +17 48 0 346 279 117 46 422 301 0 277 +15 346 340 0 117 338 0 17 279 0
 346 286 48 41 277 288 0 0 +17 117 0 346 48 286 115 120 314 0 421 +17 277 0 152
 265 274 46 279 288 0 297 -17 265 0 152 51 277 104 297 290 0 266 -17 266 0 360 4
20 268 104 51 267 0 0 +16 267 275 0 ?266 305 290 216 0 0 1 133 216 392 0 267 213
 423 0 +423 -.004 .003 -.004 -.004 .003 -.0025 260208521396521e-32 .0015 30 423
 393 0 1 216 424 425 +-.004 .003 -.004 0 0 1 133 424 394 0 300 423 426 0 +426 -.
004 .014 -.004 -.004 .003 -.004 0 .011 141 425 216 425 425 423 16 300 278 0 ?268
 252 298 424 0 0 1 30 426 395 0 1 424 427 428 +-.004 .014 -.004 0 -1 0 133 427 3
98 0 252 426 429 0 +429 .004 .014 -.004 .004 .003 -.004 0 .011 141 428 424 428 4
28 426 16 252 274 0 ?270 249 300 427 0 0 1 30 429 399 0 1 427 282 430 +.004 .014
 -.004 0 -1 0 133 282 400 0 275 429 22 0 +292 .004 .003 -.004 .004 .003 -.0025 8
67361737988404e-33 .0015 141 430 427 430 430 429 30 22 433 0 1 282 21 431 +0 .01
4 -.00325 -1 0 0 133 21 646 0 10 22 7 0 +22 .004 .014 -.00325 .00075170024999785
5 .014 -.00325 -.004 -.000751700249997855 141 431 7 432 432 22 141 432 21 431 43
1 22 17 286 0 346 117 279 118 45 287 0 0 -17 120 0 35 36 421 118 117 314 0 285 -
17 36 0 35 33 120 124 285 316 0 37 +17 285 0 283 45 284 118 36 316 0 286 -16 20
 648 0 ?123 10 187 7 0 0 1 17 112 0 172 271 262 107 268 300 0 419 -83 3 363 .792
156862745098 .819607843137255 .933333333333333 83 3 356 .792156862745098 .819607
843137255 .933333333333333 83 3 349 .792156862745098 .819607843137255 .933333333
333333 81 1 341 756 332 134 0 148 335 143 433 83 3 342 .792156862745098 .8196078
43137255 .933333333333333 81 1 148 805 142 134 341 0 144 151 434 81 1 143 757 33
2 139 0 140 341 333 435 83 3 433 .792156862745098 .819607843137255 .933333333333
333 81 1 333 758 332 128 0 144 143 327 436 83 3 435 .792156862745098 .8196078431
37255 .933333333333333 81 1 144 804 142 128 333 0 140 148 437 83 3 436 .79215686
2745098 .819607843137255 .933333333333333 82 1 437 -1376124807 82 1 434 -1599930
247 83 3 334 .792156862745098 .819607843137255 .933333333333333 79 14 331 SWEntU
nchanged141 294 282 294 294 292 17 82 0 176 181 180 62 80 261 0 260 -82 1 179 77
5487592 82 1 156 -1583087506 82 1 145 -1239547783 19 17 95 0 1 0 9 5 S0 74 4 CI1
6 index_map_offset0 0 1 dCCZ20 15 8 0 0 388 438 439 440 441 13 327 2 0 0 0 0 0 0
 0 0 0 0 0 0 81 2 438 705 442 1 0 439 0 0 0 443 81 2 439 709 444 1 438 440 0 0 0
 445 81 1 440 714 446 1 439 441 0 0 447 81 2 441 735 448 1 440 13 0 0 0 449 81 2
 13 738 450 1 441 2 0 0 0 0 80 2 450 451 452 9000 0 0 0 0 3 5 0 0 0 FFTFFFFFFFFF
FF9 1 79 16 452 BODY_RECIPE_200180 2 448 453 454 9000 0 0 0 0 3 5 0 0 0 FFTFFFFF
FFFFFF9 1 82 1 449 1 79 24 454 BODY_IN_LIGHTWEIGHT_PERM80 1 446 455 456 9000 1 1
 1 1 1 1 1 1 0 FFTFFFFFFFFFFF1 82 1 447 4206026 79 10 456 BODY_MATCH80 2 444 457
 458 9000 0 0 0 0 3 5 0 0 0 FFTFFFFFFFFFFF9 1 82 1 445 75 79 30 458 LAST_BODY_MO
DIFYING_FEATURE_ID80 2 442 459 460 9000 0 0 0 0 3 5 0 0 0 FFTFFFFFFFFFFT9 1 82 1
 443 114 79 19 460 ENT_TIME_STAMP_200180 2 12 461 462 9000 0 0 0 0 3 5 0 0 0 FFT
FFFFFFFFFFF9 1 82 1 14 104 79 12 462 ATOM_ID_20011 0 
