**ABCDEFGHIJKLMNOPQRSTUVWXYZabcdefghijklmnopqrstuvwxyz**************************
**PARASOLID !"#$%&'()*+,-./:;<=>?@[\]^_`{|}~0123456789**************************
**PART1;
MC=AMD64;
MC_MODEL=Intel64 Family 6 Model 142 Stepping 10, GenuineIntel;
MC_ID=unknown;
OS=Windows_NT;
OS_RELEASE=unknown;
FRU=Parasolid Version 31.1, build 290,  3- 9-2020;
APPL=SOLIDWORKS 2020-2020128;
SITE=;
USER=unknown;
FORMAT=text;
GUISE=transmit;
KEY=P5_Volante;
FILE=P5_Volante.x_t;
DATE=Wed Apr 28 17:49:07 2021;
**PART2;
SCH=SCH_3101290_31100;
USFLD_SIZE=0;
**PART3;
**END_OF_HEADER*****************************************************************
T51 : TRANSMIT FILE created by modeller version 310129023 SCH_3101290_31100_1300
6222 0 12 34 CCCCCCI4 mesh1006 0 I8 polyline1008 0 CCCCCCCDI5 owner1040 0 CCCCCC
I13 boundary_mesh1006 0 I17 boundary_polyline1008 0 CCCA16 index_map_offset0 0 1
 dA9 index_map82 0 A17 node_id_index_map82 0 A20 schema_embedding_map82 0 A5 chi
ld12 0 A14 lowest_node_id0 0 1 dA16 mesh_offset_data206 0 Z1 1400 2 3 0 0 0 0 0
 0 1e3 1e-8 0 4 0 1 0 1 1 5 6 7 8 0 0 9 10 11 0 0 0 0 0 0 0 81 255 2 2 1377 12 1
 13 0 0 0 0 14 70 11 CI9 list_type0 0 1 uI10 notransmit0 0 1 lCCCDCCDI12 finger_
index0 0 1 dI12 finger_block1012 0 CZ3 0 4 T1 0 0 8 20 1 15 15 13 255 5 29 0 1 0
 16 0 0 17 0 51 255 6 28 0 18 19 0 0 -0 0 .0035 0 0 -1 .0019 -1 0 0 30 255 7 882
 0 10 20 0 0 --.00436299775837602 -.002230302795677265 .0015 0 0 -1 29 255 8 904
 0 11 21 0 -.00151415575672838 -.001147750994060254 .0035 19 8 CCCCCCCA5 owner12
 0 Z9 7 0 1 17 0 22 V0 16 255 10 880 0 ?23 0 24 7 0 0 1 18 255 11 902 0 25 0 26
 8 ?1 17 255 25 0 27 28 28 11 29 30 0 31 -18 26 899 0 28 11 32 21 ?1 17 28 0 27
 25 25 26 31 33 0 29 -18 32 896 0 34 26 35 36 ?1 29 21 901 0 26 36 8 -.001751059
396439225 -.00073742185358307 .0035 29 36 898 0 32 37 21 -.001756142237819875 -.
000725234059145742 .0035 29 37 895 0 35 38 36 -.001506142237819875 -.00115824676
1037964 0 18 35 893 0 39 32 40 37 ?1 29 38 892 0 40 41 37 -.001756142237819875 -
.000725234059145742 0 18 40 890 0 42 35 43 38 ?1 29 41 874 0 43 44 38 -.00411299
7758376025 -.002663315497569485 .0015 18 43 872 0 45 40 46 41 ?1 29 44 558 0 46
 47 41 .001751059396439215 -.000737421853583098 .0035 18 46 556 0 48 43 49 44 ?1
 29 47 555 0 49 50 44 .00151415575672837 -.001147750994060272 .0035 18 49 553 0
 51 46 52 47 ?1 29 50 552 0 52 53 47 .00150614223781986 -.001158246761037984 .00
35 18 52 550 0 54 49 55 50 ?1 29 53 549 0 55 56 50 .001756142237819865 -.0007252
34059145767 0 18 55 547 0 57 52 58 53 ?1 29 56 546 0 58 59 53 .00150614223781986
 -.001158246761037984 0 18 58 544 0 60 55 61 56 ?1 29 59 503 0 61 62 56 .0043629
9775837599 -.002230302795677325 .0015 18 61 501 0 63 58 64 59 ?1 29 62 356 0 64
 65 59 25e-5 .00489361829324683 .0015 18 64 354 0 66 61 67 62 ?1 29 65 353 0 67
 68 62 25e-5 .00489361829324683 0 18 67 349 0 69 64 70 65 ?1 29 68 344 0 70 71 6
5 -25e-5 .00489361829324683 .0015 18 70 342 0 72 67 73 68 ?1 29 71 341 0 73 74 6
8 -25e-5 .00489361829324683 0 18 73 337 0 75 70 76 71 ?1 29 74 107 0 76 77 71 -2
5e-5 .001883480820183735 0 18 76 105 0 78 73 79 74 ?1 29 77 104 0 79 80 74 25e-5
 .001883480820183735 0 18 79 103 0 81 76 82 77 ?1 29 80 99 0 82 83 77 -.00023690
3639710849 .001885172847643355 .0035 18 82 97 0 84 79 85 80 ?1 29 83 96 0 85 86
 80 .000236903639710849 .001885172847643355 .0035 18 85 94 0 87 82 88 83 ?1 29 8
6 93 0 88 89 83 25e-5 .001883480820183735 .0035 18 88 92 0 90 85 91 86 ?1 29 89
 301 0 91 92 86 -25e-5 .001883480820183735 .0035 18 91 218 0 93 88 94 89 ?1 29 9
2 305 0 95 96 89 -25e-5 .001885172847643355 .0035 18 95 210 0 97 98 99 92 ?1 29
 96 306 0 99 100 92 -25e-5 .0049 .0015 18 99 216 0 101 95 102 96 ?1 29 100 310 0
 94 103 96 25e-5 .001885172847643355 .0035 18 94 214 0 104 91 98 100 ?1 29 103 3
11 0 98 105 100 25e-5 .0049 .0015 18 98 213 0 106 94 95 103 ?1 29 105 823 0 102
 107 103 .00411299775837599 -.002663315497569545 .0015 18 102 710 0 108 99 109 1
05 ?1 29 107 825 0 109 110 105 .00411299775837599 -.002663315497569545 0 18 109
 703 0 111 102 112 107 ?1 29 110 828 0 112 113 107 .001756142237819865 -.0007252
34059145767 .0035 18 112 715 0 114 109 115 110 ?1 29 113 829 0 115 116 110 .0043
6299775837599 -.002230302795677325 0 18 115 705 0 117 112 118 113 ?1 29 116 833
 0 119 120 113 .001757607576583795 -.000726080072875576 .0035 18 119 700 0 121 1
22 123 116 ?1 29 120 834 0 123 124 116 .00436852447854374 -.00223349364905391 .0
015 18 123 707 0 125 119 126 120 ?1 29 124 838 0 118 127 120 .00150760757658379
 -.001159092774767794 .0035 18 118 709 0 128 115 122 124 ?1 29 127 839 0 122 129
 124 .00411852447854374 -.00266650635094613 .0015 18 122 708 0 130 118 119 127 ?
1 29 129 1190 0 126 131 127 -.00436299775837602 -.002230302795677265 .0015 18 12
6 1077 0 23 123 132 129 ?1 29 131 1192 0 132 133 129 -.00436299775837602 -.00223
0302795677265 0 18 132 1070 0 134 126 135 131 ?1 29 133 1195 0 135 136 131 -.001
506142237819875 -.001158246761037964 .0035 18 135 1082 0 137 132 138 133 ?1 29 1
36 1196 0 138 139 133 -.004112997758376025 -.002663315497569485 0 18 138 1072 0
 140 135 141 136 ?1 29 139 1200 0 142 143 136 -.001507607576583805 -.00115909277
4767772 .0035 18 142 1067 0 144 145 146 139 ?1 29 143 1201 0 146 147 139 -.00411
8524478543775 -.00266650635094607 .0015 18 146 1074 0 148 142 0 143 ?1 29 147 12
05 0 141 149 143 -.001757607576583805 -.000726080072875551 .0035 18 141 1076 0 1
50 138 145 147 ?1 29 149 1206 0 145 0 147 -.00436852447854377 -.0022334936490538
5 .0015 18 145 1075 0 151 141 142 149 ?1 17 151 0 152 150 23 145 153 154 0 155 +
15 255 152 1118 0 156 157 0 17 150 0 152 158 151 141 155 159 0 160 +17 23 0 152
 151 134 126 161 10 0 153 +17 153 0 162 163 164 126 151 154 0 165 -16 154 1027 0
 ?151 166 167 168 0 0 1 17 155 0 169 148 160 145 150 159 0 164 -15 169 1115 0 17
0 171 0 17 148 0 169 172 155 146 164 173 0 174 +17 160 0 169 155 29 141 175 176
 0 177 -16 159 1028 0 ?150 178 179 180 0 0 1 17 164 0 162 153 181 145 148 173 0
 0 -15 162 992 0 153 16 182 17 181 0 162 164 183 146 45 184 0 0 +16 173 1018 0 ?
148 184 176 185 0 0 1 16 184 1042 0 ?181 167 173 186 0 0 1 16 176 1001 0 ?175 17
3 187 188 187 187 1 30 185 1172 0 173 188 186 0 +-.00436852447854377 -.002233493
64905385 .0015 .499999999999992 -.866025403784443 0 30 188 1173 0 176 189 185 0
 +-.001757607576583805 -.000726080072875551 .0035 .499999999999992 -.86602540378
4443 0 30 186 1170 0 184 185 190 0 +.000124999999999998 -.000216506350946111 .00
15 -.866025403784443 -.499999999999992 0 30 190 1169 0 167 186 168 0 --.00150614
2237819875 -.001158246761037964 .0035 0 0 -1 16 167 1040 0 ?191 154 184 190 0 0
 1 30 168 1168 0 154 190 192 0 +-.000124999999999998 .000216506350946111 .0015 -
.866025403784443 -.499999999999992 0 30 192 1167 0 166 168 193 0 --.001756142237
819875 -.000725234059145742 .0035 0 0 -1 16 166 1059 0 ?34 30 154 192 0 0 1 32 2
55 193 1166 0 30 192 194 0 +0 0 .00475060094816364 .478745121602799 .27640362483
05905 -.833309153149077 -.721666895833202 -.416654576574532 -.552807249661189 .0
0228006615890381 .0019 16 30 1017 0 ?29 195 166 193 0 0 1 30 194 818 0 196 193 1
97 0 +.00411852447854374 -.00266650635094613 0 .866025403784437 -.5 0 16 196 656
 0 ?198 199 200 194 0 0 1 30 197 816 0 199 194 201 0 +.00411852447854374 -.00266
650635094613 .0015 -.721666895833196 .416654576574542 .552807249661189 16 199 66
1 0 ?128 202 196 197 0 0 1 30 201 815 0 202 197 203 0 +.00150760757658379 -.0011
59092774767794 .0035 -.866025403784437 .5 0 16 202 664 0 ?204 205 199 201 0 0 1
 30 203 813 0 195 201 206 0 +.00436852447854374 -.00223349364905391 0 .866025403
784437 -.5 0 16 195 637 0 ?207 208 30 203 0 0 1 30 206 811 0 208 203 209 0 +.004
36852447854374 -.00223349364905391 .0015 -.721666895833196 .416654576574542 .552
807249661189 16 208 653 0 ?210 200 195 206 0 0 1 30 209 810 0 200 206 211 0 +.00
1757607576583795 -.000726080072875576 .0035 -.866025403784437 .5 0 16 200 629 0
 ?212 196 208 209 0 0 1 30 211 806 0 213 209 214 0 +.00150760757658379 -.0011590
92774767794 .0035 .5 .866025403784436 0 16 213 634 0 ?215 216 205 211 205 205 1
 30 214 805 0 216 211 217 0 +.00411852447854374 -.00266650635094613 .0015 .5 .86
6025403784436 0 16 216 651 0 ?125 218 213 214 0 0 1 30 217 803 0 218 214 219 0 +
125e-6 .000216506350946109 .0015 .866025403784436 -.5 0 16 218 675 0 ?220 221 21
6 217 0 0 1 30 219 802 0 221 217 222 0 -.001756142237819865 -.000725234059145767
 .0035 0 0 -1 16 221 673 0 ?223 224 218 219 0 0 1 30 222 801 0 224 219 225 0 +-1
25e-6 -.000216506350946109 .0015 .866025403784436 -.5 0 16 224 660 0 ?130 226 22
1 222 0 0 1 30 225 800 0 226 222 227 0 -.00150614223781986 -.001158246761037984
 .0035 0 0 -1 16 226 692 0 ?228 229 224 225 0 0 1 32 227 799 0 229 225 230 0 +0
 0 .00475060094816364 -.478745121602795 .276403624830597 -.833309153149077 .7216
66895833196 -.416654576574542 -.552807249661189 .002280066158903805 .0019 16 229
 650 0 ?231 232 226 227 0 0 1 31 255 230 452 0 233 227 234 0 +0 0 .0015 0 0 1 1
 0 0 .0049 16 233 383 0 ?165 235 236 230 236 237 1 31 234 451 0 238 230 239 0 +0
 0 0 0 0 1 1 0 0 .0049 16 238 381 0 ?240 237 241 234 241 232 1 31 239 450 0 242
 234 243 0 +0 0 .0015 0 0 1 1 0 0 .0059 16 242 374 0 ?244 245 235 239 0 0 1 31 2
43 449 0 235 239 246 0 +0 0 0 0 0 1 1 0 0 .0059 16 235 388 0 ?247 242 233 243 0
 0 1 30 246 448 0 245 243 248 0 +-25e-5 .00489361829324683 .0015 0 0 -1 16 245 3
90 0 ?75 249 242 246 0 0 1 30 248 447 0 249 246 250 0 +25e-5 .00489361829324683
 .0015 0 0 -1 16 249 384 0 ?251 252 245 248 0 0 1 30 250 442 0 252 248 253 0 +-2
5e-5 0 .0015 0 -1 0 16 252 386 0 ?72 254 249 250 0 0 1 30 253 441 0 254 250 255
 0 +25e-5 0 .0015 0 -1 0 16 254 375 0 ?256 257 252 253 0 0 1 30 255 296 0 258 25
3 259 0 +25e-5 .0049 0 0 1 0 16 258 168 0 ?260 261 262 255 0 0 1 30 259 294 0 26
1 255 263 0 +25e-5 .0049 .0015 0 -.833309153149077 .552807249661189 16 261 174 0
 ?104 264 258 259 0 0 1 30 263 293 0 264 259 265 0 +25e-5 .001885172847643355 .0
035 0 -1 0 16 264 177 0 ?266 267 261 263 0 0 1 30 265 291 0 257 263 268 0 +-25e-
5 .0049 0 0 1 0 16 257 153 0 ?269 270 254 265 0 0 1 30 268 289 0 270 265 271 0 +
-25e-5 .0049 .0015 0 -.833309153149077 .552807249661189 16 270 158 0 ?272 262 25
7 268 0 0 1 30 271 288 0 262 268 273 0 +-25e-5 .001885172847643355 .0035 0 -1 0
 16 262 161 0 ?274 258 270 271 0 0 1 30 273 284 0 275 271 276 0 +25e-5 .00188517
2847643355 .0035 -1 0 0 16 275 166 0 ?277 278 267 273 267 267 1 30 276 283 0 278
 273 279 0 +25e-5 .0049 .0015 -1 0 0 16 278 157 0 ?101 280 275 276 0 0 1 31 279
 72 0 281 276 282 0 +0 0 .0035 0 0 1 1 0 0 .0012 16 281 52 0 ?283 284 280 279 0
 0 1 31 282 71 0 280 279 285 0 +0 0 0 0 0 1 1 0 0 .0012 16 280 49 0 ?286 281 278
 282 0 0 1 31 285 5 0 287 282 288 0 +0 0 .0035 0 0 1 1 0 0 .0019 16 287 101 0 ?2
89 290 33 285 291 290 1 31 288 23 0 292 285 293 0 +0 0 0 0 0 1 1 0 0 .0019 16 29
2 106 0 ?42 294 295 288 295 284 1 30 293 109 0 296 288 297 0 --25e-5 .0018834808
20183735 .0035 0 0 -1 16 296 108 0 ?298 299 290 293 0 0 1 30 297 112 0 299 293 3
00 0 -25e-5 .001883480820183735 .0035 0 0 -1 16 299 110 0 ?301 302 296 297 0 0 1
 32 300 117 0 302 297 303 0 +0 0 .00475060094816364 0 -.552807249661189 -.833309
153149077 0 .833309153149077 -.552807249661189 .002280066158903805 .0019 16 302
 115 0 ?304 305 299 300 0 0 1 30 303 515 0 305 300 306 0 -.00436299775837599 -.0
02230302795677325 .0015 0 0 -1 16 305 513 0 ?307 308 302 303 0 0 1 30 306 520 0
 308 303 20 0 -.00411299775837599 -.002663315497569545 .0015 0 0 -1 16 308 518 0
 ?309 24 305 306 0 0 1 30 20 877 0 24 306 7 0 --.004112997758376025 -.0026633154
97569485 .0015 0 0 -1 16 24 875 0 ?310 10 308 20 0 0 1 17 310 0 311 108 312 43 1
40 24 0 183 +15 311 519 0 312 313 0 17 108 0 311 314 310 102 183 236 0 309 +17 3
12 0 311 310 314 138 111 241 0 0 -17 140 0 315 316 45 138 310 24 0 317 -17 183 0
 162 181 318 43 108 236 0 0 -17 318 0 162 183 319 102 130 224 0 0 -16 236 873 0
 ?108 233 237 230 237 233 1 16 237 502 0 ?66 236 238 230 233 236 1 17 66 0 320 2
51 307 64 321 237 0 322 +15 320 421 0 323 324 0 17 251 0 320 323 66 67 322 249 0
 0 +17 307 0 320 66 323 61 117 305 0 321 +17 321 0 162 220 256 61 66 237 0 0 -17
 322 0 325 106 260 64 251 249 0 256 -15 325 358 0 106 326 0 17 106 0 325 104 322
 98 256 254 0 327 -17 260 0 325 322 328 67 329 258 0 251 +17 256 0 162 321 330 6
4 106 254 0 0 +17 330 0 162 256 331 98 101 278 0 0 -17 331 0 162 330 163 99 72 2
52 0 0 -17 101 0 332 272 327 99 330 278 0 333 +15 332 230 0 334 335 0 17 272 0 3
32 334 101 95 333 270 0 336 +17 327 0 332 101 337 98 104 261 0 330 -17 333 0 338
 72 336 99 272 270 0 331 -15 338 244 0 333 339 0 17 72 0 338 75 333 70 331 252 0
 340 +17 336 0 338 333 298 95 274 262 0 0 -17 298 0 338 336 341 91 78 296 0 274
 +17 274 0 342 289 97 91 336 262 0 0 +15 342 1219 0 289 343 344 17 289 0 342 177
 274 32 93 287 0 158 +17 97 0 342 274 345 95 334 267 0 272 +17 345 0 342 97 277
 82 87 290 0 334 +17 334 0 332 304 272 82 97 267 0 0 -16 267 165 0 ?97 275 264 2
73 275 275 1 17 304 0 332 337 334 85 84 302 0 277 +17 337 0 332 327 304 94 277 2
75 0 346 -17 84 0 347 87 87 82 304 302 0 345 -17 277 0 342 345 346 85 337 275 0
 0 +17 346 0 342 277 90 94 266 264 0 0 -17 90 0 342 346 212 88 114 294 0 301 +17
 266 0 325 328 104 88 346 264 0 0 +17 328 0 325 260 266 79 301 299 0 329 -17 104
 0 325 266 106 94 327 261 0 337 +17 301 0 348 114 81 88 328 299 0 266 +17 329 0
 349 350 69 79 260 258 0 0 -15 349 848 0 350 351 0 17 350 0 349 207 329 55 81 28
4 0 352 -17 69 0 349 329 207 67 323 232 0 260 +17 207 0 349 69 350 115 352 195 0
 323 +17 323 0 320 307 251 115 69 232 0 0 -16 232 511 0 ?69 241 229 234 238 241
 1 16 241 864 0 ?111 238 232 234 232 238 1 17 111 0 353 354 317 109 312 241 0 19
8 +15 353 1213 0 355 351 356 17 354 0 353 355 111 58 198 196 0 0 -17 317 0 353 1
11 355 138 316 357 0 312 +17 198 0 358 309 359 109 354 196 0 314 +15 358 751 0 3
59 360 0 17 309 0 358 130 198 102 314 308 0 318 +17 359 0 358 198 204 58 228 226
 0 354 -17 314 0 311 312 108 109 309 308 0 0 -17 204 0 358 359 128 52 361 202 0
 0 +17 228 0 362 137 60 52 359 226 0 204 +15 362 909 0 39 363 0 17 137 0 362 39
 228 135 54 291 0 191 -17 60 0 362 228 39 58 355 295 0 359 +17 39 0 362 60 137 3
5 191 167 0 355 -17 355 0 353 317 354 35 60 295 0 316 -16 295 894 0 ?60 292 284
 288 284 292 1 16 284 548 0 ?81 295 281 288 292 295 1 17 81 0 348 301 57 79 350
 284 0 328 +15 348 563 0 57 364 0 17 57 0 348 81 114 55 223 221 0 350 -17 114 0
 348 57 301 112 90 294 0 223 -17 223 0 365 366 352 112 57 221 0 212 +15 365 757
 0 352 367 0 17 366 0 365 368 223 119 212 200 0 0 -17 352 0 365 223 117 55 207 1
95 0 0 -17 212 0 342 90 121 112 366 200 0 0 +17 121 0 342 212 369 119 370 205 0
 210 +17 369 0 342 121 215 46 51 371 0 370 +17 370 0 372 231 210 46 121 205 0 0
 -16 205 633 0 ?121 213 202 211 213 213 1 17 210 0 372 370 125 119 368 208 0 366
 +15 372 748 0 370 373 0 17 125 0 372 210 374 123 319 216 0 368 +17 368 0 365 63
 366 123 210 208 0 220 -17 63 0 365 117 368 61 220 218 0 307 -17 220 0 162 319 3
21 123 63 218 0 0 +17 319 0 162 318 220 122 125 216 0 0 -17 117 0 365 352 63 115
 307 305 0 207 -17 374 0 372 125 375 122 128 199 0 319 -17 375 0 372 374 231 118
 215 213 0 361 -17 128 0 358 204 130 118 374 199 0 375 +17 130 0 358 128 309 122
 318 224 0 374 +17 231 0 372 375 370 49 48 229 0 215 +17 215 0 342 369 361 49 37
5 213 0 0 +17 361 0 342 215 54 118 204 202 0 0 -17 54 0 342 361 376 52 137 291 0
 228 +17 376 0 342 54 144 135 377 378 0 0 +16 291 906 0 ?54 33 371 285 33 287 1
 16 33 900 0 ?31 287 291 285 294 291 1 16 371 554 0 ?369 291 294 285 290 294 1 1
6 294 560 0 ?90 371 292 285 371 33 1 16 290 95 0 ?345 296 287 285 287 371 1 17 3
1 0 342 144 175 11 28 33 0 170 +17 144 0 342 376 31 142 170 187 0 172 +17 175 0
 342 31 177 26 160 176 0 0 +17 170 0 169 29 172 11 144 187 0 0 -17 29 0 169 160
 170 26 25 30 0 175 +17 172 0 169 170 148 142 174 379 0 377 +16 187 1000 0 ?144
 176 178 188 176 176 1 16 178 1031 0 ?158 187 159 380 0 0 1 17 158 0 152 156 150
 32 177 178 0 0 +30 380 1182 0 178 180 381 0 +-.001757607576583805 -.00072608007
2875551 .0035 .866025403784443 .499999999999992 0 30 180 1183 0 159 382 380 0 +-
.00436852447854377 -.00223349364905385 .0015 .721666895833202 .4166545765745315
 .552807249661189 30 381 1180 0 357 380 383 0 +-.004118524478543775 -.0026665063
5094607 0 -.866025403784443 -.499999999999992 0 16 357 1004 0 ?317 379 0 381 0 0
 1 30 383 1178 0 379 381 189 0 +-.004118524478543775 -.00266650635094607 .0015 .
721666895833202 .4166545765745315 .552807249661189 16 379 1020 0 ?172 378 357 38
3 0 0 1 30 189 1177 0 378 383 188 0 +-.001507607576583805 -.001159092774767772 .
0035 .866025403784443 .499999999999992 0 16 378 996 0 ?376 179 379 189 0 0 1 16
 179 1023 0 ?134 159 378 382 0 0 1 17 134 0 152 23 156 132 384 179 0 161 +30 382
 1185 0 179 0 180 0 +-.00436852447854377 -.00223349364905385 0 -.866025403784443
 -.499999999999992 0 17 156 0 152 134 158 40 34 166 0 384 -17 384 0 385 386 240
 40 134 179 0 0 -17 161 0 387 388 165 132 23 10 0 240 -15 387 881 0 161 389 0 17
 388 0 387 340 161 73 240 238 0 0 -17 165 0 387 161 340 126 163 233 0 0 +17 240
 0 385 384 269 132 388 238 0 0 +15 385 1215 0 384 351 353 17 269 0 385 240 386 7
3 341 257 0 388 +17 386 0 385 269 384 76 42 292 0 341 -17 341 0 338 298 75 76 26
9 257 0 0 -17 75 0 338 341 72 73 340 245 0 269 +17 340 0 387 165 388 70 75 245 0
 163 -17 163 0 162 331 153 70 165 233 0 0 -17 42 0 390 34 78 40 386 292 0 156 +1
5 390 26 0 42 18 0 17 34 0 390 93 42 32 156 166 0 289 +17 78 0 390 42 93 76 298
 296 0 386 -17 93 0 390 78 34 91 289 287 0 298 -14 255 18 25 391 ?392 351 390 5
 6 -393 394 392 351 22 81 1 391 1378 395 18 396 0 0 397 398 14 392 55 397 ?335 1
8 399 5 400 +0 0 335 18 22 14 351 40 401 ?18 343 385 5 19 -0 0 18 343 22 14 393
 918 402 ?363 16 27 5 6 -363 18 363 16 22 14 394 118 403 ?343 324 347 5 6 -18 36
4 343 324 22 13 22 8 0 0 0 0 0 0 9 16 14 16 985 404 ?393 0 162 5 405 +0 0 393 0
 22 81 1 404 1383 395 16 406 0 403 407 408 50 255 405 439 0 16 409 410 0 +0 0 .0
015 0 0 1 1 0 0 51 409 440 0 389 411 405 0 -0 0 .0015 0 0 -1 .0049 -1 0 0 51 410
 437 0 412 405 413 0 -0 0 .0015 0 0 -1 .0059 -1 0 0 14 412 428 407 ?373 389 414
 5 410 -0 0 373 389 22 50 413 279 0 326 410 415 0 +25e-5 0 0 1 0 0 0 0 -1 14 326
 239 416 ?339 335 325 5 413 +0 0 339 335 22 50 415 278 0 339 413 417 0 +-25e-5 0
 0 1 0 0 0 0 -1 14 339 242 418 ?389 326 338 5 415 -0 0 389 326 22 50 417 275 0 3
35 415 400 0 +25e-5 .0049 .0015 0 -.552807249661189 -.833309153149077 0 .8333091
53149077 -.552807249661189 14 335 227 419 ?326 392 332 5 417 -0 0 326 392 22 51
 400 68 0 392 417 420 0 -0 0 .0035 0 0 -1 .0012 -1 0 0 50 420 2 0 343 400 19 0 +
0 0 .0035 0 0 1 1 0 0 14 343 46 421 ?351 394 342 5 420 +0 0 351 394 22 50 19 22
 0 351 420 6 0 +0 0 0 0 0 1 1 0 0 81 1 421 1388 395 343 422 0 419 423 424 80 255
 1 395 425 426 9000 1 1 1 1 1 1 1 1 0 FFFFTFTFFFFFFF1 81 1 422 1310 427 343 0 42
1 428 429 430 81 1 419 1387 395 335 431 0 418 421 432 81 1 423 1389 395 389 433
 0 421 434 435 82 255 1 424 -828768118 14 389 419 423 ?412 339 387 5 409 +313 32
4 412 339 22 81 1 433 1317 427 389 0 423 436 437 438 81 1 434 1390 395 373 439 0
 423 440 441 82 1 435 -743636854 14 373 745 434 ?360 412 372 5 411 -0 0 360 412
 22 81 1 439 1319 427 373 0 434 437 442 443 81 1 440 1391 395 360 442 0 434 444
 445 82 1 441 -371195766 14 360 749 440 ?367 373 358 5 446 +0 0 367 373 22 81 1
 442 1320 427 360 0 440 439 447 448 81 1 444 1392 395 367 447 0 440 449 450 82 1
 445 -372637558 14 367 755 444 ?171 360 365 5 451 -0 0 171 360 22 81 1 447 1321
 427 367 0 444 442 452 453 81 1 449 1393 395 171 452 0 444 454 455 82 1 450 -375
258998 14 171 1112 449 ?157 367 169 5 456 -0 0 157 367 22 81 1 452 1322 427 171
 0 449 447 457 458 81 1 454 1394 395 157 457 0 449 459 460 82 1 455 -346816374 1
4 157 1116 454 ?461 171 152 5 462 +0 0 461 171 22 81 1 457 1323 427 157 0 454 45
2 463 464 81 1 459 1395 395 461 463 0 454 465 466 82 1 460 -348258166 14 461 112
2 459 ?0 157 315 5 467 -0 0 0 157 22 81 1 463 1324 427 461 0 459 457 0 468 81 1
 465 1396 395 363 469 0 459 470 471 82 1 466 -350879606 14 363 910 465 ?313 393
 362 5 6 -472 393 313 393 22 81 1 469 1304 427 363 0 465 473 474 475 81 1 470 13
97 395 313 474 0 465 476 477 82 1 471 -342097782 14 313 878 470 ?472 363 311 5 4
09 +324 389 472 363 22 81 1 474 1305 427 313 0 470 469 478 479 81 1 476 1398 395
 472 478 0 470 480 481 82 1 477 -354418550 14 472 572 476 ?364 313 482 5 6 -364
 363 364 313 22 81 1 478 1306 427 472 0 476 474 483 484 81 1 480 1399 395 364 48
3 0 476 485 486 82 1 481 -364117878 14 364 564 480 ?324 472 348 5 6 -394 472 324
 472 22 81 1 483 1307 427 364 0 480 478 487 488 81 1 485 1400 395 324 487 0 480
 0 489 82 1 486 -364904310 14 324 516 485 ?394 364 320 5 409 +389 313 394 364 22
 81 1 487 1308 427 324 0 485 483 428 490 82 1 489 -378797942 80 1 427 0 491 8001
 0 0 0 0 3 5 0 0 0 FFFFTFTFFFFFFF2 81 1 428 1309 427 394 0 403 487 422 492 83 25
5 3 490 .792156862745098 .819607843137255 .933333333333333 81 1 403 1382 395 394
 428 0 402 404 493 83 3 492 .792156862745098 .819607843137255 .933333333333333 8
1 1 402 1381 395 393 473 0 401 403 494 82 1 493 -760414077 81 1 473 1303 427 393
 0 402 406 469 495 81 1 401 1380 395 351 429 0 397 402 496 82 1 494 -341311350 8
1 1 429 1311 427 351 0 401 422 396 497 81 1 397 1379 395 392 498 0 391 401 499 8
2 1 496 -829292406 81 1 498 1313 427 392 0 397 396 431 500 82 1 499 -835125120 8
1 1 396 1312 427 18 0 391 429 498 501 81 1 431 1314 427 335 0 419 498 502 503 83
 3 500 .792156862745098 .819607843137255 .933333333333333 81 1 502 1315 427 326
 0 416 431 436 504 83 3 503 .792156862745098 .819607843137255 .933333333333333 8
1 1 416 1385 395 326 502 0 407 418 505 81 1 436 1316 427 339 0 418 502 433 506 8
3 3 504 .792156862745098 .819607843137255 .933333333333333 81 1 418 1386 395 339
 436 0 416 419 507 83 3 506 .792156862745098 .819607843137255 .933333333333333 8
2 1 507 -759103357 81 1 407 1384 395 412 437 0 404 416 508 82 1 505 -757792637 8
1 1 437 1318 427 412 0 407 433 439 509 82 1 508 -749141885 83 3 509 .79215686274
5098 .819607843137255 .933333333333333 83 3 501 .792156862745098 .81960784313725
5 .933333333333333 83 3 497 .792156862745098 .819607843137255 .933333333333333 8
1 1 406 1302 427 16 0 404 0 473 510 83 3 495 .792156862745098 .819607843137255 .
933333333333333 83 3 510 .792156862745098 .819607843137255 .933333333333333 79 2
55 15 491 SDL/TYSA_COLOUR83 3 488 .792156862745098 .819607843137255 .93333333333
3333 83 3 484 .792156862745098 .819607843137255 .933333333333333 15 482 571 0 48
 472 0 17 48 0 482 51 51 46 231 229 0 369 -17 51 0 482 48 48 49 369 371 0 231 -8
3 3 479 .792156862745098 .819607843137255 .933333333333333 83 3 475 .79215686274
5098 .819607843137255 .933333333333333 83 3 468 .792156862745098 .81960784313725
5 .933333333333333 15 315 1124 0 316 461 0 50 467 1161 0 461 462 456 0 +.0001249
99999999998 -.000216506350946111 0 -.499999999999992 .866025403784443 0 0 0 -1 5
0 462 1162 0 157 0 467 0 +-.000124999999999998 .000216506350946111 0 -.499999999
999992 .866025403784443 0 0 0 -1 50 456 1158 0 171 467 446 0 +-.0043685244785437
7 -.00223349364905385 .0015 .478745121602799 .2764036248305905 -.833309153149077
 -.867089538473533 0 -.498152318342246 50 446 795 0 360 456 451 0 +-125e-6 -.000
216506350946109 0 -.5 -.866025403784437 0 0 0 -1 50 451 794 0 367 446 411 0 +125
e-6 .000216506350946109 0 -.5 -.866025403784437 0 0 0 -1 50 411 791 0 373 451 40
9 0 +.00411852447854374 -.00266650635094613 .0015 -.478745121602795 .27640362483
0597 -.833309153149077 -.867089538473535 0 .498152318342243 17 316 0 315 191 140
 35 317 357 0 0 -17 191 0 315 377 316 135 39 167 0 376 +17 377 0 315 174 191 142
 376 378 0 0 -17 174 0 315 45 377 146 172 379 0 181 -17 45 0 315 140 174 43 181
 184 0 310 -83 3 464 .792156862745098 .819607843137255 .933333333333333 83 3 458
 .792156862745098 .819607843137255 .933333333333333 83 3 453 .792156862745098 .8
19607843137255 .933333333333333 83 3 448 .792156862745098 .819607843137255 .9333
33333333333 83 3 443 .792156862745098 .819607843137255 .933333333333333 83 3 438
 .792156862745098 .819607843137255 .933333333333333 82 1 432 -755761021 83 3 430
 .792156862745098 .819607843137255 .933333333333333 79 14 426 SWEntUnchanged15 4
14 430 0 511 412 512 17 511 0 414 511 511 0 244 242 0 0 -15 512 431 0 247 412 0
 17 247 0 512 247 247 0 513 235 0 0 +17 513 0 514 513 513 0 247 235 0 0 -15 514
 415 0 513 351 349 17 244 0 182 244 244 0 511 242 0 0 +15 182 407 0 244 16 0 82
 1 408 -334233462 15 347 116 0 84 394 0 15 27 917 0 25 393 0 15 399 58 0 283 392
 515 17 283 0 399 283 283 0 516 281 0 0 +15 515 59 0 517 392 0 17 517 0 515 517
 517 0 286 280 0 0 -17 286 0 356 286 286 0 517 280 0 0 +15 356 38 0 286 351 514
 17 516 0 344 516 516 0 283 281 0 0 -15 344 43 0 516 343 0 82 1 398 -830996342 1
7 177 0 342 175 289 141 158 178 0 0 -17 87 0 347 84 84 85 345 290 0 304 -19 17 3
0 0 1 0 9 5 S0 74 4 CI16 index_map_offset0 0 1 dCCZ20 15 8 0 0 485 518 519 520 5
21 13 463 2 0 0 0 0 0 0 0 0 0 0 0 0 81 2 518 1221 522 1 0 519 0 0 0 523 81 2 519
 1223 524 1 518 520 0 0 0 525 81 1 520 1249 526 1 519 521 0 0 527 81 2 521 1274
 528 1 520 13 0 0 0 529 81 2 13 1300 530 1 521 2 0 0 0 0 80 2 530 531 532 9000 0
 0 0 0 3 5 0 0 0 FFTFFFFFFFFFFF9 1 79 16 532 BODY_RECIPE_200180 2 528 533 534 90
00 0 0 0 0 3 5 0 0 0 FFTFFFFFFFFFFF9 1 82 1 529 1 79 24 534 BODY_IN_LIGHTWEIGHT_
PERM80 1 526 535 536 9000 1 1 1 1 1 1 1 1 0 FFTFFFFFFFFFFF1 82 1 527 6868567 79
 10 536 BODY_MATCH80 2 524 537 538 9000 0 0 0 0 3 5 0 0 0 FFTFFFFFFFFFFF9 1 82 1
 525 81 79 30 538 LAST_BODY_MODIFYING_FEATURE_ID80 2 522 539 540 9000 0 0 0 0 3
 5 0 0 0 FFTFFFFFFFFFFT9 1 82 1 523 132 79 19 540 ENT_TIME_STAMP_200180 2 12 541
 542 9000 0 0 0 0 3 5 0 0 0 FFTFFFFFFFFFFF9 1 82 1 14 104 79 12 542 ATOM_ID_2001
1 0 
