**ABCDEFGHIJKLMNOPQRSTUVWXYZabcdefghijklmnopqrstuvwxyz**************************
**PARASOLID !"#$%&'()*+,-./:;<=>?@[\]^_`{|}~0123456789**************************
**PART1;
MC=AMD64;
MC_MODEL=Intel64 Family 6 Model 142 Stepping 10, GenuineIntel;
MC_ID=unknown;
OS=Windows_NT;
OS_RELEASE=unknown;
FRU=Parasolid Version 31.1, build 290,  3- 9-2020;
APPL=SOLIDWORKS 2020-2020128;
SITE=;
USER=unknown;
FORMAT=text;
GUISE=transmit;
KEY=P6_Ejes_Rueda;
FILE=P6_Ejes_Rueda.x_t;
DATE=Wed Apr 28 17:48:56 2021;
**PART2;
SCH=SCH_3101290_31100;
USFLD_SIZE=0;
**PART3;
**END_OF_HEADER*****************************************************************
T51 : TRANSMIT FILE created by modeller version 310129023 SCH_3101290_31100_1300
6222 0 12 34 CCCCCCI4 mesh1006 0 I8 polyline1008 0 CCCCCCCDI5 owner1040 0 CCCCCC
I13 boundary_mesh1006 0 I17 boundary_polyline1008 0 CCCA16 index_map_offset0 0 1
 dA9 index_map82 0 A17 node_id_index_map82 0 A20 schema_embedding_map82 0 A5 chi
ld12 0 A14 lowest_node_id0 0 1 dA16 mesh_offset_data206 0 Z1 1208 2 3 0 0 0 0 0
 0 1e3 1e-8 0 4 0 1 0 1 1 5 6 7 8 0 0 9 10 11 0 0 0 0 0 0 0 81 255 2 2 1174 12 1
 13 0 0 0 0 14 70 11 CI9 list_type0 0 1 uI10 notransmit0 0 1 lCCCDCCDI12 finger_
index0 0 1 dI12 finger_block1012 0 CZ3 0 4 T1 0 0 8 20 1 15 15 13 255 5 134 0 1
 0 16 0 0 17 0 50 255 6 133 0 18 19 0 0 +0 .001 -.008 433680868994202e-30 0 1 1
 0 -433680868994202e-30 31 255 7 965 0 10 20 0 0 +.012 .002 -2288631014462345e-3
3 1 0 -2449293598294705e-31 -2449293598294705e-31 0 -1 .0015 29 255 8 282 0 11 2
1 0 -.008 .001 .00619722436226801 19 8 CCCCCCCA5 owner12 0 Z9 40 0 1 17 0 22 V0
 16 255 10 962 0 ?23 0 24 7 0 0 1 18 255 11 280 0 25 0 26 8 ?1 17 255 25 0 27 28
 29 11 30 31 0 32 -18 26 276 0 29 11 33 21 ?1 17 29 0 27 25 34 26 35 36 0 30 -18
 33 272 0 34 26 37 38 ?1 29 21 278 0 26 38 8 -.011 .001 .00169722436226801 29 38
 274 0 33 39 21 -.011 .001 -.00169722436226801 29 39 270 0 37 40 38 -.008 .001 -
.006197224362268 18 37 268 0 41 33 42 39 ?1 29 40 100 0 43 44 39 -.008 0 .008 18
 43 87 0 45 42 46 40 ?1 29 44 101 0 46 47 40 -.012 0 .002 18 46 88 0 48 43 49 44
 ?1 29 47 102 0 49 50 44 -.012 0 -.002 18 49 89 0 51 46 52 47 ?1 29 50 103 0 52
 53 47 -.008 0 -.008 18 52 90 0 54 49 55 50 ?1 29 53 24 0 42 56 50 -.008 .001 -.
008 18 42 22 0 57 37 43 53 ?1 29 56 443 0 58 59 53 -.008 .001 .008 18 58 361 0 6
0 61 62 56 ?1 29 59 444 0 55 63 56 -.012 .004 .002 18 55 360 0 64 52 65 59 ?1 29
 63 445 0 65 66 59 -.012 .004 -.002 18 65 359 0 67 55 68 63 ?1 29 66 446 0 68 69
 63 -.008 .004 -.008 18 68 358 0 70 65 71 66 ?1 29 69 447 0 71 72 66 -.008 .004
 -.006197224362268 18 71 357 0 73 68 74 69 ?1 29 72 448 0 74 75 69 -.011 .004 -.
00169722436226801 18 74 356 0 76 71 77 72 ?1 29 75 449 0 77 78 72 -.011 .004 .00
169722436226801 18 77 355 0 79 74 80 75 ?1 29 78 450 0 80 81 75 -.008 .004 .0061
9722436226801 18 80 354 0 82 77 61 78 ?1 29 81 451 0 61 83 78 -.008 .004 .008 18
 61 347 0 84 80 58 81 ?1 29 83 648 0 62 85 81 .008 0 -.008 18 62 579 0 86 58 87
 83 ?1 29 85 649 0 87 88 83 .012 0 -.002 18 87 589 0 89 62 90 85 ?1 29 88 650 0
 90 91 85 .012 0 .002 18 90 587 0 92 87 93 88 ?1 29 91 651 0 93 94 88 .008 0 .00
8 18 93 585 0 95 90 96 91 ?1 29 94 925 0 97 98 91 .008 .001 .008 18 97 836 0 99
 100 101 94 ?1 29 98 926 0 101 102 94 .008 .001 .00619722436226801 18 101 850 0
 103 97 104 98 ?1 29 102 927 0 104 105 98 .011 .001 .001697224362268005 18 104 8
48 0 106 101 107 102 ?1 29 105 928 0 107 108 102 .011 .001 -.00169722436226801 1
8 107 846 0 109 104 110 105 ?1 29 108 929 0 110 111 105 .008 .001 -.006197224362
26801 18 110 844 0 112 107 113 108 ?1 29 111 930 0 113 114 108 .008 .001 -.008 1
8 113 842 0 115 110 0 111 ?1 29 114 933 0 96 116 111 .008 .004 .008 18 96 849 0
 117 93 118 114 ?1 29 116 934 0 118 119 114 .008 .004 .00619722436226801 18 118
 847 0 120 96 121 116 ?1 29 119 935 0 121 122 116 .011 .004 .001697224362268005
 18 121 845 0 123 118 124 119 ?1 29 122 936 0 124 125 119 .011 .004 -.0016972243
6226801 18 124 843 0 126 121 127 122 ?1 29 125 937 0 127 128 122 .008 .004 -.006
19722436226801 18 127 841 0 129 124 130 125 ?1 29 128 938 0 130 131 125 .008 .00
4 -.008 18 130 839 0 132 127 133 128 ?1 29 131 939 0 133 134 128 .012 .004 -.002
 18 133 837 0 135 130 100 131 ?1 29 134 940 0 100 0 131 .012 .004 .002 18 100 83
5 0 136 133 97 134 ?1 17 136 0 137 138 139 100 92 140 0 141 -15 255 137 605 0 13
9 142 0 17 138 0 137 99 136 96 141 143 0 144 +17 139 0 137 136 145 90 146 147 0
 148 -17 92 0 149 150 151 90 136 140 0 139 +16 140 555 0 ?92 152 153 154 0 0 1 1
7 141 0 155 156 144 100 138 143 0 151 -15 155 885 0 141 157 0 17 156 0 155 158 1
41 133 151 159 0 160 -17 144 0 155 141 161 96 162 163 0 0 -16 143 779 0 ?138 159
 164 165 0 0 1 17 151 0 149 92 135 100 156 159 0 0 +15 149 609 0 150 166 0 17 13
5 0 149 151 150 133 89 153 0 156 -16 159 783 0 ?151 167 143 168 0 0 1 16 167 787
 0 ?160 169 159 170 0 0 1 30 255 168 923 0 159 165 170 0 +.012 .004 -.002 244929
3598294705e-31 0 1 30 165 924 0 143 171 168 0 +.012 .004 .002 -.554700196225229
 0 .832050294337844 30 170 922 0 167 168 172 0 +.008 .004 -.008 .55470019622523
 0 .832050294337844 30 172 921 0 169 170 173 0 +.008 .004 -.008 -244929359829470
5e-31 0 -1 16 169 791 0 ?174 175 167 172 0 0 1 30 173 920 0 175 172 176 0 +.008
 .004 -.00619722436226801 -.55470019622523 0 -.832050294337843 16 175 795 0 ?177
 178 169 173 0 0 1 30 176 919 0 178 173 179 0 +.011 .004 -.00169722436226801 -24
49293598294705e-31 0 -1 16 178 799 0 ?180 181 175 176 0 0 1 30 179 918 0 181 176
 182 0 +.011 .004 .001697224362268005 .554700196225229 0 -.832050294337844 16 18
1 803 0 ?183 163 178 179 0 0 1 30 182 917 0 163 179 184 0 +.008 .004 .008 -24492
93598294705e-31 0 -1 16 163 807 0 ?162 185 181 182 0 0 1 30 184 913 0 186 182 18
7 0 +.008 .001 -.008 -2449293598294705e-31 0 -1 16 186 826 0 ?188 189 190 184 0
 0 1 30 187 912 0 189 184 191 0 +.008 .001 -.00619722436226801 -.55470019622523
 0 -.832050294337843 16 189 823 0 ?192 193 186 187 0 0 1 30 191 911 0 193 187 19
4 0 +.011 .001 -.00169722436226801 -2449293598294705e-31 0 -1 16 193 820 0 ?195
 196 189 191 0 0 1 30 194 910 0 196 191 197 0 +.011 .001 .001697224362268005 .55
4700196225229 0 -.832050294337844 16 196 817 0 ?198 164 193 194 0 0 1 30 197 909
 0 164 194 199 0 +.008 .001 .008 -2449293598294705e-31 0 -1 16 164 814 0 ?200 14
3 196 197 0 0 1 30 199 908 0 185 197 201 0 +.008 .004 .008 0 -1 0 16 185 782 0 ?
99 202 163 199 0 0 1 30 201 907 0 202 199 203 0 +.008 .004 .00619722436226801 0
 -1 0 16 202 810 0 ?103 204 185 201 0 0 1 30 203 906 0 204 201 205 0 +.011 .004
 .001697224362268005 0 -1 0 16 204 806 0 ?106 206 202 203 0 0 1 30 205 905 0 206
 203 207 0 +.011 .004 -.00169722436226801 0 -1 0 16 206 802 0 ?109 208 204 205 0
 0 1 30 207 904 0 208 205 209 0 +.008 .004 -.00619722436226801 0 -1 0 16 208 798
 0 ?112 210 206 207 0 0 1 30 209 903 0 210 207 211 0 +.008 .004 -.008 0 -1 0 16
 210 794 0 ?115 212 208 209 0 0 1 31 211 749 0 213 209 214 0 +.004 .003 .004 0 -
1 0 -2449293598294705e-31 0 -1 .002 16 213 726 0 ?215 216 212 211 0 0 1 31 214 7
48 0 212 211 217 0 +.004 .001 .004 0 -1 0 -2449293598294705e-31 0 -1 .002 16 212
 729 0 ?218 213 210 214 0 0 1 31 217 717 0 219 214 220 0 +.004 .003 -.004 0 -1 0
 2449293598294705e-31 0 1 .002 16 219 694 0 ?221 147 216 217 0 0 1 31 220 716 0
 216 217 222 0 +.004 .001 -.004 0 -1 0 2449293598294705e-31 0 1 .002 16 216 697
 0 ?223 219 213 220 0 0 1 30 222 638 0 147 220 224 0 +.008 0 .008 -.554700196225
229 0 .832050294337844 16 147 569 0 ?146 225 219 222 0 0 1 30 224 637 0 225 222
 226 0 +.012 0 .002 2449293598294705e-31 0 1 16 225 566 0 ?148 227 147 224 0 0 1
 30 226 636 0 227 224 228 0 +.008 0 -.008 .55470019622523 0 .832050294337844 16
 227 563 0 ?229 230 225 226 0 0 1 30 228 635 0 230 226 231 0 +.008 .001 -.008 0
 -1 0 16 230 539 0 ?232 153 227 228 0 0 1 30 231 634 0 153 228 154 0 +.012 .001
 -.002 0 -1 0 16 153 559 0 ?89 140 230 231 0 0 1 30 154 633 0 140 231 233 0 +.01
2 .001 .002 0 -1 0 30 233 632 0 152 154 234 0 +.008 .001 .008 0 -1 0 16 152 551
 0 ?145 235 140 233 0 0 1 31 234 522 0 235 233 236 0 +-.02 .002 650521303491303e
-33 -1 0 0 0 0 1 .0015 16 235 502 0 ?237 238 152 234 0 0 1 30 236 435 0 239 234
 240 0 +-.012 .004 .002 .55470019622523 0 .832050294337843 16 239 322 0 ?241 242
 243 236 0 0 1 30 240 434 0 242 236 244 0 +-.008 .004 .008 0 0 -1 16 242 325 0 ?
82 245 239 240 0 0 1 30 244 433 0 245 240 246 0 +-.011 .004 .00169722436226801 -
.55470019622523 0 -.832050294337843 16 245 328 0 ?79 247 242 244 0 0 1 30 246 43
2 0 247 244 248 0 +-.011 .004 -.00169722436226801 0 0 -1 16 247 331 0 ?76 249 24
5 246 0 0 1 30 248 431 0 249 246 250 0 +-.008 .004 -.006197224362268 .5547001962
2523 0 -.832050294337844 16 249 334 0 ?73 251 247 248 0 0 1 30 250 430 0 251 248
 252 0 +-.008 .004 -.008 0 0 -1 16 251 337 0 ?70 253 249 250 0 0 1 30 252 429 0
 253 250 254 0 +-.008 .004 -.008 -.554700196225229 0 .832050294337844 16 253 340
 0 ?255 256 251 252 0 0 1 30 254 428 0 256 252 257 0 +-.012 .004 -.002 0 0 1 16
 256 343 0 ?258 259 253 254 0 0 1 30 257 426 0 238 254 260 0 +-.008 .001 .008 0
 0 -1 16 238 294 0 ?32 31 235 257 0 0 1 30 260 425 0 31 257 261 0 +-.011 .001 .0
0169722436226801 -.55470019622523 0 -.832050294337843 16 31 298 0 ?30 36 238 260
 0 0 1 30 261 424 0 36 260 262 0 +-.011 .001 -.00169722436226801 0 0 -1 16 36 30
2 0 ?35 263 31 261 0 0 1 30 262 423 0 263 261 264 0 +-.008 .001 -.00619722436226
8 .55470019622523 0 -.832050294337844 16 263 306 0 ?265 243 36 262 0 0 1 30 264
 422 0 243 262 266 0 +-.008 .001 -.008 0 0 -1 16 243 310 0 ?267 239 263 264 0 0
 1 30 266 417 0 259 264 268 0 +-.008 .004 -.008 0 -1 0 16 259 317 0 ?269 270 256
 266 0 0 1 30 268 416 0 270 266 271 0 +-.008 .004 -.006197224362268 0 -1 0 16 27
0 313 0 ?272 273 259 268 0 0 1 30 271 415 0 273 268 274 0 +-.011 .004 -.00169722
436226801 0 -1 0 16 273 309 0 ?275 276 270 271 0 0 1 30 274 414 0 276 271 277 0
 +-.011 .004 .00169722436226801 0 -1 0 16 276 305 0 ?278 279 273 274 0 0 1 30 27
7 413 0 279 274 280 0 +-.008 .004 .00619722436226801 0 -1 0 16 279 301 0 ?281 28
2 276 277 0 0 1 30 280 412 0 282 277 283 0 +-.008 .004 .008 0 -1 0 16 282 297 0
 ?284 285 279 280 0 0 1 31 283 251 0 285 280 286 0 +-.004 .003 .004 0 1 0 0 0 -1
 .002 16 285 231 0 ?287 288 282 283 0 0 1 31 286 218 0 288 283 289 0 +-.004 .003
 -.004 0 1 0 0 0 1 .002 16 288 198 0 ?290 291 285 286 0 0 1 30 289 5 0 292 286 2
93 0 +0 .001 -.008 -1 0 433680868994202e-30 16 292 4 0 ?57 294 295 289 0 0 1 30
 293 17 0 294 289 296 0 +1959434878635765e-33 .001 .008 1 0 0 16 294 16 0 ?297 2
98 292 293 0 0 1 30 296 97 0 291 293 299 0 +0 0 -.008 -1 0 433680868994202e-30 1
6 291 81 0 ?300 301 288 296 0 0 1 30 299 96 0 301 296 302 0 +-.008 0 -.008 -.554
700196225229 0 .832050294337844 16 301 77 0 ?51 303 291 299 0 0 1 30 302 95 0 30
3 299 304 0 +-.012 0 .002 0 0 1 16 303 73 0 ?48 305 301 302 0 0 1 30 304 94 0 30
5 302 306 0 +-.008 0 .008 .55470019622523 0 .832050294337843 16 305 69 0 ?45 295
 303 304 0 0 1 30 306 93 0 295 304 307 0 +1959434878635765e-33 0 .008 1 0 0 16 2
95 65 0 ?95 292 305 306 0 0 1 30 307 124 0 298 306 308 0 +-.008 .001 .008 0 -1 0
 16 298 106 0 ?309 310 294 307 0 0 1 30 308 125 0 310 307 311 0 +-.012 .001 .002
 0 -1 0 16 310 107 0 ?312 313 298 308 0 0 1 30 311 126 0 313 308 314 0 +-.012 .0
01 -.002 0 -1 0 16 313 108 0 ?315 316 310 311 0 0 1 30 314 127 0 316 311 317 0 +
-.008 .001 -.008 0 -1 0 16 316 109 0 ?318 319 313 314 0 0 1 31 317 191 0 319 314
 320 0 --.004 .001 -.004 0 -1 0 0 0 -1 .002 16 319 188 0 ?321 322 316 317 0 0 1
 31 320 224 0 322 317 20 0 --.004 .001 .004 0 -1 0 0 0 -1 .002 16 322 221 0 ?323
 24 319 320 0 0 1 31 20 494 0 24 320 7 0 --.012 .002 650521303491303e-33 1 0 0 0
 0 -1 .0015 16 24 491 0 ?324 10 322 20 0 0 1 17 324 0 325 324 324 0 326 24 0 0 +
15 325 509 0 324 327 0 17 326 0 328 326 326 0 324 24 0 0 -15 328 493 0 326 16 0
 14 255 16 495 329 ?330 0 331 5 332 -0 0 330 0 22 81 1 329 1175 333 16 334 0 0 3
35 336 14 330 287 335 ?18 16 337 5 338 -0 0 18 16 22 15 331 116 0 48 16 328 50 3
32 131 0 16 339 19 0 +-.012 .001 .002 1 0 0 0 0 -1 13 22 41 0 0 0 0 0 0 9 16 50
 339 130 0 340 341 332 0 +-.008 .001 .008 .832050294337843 0 -.55470019622523 -.
55470019622523 0 -.832050294337843 50 19 132 0 342 332 6 0 +-.008 .001 -.008 .83
2050294337844 0 .554700196225229 .554700196225229 0 -.832050294337844 14 342 119
 343 ?340 18 344 5 19 -0 0 340 18 22 81 1 343 1177 333 342 345 0 335 346 347 14
 340 115 346 ?348 342 349 5 339 -0 0 348 342 22 14 18 121 350 ?342 330 351 5 6 -
0 0 342 330 22 15 344 118 0 51 342 0 17 51 0 344 67 318 49 54 301 0 315 +17 67 0
 344 352 51 65 315 313 0 255 -17 318 0 344 51 269 52 353 316 0 300 +17 54 0 354
 86 355 52 51 301 0 318 -17 315 0 331 48 356 49 67 313 0 355 +17 48 0 331 64 315
 46 355 303 0 312 +17 356 0 331 315 64 65 258 256 0 0 -17 355 0 354 54 357 49 48
 303 0 0 -15 354 60 0 86 358 0 17 357 0 354 355 359 46 45 305 0 0 -17 359 0 354
 357 146 43 95 295 0 0 -17 45 0 349 360 312 43 357 305 0 309 +15 349 114 0 45 34
0 0 17 360 0 349 361 45 58 309 298 0 28 -17 312 0 349 45 362 46 64 310 0 357 +17
 309 0 363 95 60 43 360 298 0 359 +15 363 112 0 95 348 0 17 95 0 363 364 309 93
 359 295 0 145 +17 60 0 363 309 364 58 297 294 0 360 -17 364 0 363 60 95 97 145
 152 0 0 -17 297 0 27 200 28 97 60 294 0 364 +15 27 285 0 192 330 0 17 200 0 27
 198 297 101 365 164 0 0 +17 28 0 27 297 25 58 32 238 0 284 -17 32 0 366 367 284
 11 28 238 0 281 +17 284 0 366 32 84 58 361 282 0 0 +15 366 369 0 32 368 0 17 84
 0 366 284 367 61 82 242 0 241 -17 361 0 349 362 360 61 284 282 0 0 -17 362 0 34
9 312 361 55 241 239 0 0 -17 241 0 369 82 258 61 362 239 0 361 +15 369 396 0 241
 370 0 17 82 0 369 79 241 80 84 242 0 367 +17 258 0 369 241 255 55 356 256 0 362
 +17 255 0 369 258 70 65 352 253 0 356 +17 70 0 369 255 73 68 371 251 0 372 +17
 352 0 344 269 67 68 255 253 0 0 -17 269 0 344 318 352 42 372 259 0 0 +17 372 0
 373 371 267 68 269 259 0 352 -15 373 385 0 267 374 0 17 371 0 373 272 372 71 70
 251 0 0 -17 267 0 373 372 272 42 41 243 0 269 +17 272 0 373 267 371 37 375 270
 0 0 +17 41 0 27 34 57 37 267 243 0 265 -17 34 0 27 29 41 33 265 263 0 35 -17 57
 0 27 41 188 42 376 292 0 353 +17 265 0 377 375 275 37 34 263 0 272 +15 377 381
 0 265 378 0 17 375 0 377 379 265 71 272 270 0 371 -17 275 0 377 265 379 33 380
 273 0 0 +17 379 0 377 275 375 74 73 249 0 0 -17 380 0 381 382 35 74 275 273 0 3
79 -15 381 377 0 35 383 0 17 382 0 381 278 380 77 76 247 0 0 -17 35 0 381 380 27
8 33 29 36 0 275 +17 278 0 381 35 382 26 384 276 0 0 +17 384 0 385 386 30 77 278
 276 0 382 -15 385 373 0 30 387 0 17 386 0 385 281 384 80 79 245 0 0 -17 30 0 38
5 384 281 26 25 31 0 278 +17 281 0 385 30 386 11 367 279 0 0 +17 367 0 366 84 32
 80 281 279 0 386 -17 79 0 369 76 82 77 386 245 0 384 +17 76 0 369 73 79 74 382
 247 0 380 +17 73 0 369 70 76 71 379 249 0 375 +14 387 370 388 ?383 368 385 5 38
9 -0 0 383 368 22 81 1 388 1180 333 387 390 0 350 391 392 14 383 374 391 ?378 38
7 381 5 393 -0 0 378 387 22 14 368 366 394 ?387 395 366 5 396 -0 0 387 395 22 50
 389 404 0 387 393 396 0 +-.011 .004 .00169722436226801 -.832050294337843 0 .554
70019622523 .55470019622523 0 .832050294337844 50 393 405 0 383 397 389 0 +-.011
 .004 -.00169722436226801 -1 0 0 0 0 1 50 396 403 0 368 389 398 0 +-.008 .004 .0
08 -1 0 0 0 0 1 50 398 249 0 395 396 399 0 +-.004 .003 .004 0 -1 0 0 0 -1 14 395
 239 400 ?368 401 402 5 398 -0 0 368 401 22 51 255 399 247 0 401 398 403 0 --.00
4 .003 .004 0 -1 0 .002 0 0 -1 14 401 234 404 ?395 405 406 5 399 -0 0 395 405 22
 50 403 216 0 405 399 407 0 +-.004 .003 -.004 0 1 0 0 0 1 14 405 206 408 ?401 40
9 410 5 403 +0 0 401 409 22 51 407 214 0 409 403 338 0 --.004 .003 -.004 0 -1 0
 .002 0 0 -1 14 409 201 411 ?405 358 412 5 407 -0 0 405 358 22 50 338 2 0 330 40
7 413 0 +0 .001 0 0 -1 0 0 0 -1 50 413 91 0 358 338 341 0 +0 0 0 0 -1 0 0 0 -1 1
4 358 59 414 ?409 348 354 5 413 +0 0 409 348 22 50 341 129 0 348 413 339 0 +1959
434878635765e-33 .001 .008 0 0 -1 -1 0 0 14 348 113 415 ?358 340 363 5 341 -0 0
 358 340 22 81 1 415 1188 333 348 416 0 414 417 418 80 255 1 333 419 420 9000 1
 1 1 1 1 1 1 1 0 FFFFTFTFFFFFFF1 81 1 416 1066 421 348 0 415 422 423 424 81 1 41
4 1187 333 358 423 0 411 415 425 81 1 417 1189 333 378 426 0 415 427 428 82 255
 1 418 -892927881 14 378 378 417 ?374 383 377 5 397 -0 0 374 383 22 81 1 426 107
5 421 378 0 417 429 430 431 81 1 427 1190 333 374 430 0 417 432 433 82 1 428 -18
82652558 14 374 382 427 ?370 378 373 5 434 -0 0 370 378 22 81 1 430 1076 421 374
 0 427 426 435 436 81 1 432 1191 333 370 435 0 427 437 438 82 1 433 -1882914702
 14 370 394 432 ?327 374 369 5 439 -0 0 327 374 22 81 1 435 1077 421 370 0 432 4
30 440 441 81 1 437 1192 333 327 440 0 432 442 443 82 1 438 -1895497614 14 327 5
05 437 ?444 370 445 5 446 -0 0 444 370 22 81 1 440 1078 421 327 0 437 435 447 44
8 81 1 442 1193 333 444 447 0 437 449 450 82 1 443 1923416181 14 444 510 442 ?14
2 327 451 5 452 +0 0 142 327 22 81 1 447 1079 421 444 0 442 440 453 454 81 1 449
 1194 333 142 453 0 442 455 456 82 1 450 1921450101 14 142 602 449 ?166 444 137
 5 457 +0 0 166 444 22 81 1 453 1080 421 142 0 449 447 458 459 81 1 455 1195 333
 166 458 0 449 460 461 82 1 456 -1205141385 14 166 606 455 ?462 142 463 5 464 +0
 0 462 142 22 81 1 458 1081 421 166 0 455 453 465 466 81 1 460 1196 333 462 465
 0 455 467 468 82 1 461 -1205272457 14 462 610 460 ?469 166 470 5 471 +0 0 469 1
66 22 81 1 465 1082 421 462 0 460 458 472 473 81 1 467 1197 333 469 472 0 460 47
4 475 82 1 468 -1205403529 14 469 700 467 ?476 462 477 5 478 +0 0 476 462 22 81
 1 472 1083 421 469 0 467 465 479 480 81 1 474 1198 333 476 479 0 467 481 482 82
 1 475 -1191772041 14 476 705 474 ?483 469 484 5 485 +0 0 483 469 22 81 1 479 10
84 421 476 0 474 472 486 487 81 1 481 1199 333 483 486 0 474 488 489 82 1 482 -1
193738121 14 483 732 481 ?490 476 491 5 492 +0 0 490 476 22 81 1 486 1085 421 48
3 0 481 479 493 494 81 1 488 1200 333 490 493 0 481 495 496 82 1 489 -1187774345
 14 490 737 488 ?497 483 498 5 499 -0 0 497 483 22 81 1 493 1086 421 490 0 488 4
86 500 501 81 1 495 1201 333 497 500 0 488 502 503 82 1 496 -1189740425 14 497 8
63 495 ?504 490 505 5 506 +0 0 504 490 22 81 1 500 1087 421 497 0 495 493 507 50
8 81 1 502 1202 333 504 507 0 495 509 510 82 1 503 -1149894537 14 504 867 502 ?5
11 497 512 5 513 +0 0 511 497 22 81 1 507 1088 421 504 0 502 500 514 515 81 1 50
9 1203 333 511 514 0 502 516 517 82 1 510 -1150025609 14 511 871 509 ?518 504 51
9 5 520 +0 0 518 504 22 81 1 514 1089 421 511 0 509 507 521 522 81 1 516 1204 33
3 518 521 0 509 523 524 82 1 517 -1150156681 14 518 875 516 ?525 511 526 5 527 +
0 0 525 511 22 81 1 521 1090 421 518 0 516 514 528 529 81 1 523 1205 333 525 528
 0 516 530 531 82 1 524 -1150287753 14 525 879 523 ?157 518 532 5 533 +0 0 157 5
18 22 81 1 528 1091 421 525 0 523 521 534 535 81 1 530 1206 333 157 534 0 523 53
6 537 82 1 531 -1150418825 14 157 883 530 ?538 525 155 5 539 -0 0 538 525 22 81
 1 534 1092 421 157 0 530 528 540 541 81 1 536 1207 333 538 540 0 530 542 543 82
 1 537 -1162477449 14 538 977 536 ?544 157 545 5 546 +0 0 544 157 22 81 1 540 10
93 421 538 0 536 534 547 548 81 1 542 1208 333 544 547 0 536 0 549 82 1 543 -113
5476617 14 544 982 542 ?0 538 550 5 551 +0 0 0 538 22 81 1 547 1094 421 544 0 54
2 540 0 552 82 1 549 -1137442697 80 1 421 0 553 8001 0 0 0 0 3 5 0 0 0 FFFFTFTFF
FFFFF2 83 255 3 552 .792156862745098 .819607843137255 .933333333333333 79 255 15
 553 SDL/TYSA_COLOUR15 550 984 0 554 544 0 50 551 992 0 544 0 546 0 +.02 .002 -4
24806589309811e-32 1 0 -2449293598294705e-31 2449293598294705e-31 0 1 51 546 990
 0 538 551 539 0 +.02 .002 -424806589309811e-32 -1 0 2449293598294705e-31 .0015
 2449293598294705e-31 0 1 50 539 900 0 157 546 533 0 +0 .004 0 0 -1 0 -244929359
8294705e-31 0 -1 50 533 898 0 525 539 527 0 +.008 .004 .008 -1 0 244929359829470
5e-31 2449293598294705e-31 0 1 50 527 897 0 518 533 520 0 +.011 .004 .0016972243
62268005 -.832050294337843 0 -.554700196225229 -.554700196225229 0 .832050294337
844 50 520 896 0 511 527 513 0 +.011 .004 -.00169722436226801 -1 0 2449293598294
705e-31 2449293598294705e-31 0 1 50 513 895 0 504 520 506 0 +.008 .004 -.0061972
2436226801 -.832050294337843 0 .55470019622523 .55470019622523 0 .83205029433784
4 50 506 894 0 497 513 499 0 +.008 .004 -.008 -1 0 2449293598294705e-31 24492935
98294705e-31 0 1 50 499 747 0 490 506 492 0 +.004 .003 .004 0 -1 0 -244929359829
4705e-31 0 -1 51 492 745 0 483 499 485 0 +.004 .003 .004 0 -1 0 .002 0 0 -1 50 4
85 715 0 476 492 478 0 +.004 .003 -.004 0 1 0 2449293598294705e-31 0 1 51 478 71
3 0 469 485 471 0 +.004 .003 -.004 0 -1 0 .002 0 0 -1 50 471 627 0 462 478 464 0
 +.008 .001 -.008 .832050294337844 0 -.55470019622523 -.55470019622523 0 -.83205
0294337844 50 464 626 0 166 471 457 0 +.012 .001 .002 1 0 -2449293598294705e-31
 -2449293598294705e-31 0 -1 50 457 625 0 142 464 452 0 +.008 .001 .008 .83205029
4337844 0 .554700196225229 .554700196225229 0 -.832050294337844 50 452 520 0 444
 457 446 0 +-.02 .002 650521303491303e-33 -1 0 0 0 0 1 51 446 518 0 327 452 439
 0 --.02 .002 650521303491303e-33 1 0 0 .0015 0 0 -1 50 439 411 0 370 446 434 0
 +0 .004 0 0 -1 0 0 0 -1 50 434 407 0 374 439 397 0 +-.008 .004 -.008 -1 0 0 0 0
 1 50 397 406 0 378 434 393 0 +-.008 .004 -.006197224362268 -.832050294337843 0
 -.554700196225229 -.55470019622523 0 .832050294337844 17 554 0 550 554 554 0 55
5 190 0 0 -17 555 0 545 555 555 0 554 190 0 0 +16 190 971 0 ?555 186 0 171 0 0 1
 31 171 994 0 190 0 165 0 +.02 .002 -424806589309811e-32 -1 0 2449293598294705e-
31 2449293598294705e-31 0 1 .0015 15 545 980 0 555 538 556 15 556 981 0 23 538 0
 17 23 0 556 23 23 0 557 10 0 0 +17 557 0 463 557 557 0 23 10 0 0 -15 463 964 0
 557 166 149 83 3 548 .792156862745098 .819607843137255 .933333333333333 83 3 54
1 .792156862745098 .819607843137255 .933333333333333 83 3 535 .792156862745098 .
819607843137255 .933333333333333 15 532 882 0 365 525 0 17 365 0 532 117 103 97
 200 164 0 297 -17 117 0 532 162 365 96 99 185 0 138 -17 103 0 532 365 162 101 1
20 202 0 558 +17 162 0 532 103 117 118 144 163 0 0 +17 120 0 526 183 558 118 103
 202 0 161 -17 558 0 526 120 106 101 198 196 0 200 -15 526 878 0 558 518 0 17 10
6 0 526 558 183 104 123 204 0 559 +17 198 0 27 195 200 104 558 196 0 0 +17 195 0
 27 192 198 107 559 193 0 0 +17 192 0 27 188 195 110 560 189 0 0 +17 559 0 519 1
23 109 104 195 193 0 198 -15 519 874 0 559 511 0 17 123 0 519 180 559 121 106 20
4 0 561 -17 109 0 519 559 180 107 126 206 0 560 +17 180 0 519 109 123 124 561 17
8 0 0 +17 126 0 512 177 560 124 109 206 0 562 -17 560 0 512 126 112 107 192 189
 0 195 -15 512 870 0 560 504 0 17 112 0 512 560 177 110 129 208 0 563 +17 177 0
 512 112 126 127 562 175 0 0 +17 129 0 505 174 563 127 112 208 0 564 -17 563 0 5
05 129 115 110 188 186 0 192 -15 505 866 0 563 497 0 17 115 0 505 563 174 113 13
2 210 0 188 +17 188 0 27 57 192 113 563 186 0 376 +17 376 0 351 232 353 113 57 2
92 0 565 -15 351 120 0 300 18 0 17 232 0 351 300 376 62 565 230 0 566 +17 353 0
 351 376 300 42 318 316 0 267 -17 565 0 470 132 566 113 232 230 0 0 -15 470 613
 0 566 462 0 17 132 0 470 160 565 130 115 210 0 158 -17 566 0 470 565 89 62 229
 227 0 0 -17 89 0 470 566 160 87 135 153 0 150 +17 229 0 354 148 86 87 566 227 0
 0 +17 148 0 354 146 229 90 150 225 0 0 +17 86 0 354 229 54 62 300 291 0 232 -17
 300 0 351 353 232 52 86 291 0 0 +17 146 0 354 359 148 93 139 147 0 0 +17 150 0
 149 135 92 87 148 225 0 229 -17 160 0 470 89 132 133 158 167 0 0 +17 158 0 155
 564 156 130 160 167 0 174 -17 564 0 155 562 158 127 174 169 0 177 -17 174 0 505
 115 129 130 564 169 0 0 +17 562 0 155 561 564 124 177 175 0 180 -17 561 0 155 1
61 562 121 180 178 0 183 -17 161 0 155 144 561 118 183 181 0 162 -17 183 0 526 1
06 120 121 161 181 0 0 +17 99 0 137 145 138 97 117 185 0 365 +17 145 0 137 139 9
9 93 364 152 0 146 +83 3 529 .792156862745098 .819607843137255 .933333333333333
 83 3 522 .792156862745098 .819607843137255 .933333333333333 83 3 515 .792156862
745098 .819607843137255 .933333333333333 83 3 508 .792156862745098 .819607843137
255 .933333333333333 83 3 501 .792156862745098 .819607843137255 .933333333333333
 15 498 739 0 567 490 0 17 567 0 498 567 567 0 215 213 0 0 -17 215 0 491 215 215
 0 567 213 0 0 +15 491 735 0 215 483 568 15 568 736 0 569 483 0 17 569 0 568 569
 569 0 218 212 0 0 -17 218 0 337 218 218 0 569 212 0 0 +15 337 719 0 218 330 570
 15 570 687 0 223 330 571 17 223 0 570 223 223 0 572 216 0 0 +15 571 223 0 573 3
30 574 17 573 0 571 573 573 0 323 322 0 0 -15 574 190 0 575 330 27 17 575 0 574
 575 575 0 321 319 0 0 -17 321 0 576 321 321 0 575 319 0 0 +15 576 205 0 321 409
 0 17 323 0 577 323 323 0 573 322 0 0 +15 577 238 0 323 401 0 17 572 0 578 572 5
72 0 223 216 0 0 -15 578 704 0 572 469 0 83 3 494 .792156862745098 .819607843137
255 .933333333333333 83 3 487 .792156862745098 .819607843137255 .933333333333333
 15 484 707 0 579 476 0 17 579 0 484 579 579 0 221 219 0 0 -17 221 0 477 221 221
 0 579 219 0 0 +15 477 703 0 221 469 578 83 3 480 .792156862745098 .819607843137
255 .933333333333333 83 3 473 .792156862745098 .819607843137255 .933333333333333
 83 3 466 .792156862745098 .819607843137255 .933333333333333 83 3 459 .792156862
745098 .819607843137255 .933333333333333 83 3 454 .792156862745098 .819607843137
255 .933333333333333 15 451 512 0 237 444 0 17 237 0 451 237 237 0 580 235 0 0 +
17 580 0 445 580 580 0 237 235 0 0 -15 445 508 0 580 327 325 83 3 448 .792156862
745098 .819607843137255 .933333333333333 83 3 441 .792156862745098 .819607843137
255 .933333333333333 83 3 436 .792156862745098 .819607843137255 .933333333333333
 81 1 429 1074 421 383 0 391 390 426 581 83 3 431 .792156862745098 .819607843137
255 .933333333333333 81 1 391 1181 333 383 429 0 388 394 582 81 1 390 1073 421 3
87 0 388 583 429 584 83 3 581 .792156862745098 .819607843137255 .933333333333333
 81 1 583 1072 421 368 0 394 585 390 586 83 3 584 .792156862745098 .819607843137
255 .933333333333333 81 1 394 1182 333 368 583 0 391 400 587 81 1 585 1071 421 3
95 0 400 588 583 589 83 3 586 .792156862745098 .819607843137255 .933333333333333
 81 1 400 1183 333 395 585 0 394 404 590 81 1 588 1070 421 401 0 404 591 585 592
 83 3 589 .792156862745098 .819607843137255 .933333333333333 81 1 404 1184 333 4
01 588 0 400 408 593 81 1 591 1069 421 405 0 408 594 588 595 83 3 592 .792156862
745098 .819607843137255 .933333333333333 81 1 408 1185 333 405 591 0 404 411 596
 81 1 594 1068 421 409 0 411 423 591 597 83 3 595 .792156862745098 .819607843137
255 .933333333333333 81 1 411 1186 333 409 594 0 408 414 598 81 1 423 1067 421 3
58 0 414 416 594 599 83 3 597 .792156862745098 .819607843137255 .933333333333333
 83 3 599 .792156862745098 .819607843137255 .933333333333333 82 1 598 235339882
 82 1 596 233373802 82 1 593 239468650 82 1 590 237502570 82 1 587 -1881866126 8
2 1 582 -1882390414 82 1 425 -894500745 81 1 422 1065 421 340 0 346 345 416 600
 83 3 424 .792156862745098 .819607843137255 .933333333333333 81 1 346 1178 333 3
40 422 0 343 350 601 81 1 345 1064 421 342 0 343 602 422 603 83 3 600 .792156862
745098 .819607843137255 .933333333333333 81 1 602 1063 421 18 0 350 604 345 605
 83 3 603 .792156862745098 .819607843137255 .933333333333333 81 1 350 1179 333 1
8 602 0 346 388 606 81 1 604 1062 421 330 0 335 334 602 607 83 3 605 .7921568627
45098 .819607843137255 .933333333333333 81 1 335 1176 333 330 604 0 329 343 608
 81 1 334 1061 421 16 0 329 0 604 609 83 3 607 .792156862745098 .819607843137255
 .933333333333333 83 3 609 .792156862745098 .819607843137255 .933333333333333 82
 1 608 -1874984841 82 1 606 -891879305 82 1 601 -892665742 79 14 420 SWEntUnchan
ged15 412 204 0 610 409 576 17 610 0 412 610 610 0 290 288 0 0 -17 290 0 410 290
 290 0 610 288 0 0 +15 410 208 0 290 405 0 15 406 237 0 611 401 577 17 611 0 406
 611 611 0 287 285 0 0 -17 287 0 402 287 287 0 611 285 0 0 +15 402 241 0 287 395
 0 82 1 392 -1882128270 17 64 0 331 356 48 55 312 310 0 258 -82 1 347 -892141454
 82 1 336 1925841013 19 17 135 0 1 0 9 5 S0 74 4 CI16 index_map_offset0 0 1 dCCZ
20 15 8 0 0 542 612 613 614 615 13 547 2 0 0 0 0 0 0 0 0 0 0 0 0 81 2 612 997 61
6 1 0 613 0 0 0 617 81 2 613 999 618 1 612 614 0 0 0 619 81 1 614 1021 620 1 613
 615 0 0 621 81 2 615 1056 622 1 614 13 0 0 0 623 81 2 13 1059 624 1 615 2 0 0 0
 0 80 2 624 625 626 9000 0 0 0 0 3 5 0 0 0 FFTFFFFFFFFFFF9 1 79 16 626 BODY_RECI
PE_200180 2 622 627 628 9000 0 0 0 0 3 5 0 0 0 FFTFFFFFFFFFFF9 1 82 1 623 1 79 2
4 628 BODY_IN_LIGHTWEIGHT_PERM80 1 620 629 630 9000 1 1 1 1 1 1 1 1 0 FFTFFFFFFF
FFFF1 82 1 621 6998578 79 10 630 BODY_MATCH80 2 618 631 632 9000 0 0 0 0 3 5 0 0
 0 FFTFFFFFFFFFFF9 1 82 1 619 95 79 30 632 LAST_BODY_MODIFYING_FEATURE_ID80 2 61
6 633 634 9000 0 0 0 0 3 5 0 0 0 FFTFFFFFFFFFFT9 1 82 1 617 114 79 19 634 ENT_TI
ME_STAMP_200180 2 12 635 636 9000 0 0 0 0 3 5 0 0 0 FFTFFFFFFFFFFF9 1 82 1 14 10
5 79 12 636 ATOM_ID_20011 0 
