**ABCDEFGHIJKLMNOPQRSTUVWXYZabcdefghijklmnopqrstuvwxyz**************************
**PARASOLID !"#$%&'()*+,-./:;<=>?@[\]^_`{|}~0123456789**************************
**PART1;
MC=AMD64;
MC_MODEL=Intel64 Family 6 Model 142 Stepping 10, GenuineIntel;
MC_ID=unknown;
OS=Windows_NT;
OS_RELEASE=unknown;
FRU=Parasolid Version 31.1, build 290,  3- 9-2020;
APPL=SOLIDWORKS 2020-2020128;
SITE=;
USER=unknown;
FORMAT=text;
GUISE=transmit;
KEY=P7_Acople_Rueda;
FILE=P7_Acople_Rueda.x_t;
DATE=Wed Apr 28 17:48:44 2021;
**PART2;
SCH=SCH_3101290_31100;
USFLD_SIZE=0;
**PART3;
**END_OF_HEADER*****************************************************************
T51 : TRANSMIT FILE created by modeller version 310129023 SCH_3101290_31100_1300
6222 0 12 34 CCCCCCI4 mesh1006 0 I8 polyline1008 0 CCCCCCCDI5 owner1040 0 CCCCCC
I13 boundary_mesh1006 0 I17 boundary_polyline1008 0 CCCA16 index_map_offset0 0 1
 dA9 index_map82 0 A17 node_id_index_map82 0 A20 schema_embedding_map82 0 A5 chi
ld12 0 A14 lowest_node_id0 0 1 dA16 mesh_offset_data206 0 Z1 977 2 3 0 0 0 0 0 0
 1e3 1e-8 0 4 0 1 0 1 1 5 6 7 8 0 0 9 10 11 0 0 0 0 0 0 0 81 255 2 2 946 12 1 13
 0 0 0 0 14 70 11 CI9 list_type0 0 1 uI10 notransmit0 0 1 lCCCDCCDI12 finger_ind
ex0 0 1 dI12 finger_block1012 0 CZ3 0 4 T1 0 0 8 20 1 15 15 13 255 5 95 0 1 0 16
 0 0 17 0 50 255 6 185 0 18 19 0 0 +0 .003 .005 0 0 -1 -1 0 0 31 255 7 197 0 10
 20 0 0 +0 0 -.0015 0 0 1 1 0 0 .004 29 255 8 324 0 11 21 0 -.003968626966596885
 -.000500000000000014 -.0035 19 8 CCCCCCCA5 owner12 0 Z9 99 0 1 17 0 22 V0 16 25
5 10 154 0 ?23 0 24 7 25 24 1 18 255 11 322 0 26 0 27 8 ?1 17 255 26 0 28 29 30
 11 31 32 0 33 -18 27 567 0 34 11 35 36 ?1 17 34 0 37 38 39 27 40 41 0 42 +18 35
 566 0 39 27 43 44 ?1 29 36 723 0 27 44 45 -.000499999999999987 -.00193649167310
371 -.0035 29 44 724 0 35 46 36 -.000499999999999972 -.00396862696659689 -.0035
 29 45 722 0 47 36 48 -.001936491673103705 -.000500000000000007 -.0015 18 47 568
 0 49 50 0 45 ?1 29 48 721 0 50 45 51 -.003968626966596885 -.000500000000000015
 -.0015 18 50 537 0 30 52 47 48 ?1 29 51 720 0 52 48 53 -.00396862696659689 .000
499999999999986 -.0015 18 52 539 0 54 55 50 51 ?1 29 53 719 0 55 51 56 -.0019364
9167310371 .000499999999999993 -.0015 18 55 540 0 57 58 52 53 ?1 29 56 718 0 58
 53 59 -5e-4 .00193649167310371 -.0015 18 58 541 0 60 61 55 56 ?1 29 59 717 0 61
 56 62 -5e-4 .003968626966596885 -.0015 18 61 542 0 63 64 58 59 ?1 29 62 716 0 6
4 59 65 5e-4 .003968626966596885 -.0015 18 64 543 0 66 67 61 62 ?1 29 65 715 0 6
7 62 68 5e-4 .00193649167310371 -.0015 18 67 544 0 69 70 64 65 ?1 29 68 714 0 70
 65 71 .001936491673103705 .00050000000000002 -.0015 18 70 545 0 72 73 67 68 ?1
 29 71 713 0 73 68 74 .003968626966596885 .00050000000000002 -.0015 18 73 546 0
 75 76 70 71 ?1 29 74 712 0 76 71 77 .00396862696659689 -.000499999999999959 -.0
015 18 76 547 0 78 79 73 74 ?1 29 77 711 0 79 74 80 .001936491673103715 -.000499
99999999998 -.0015 18 79 548 0 81 82 76 77 ?1 29 80 710 0 82 77 83 .000500000000
000014 -.001936491673103705 -.0015 18 82 549 0 84 85 79 80 ?1 29 83 709 0 85 80
 86 .000500000000000029 -.00396862696659688 -.0015 18 85 550 0 87 88 82 83 ?1 29
 86 708 0 88 83 21 -.000499999999999972 -.00396862696659689 -.0015 18 88 551 0 8
9 90 85 86 ?1 29 21 707 0 90 86 8 -.000499999999999987 -.00193649167310371 -.001
5 18 90 552 0 91 92 88 21 ?1 17 91 0 93 42 89 90 94 95 0 96 +18 92 538 0 29 97 9
0 98 ?1 17 29 0 28 49 26 92 33 99 0 38 -18 97 554 0 100 101 92 102 ?1 29 98 738
 0 92 0 102 -.001936491673103705 -.000500000000000007 -.0035 29 102 736 0 97 98
 103 -.00396862696659689 .000499999999999986 -.0035 29 103 735 0 101 102 104 -.0
0193649167310371 .000499999999999993 -.0035 18 101 555 0 105 106 97 103 ?1 29 10
4 734 0 106 103 107 -5e-4 .00193649167310371 -.0035 18 106 556 0 108 109 101 104
 ?1 29 107 733 0 109 104 110 -5e-4 .003968626966596885 -.0035 18 109 557 0 111 1
12 106 107 ?1 29 110 732 0 112 107 113 5e-4 .003968626966596885 -.0035 18 112 55
8 0 114 115 109 110 ?1 29 113 731 0 115 110 116 5e-4 .00193649167310371 -.0035 1
8 115 559 0 117 118 112 113 ?1 29 116 730 0 118 113 119 .001936491673103705 .000
50000000000002 -.0035 18 118 560 0 120 121 115 116 ?1 29 119 729 0 121 116 122 .
003968626966596885 .00050000000000002 -.0035 18 121 561 0 123 124 118 119 ?1 29
 122 728 0 124 119 125 .00396862696659689 -.000499999999999959 -.0035 18 124 562
 0 126 127 121 122 ?1 29 125 727 0 127 122 128 .001936491673103715 -.00049999999
999998 -.0035 18 127 563 0 129 130 124 125 ?1 29 128 726 0 130 125 46 .000500000
000000014 -.001936491673103705 -.0035 18 130 564 0 131 43 127 128 ?1 29 46 725 0
 43 128 44 .000500000000000029 -.00396862696659688 -.0035 18 43 565 0 132 35 130
 46 ?1 17 132 0 37 39 131 43 133 134 0 135 +15 255 37 635 0 38 136 0 17 39 0 37
 34 132 35 137 138 0 40 +17 131 0 37 132 129 130 139 140 0 141 +17 133 0 142 143
 135 130 132 134 0 0 -16 134 528 0 ?132 138 140 144 0 0 1 17 135 0 142 133 87 43
 145 146 0 137 -15 142 624 0 87 147 0 17 87 0 142 135 143 85 148 149 0 145 +17 1
45 0 150 151 137 85 135 146 0 152 +16 146 484 0 ?145 153 154 155 0 0 1 17 137 0
 150 145 156 43 39 138 0 0 -15 150 368 0 145 157 0 17 156 0 150 137 158 35 89 15
4 0 0 -16 138 531 0 ?39 41 134 159 0 0 1 16 41 534 0 ?34 160 138 161 0 0 1 31 15
9 692 0 138 144 161 0 +0 0 -.0035 0 0 -1 -1 0 0 .004 30 255 144 693 0 134 162 15
9 0 +.000500000000000028 -.003968626966596885 -.0035 69892238499266e-28 -1 0 30
 161 691 0 41 159 163 0 +-.000499999999999972 -.00396862696659689 -.0035 -698922
38499266e-28 1 0 31 163 690 0 164 161 165 0 +0 0 -.0015 0 0 -1 -1 0 0 .002 16 16
4 425 0 ?166 167 168 163 0 0 1 30 165 689 0 167 163 169 0 +-.003968626966596885
 -.000500000000000014 -.0015 -1 -3521288351871415e-30 0 16 167 429 0 ?30 170 164
 165 0 0 1 30 169 687 0 170 165 171 0 +-.00396862696659689 .000499999999999986 -
.0015 1 3521288351871415e-30 0 16 170 437 0 ?57 172 167 169 0 0 1 31 171 686 0 1
72 169 173 0 +0 0 -.0015 0 0 -1 -1 0 0 .002 16 172 441 0 ?60 174 170 171 0 0 1 3
0 173 685 0 174 171 175 0 +-5e-4 .003968626966596885 -.0015 0 1 0 16 174 445 0 ?
63 176 172 173 0 0 1 30 175 683 0 176 173 177 0 +5e-4 .003968626966596885 -.0015
 0 -1 0 16 176 453 0 ?69 178 174 175 0 0 1 31 177 682 0 178 175 179 0 +0 0 -.001
5 0 0 -1 -1 0 0 .002 16 178 457 0 ?72 180 176 177 0 0 1 30 179 681 0 180 177 181
 0 +.003968626966596885 .000500000000000021 -.0015 1 1600585614487005e-31 0 16 1
80 461 0 ?75 182 178 179 0 0 1 30 181 679 0 182 179 183 0 +.00396862696659689 -.
000499999999999959 -.0015 -1 -1045715934798178e-29 0 16 182 469 0 ?81 184 180 18
1 0 0 1 31 183 678 0 184 181 185 0 +0 0 -.0015 0 0 -1 -1 0 0 .002 16 184 473 0 ?
84 149 182 183 0 0 1 30 185 677 0 149 183 186 0 +.000500000000000028 -.003968626
966596885 -.0015 69892238499266e-28 -1 0 16 149 477 0 ?87 95 184 185 0 0 1 30 18
6 675 0 95 185 187 0 +-.000499999999999972 -.00396862696659689 -.0015 -698922384
99266e-28 1 0 16 95 485 0 ?91 188 149 186 0 0 1 30 187 674 0 160 186 189 0 +-.00
0499999999999987 -.00193649167310371 -.0035 0 0 1 16 160 428 0 ?96 154 41 187 0
 0 1 30 189 673 0 154 187 155 0 +-.000499999999999972 -.00396862696659689 -.0035
 0 0 1 16 154 488 0 ?89 146 160 189 0 0 1 30 155 672 0 146 189 190 0 +.000500000
000000029 -.00396862696659688 -.0035 0 0 1 30 190 671 0 153 155 191 0 +.00050000
0000000014 -.001936491673103705 -.0035 0 0 1 16 153 480 0 ?143 192 146 190 0 0 1
 30 191 670 0 192 190 193 0 +.001936491673103715 -.00049999999999998 -.0035 0 0
 1 16 192 476 0 ?194 195 153 191 0 0 1 30 193 669 0 195 191 196 0 +.003968626966
59689 -.000499999999999959 -.0035 0 0 1 16 195 472 0 ?78 197 192 193 0 0 1 30 19
6 668 0 197 193 198 0 +.003968626966596885 .00050000000000002 -.0035 0 0 1 16 19
7 468 0 ?199 200 195 196 0 0 1 30 198 667 0 200 196 201 0 +.001936491673103705 .
00050000000000002 -.0035 0 0 1 16 200 464 0 ?202 203 197 198 0 0 1 30 201 666 0
 203 198 204 0 +5e-4 .00193649167310371 -.0035 0 0 1 16 203 460 0 ?205 206 200 2
01 0 0 1 30 204 665 0 206 201 207 0 +5e-4 .003968626966596885 -.0035 0 0 1 16 20
6 456 0 ?66 208 203 204 0 0 1 30 207 664 0 208 204 209 0 +-5e-4 .003968626966596
885 -.0035 0 0 1 16 208 452 0 ?210 211 206 207 0 0 1 30 209 663 0 211 207 212 0
 +-5e-4 .00193649167310371 -.0035 0 0 1 16 211 448 0 ?213 214 208 209 0 0 1 30 2
12 662 0 214 209 215 0 +-.00193649167310371 .000499999999999993 -.0035 0 0 1 16
 214 444 0 ?216 217 211 212 0 0 1 30 215 661 0 217 212 218 0 +-.0039686269665968
9 .000499999999999986 -.0035 0 0 1 16 217 440 0 ?54 32 214 215 0 0 1 30 218 660
 0 32 215 219 0 +-.003968626966596885 -.000500000000000015 -.0035 0 0 1 16 32 43
6 0 ?31 220 217 218 0 0 1 30 219 659 0 220 218 221 0 +-.001936491673103705 -.000
500000000000007 -.0035 0 0 1 16 220 432 0 ?49 222 32 219 0 0 1 31 221 186 0 222
 219 223 0 +0 0 .005 0 0 1 1 0 0 .003 16 222 102 0 ?224 225 220 221 0 0 1 31 223
 187 0 225 221 226 0 +0 0 .0015 0 0 1 1 0 0 .003 16 225 104 0 ?227 228 222 223 0
 0 1 31 226 188 0 228 223 229 0 +0 0 .0015 0 0 1 1 0 0 .004 16 228 109 0 ?230 23
1 225 226 0 0 1 31 229 189 0 231 226 232 0 +0 0 .005 0 0 1 1 0 0 .004 16 231 114
 0 ?233 234 228 229 0 0 1 31 232 190 0 234 229 235 0 +0 0 .005 0 0 1 1 0 0 .005
 16 234 119 0 ?236 237 231 232 0 0 1 31 235 191 0 237 232 238 0 +0 0 .001 0 0 1
 1 0 0 .005 16 237 124 0 ?239 240 234 235 0 0 1 31 238 192 0 240 235 241 0 +0 0
 .001 0 0 1 1 0 0 .004 16 240 129 0 ?242 243 237 238 0 0 1 31 241 193 0 243 238
 244 0 +0 0 -.001 0 0 1 1 0 0 .004 16 243 134 0 ?245 246 240 241 0 0 1 31 244 19
4 0 246 241 247 0 +0 0 -.001 0 0 1 1 0 0 .005 16 246 139 0 ?248 249 243 244 0 0
 1 31 247 195 0 249 244 20 0 +0 0 -.005 0 0 1 1 0 0 .005 16 249 144 0 ?250 251 2
46 247 0 0 1 31 20 196 0 251 247 7 0 +0 0 -.005 0 0 1 1 0 0 .004 16 251 149 0 ?2
52 25 249 20 0 0 1 17 252 0 253 252 252 0 254 251 0 0 +16 25 314 0 ?151 255 251
 7 255 10 1 17 151 0 150 256 145 76 152 25 0 0 +16 255 308 0 ?158 24 25 7 24 25
 1 17 158 0 150 156 31 88 257 255 0 0 +16 24 302 0 ?258 10 255 7 10 255 1 17 258
 0 150 259 210 52 260 24 0 0 +17 259 0 150 261 258 97 54 217 0 0 -17 210 0 150 2
58 262 61 263 208 0 260 +17 260 0 264 265 266 61 258 24 0 0 -15 264 420 0 266 16
 0 17 265 0 264 267 260 58 63 174 0 0 -17 266 0 264 260 267 52 57 170 0 258 -17
 267 0 264 266 265 55 60 172 0 0 -17 57 0 268 269 54 55 266 170 0 216 +15 268 58
4 0 57 270 0 17 269 0 268 271 57 101 216 214 0 272 -17 54 0 268 57 271 52 259 21
7 0 266 +17 216 0 273 60 272 55 269 214 0 267 +15 273 588 0 60 274 0 17 60 0 273
 275 216 58 267 172 0 213 +17 272 0 273 216 275 101 108 276 0 0 -17 275 0 273 27
2 60 106 213 211 0 277 -17 108 0 37 111 105 106 272 276 0 275 +16 276 501 0 ?108
 278 279 280 0 0 1 16 278 504 0 ?111 281 276 282 0 0 1 16 279 498 0 ?105 276 283
 284 0 0 1 31 280 702 0 276 284 282 0 +0 0 -.0035 0 0 -1 -1 0 0 .002 30 284 703
 0 279 285 280 0 +-.00396862696659689 .000499999999999986 -.0035 1 3521288351871
415e-30 0 30 282 701 0 278 280 286 0 +-5e-4 .003968626966596885 -.0035 0 1 0 31
 286 700 0 281 282 287 0 +0 0 -.0035 0 0 -1 -1 0 0 .004 16 281 507 0 ?114 288 27
8 286 0 0 1 30 287 699 0 288 286 289 0 +5e-4 .003968626966596885 -.0035 0 -1 0 1
6 288 510 0 ?117 290 281 287 0 0 1 31 289 698 0 290 287 291 0 +0 0 -.0035 0 0 -1
 -1 0 0 .002 16 290 513 0 ?120 292 288 289 0 0 1 30 291 697 0 292 289 293 0 +.00
3968626966596885 .000500000000000021 -.0035 1 1600585614487005e-31 0 16 292 516
 0 ?123 294 290 291 0 0 1 31 293 696 0 294 291 295 0 +0 0 -.0035 0 0 -1 -1 0 0 .
004 16 294 519 0 ?126 296 292 293 0 0 1 30 295 695 0 296 293 162 0 +.00396862696
659689 -.000499999999999959 -.0035 -1 -1045715934798178e-29 0 16 296 522 0 ?129
 140 294 295 0 0 1 31 162 694 0 140 295 144 0 +0 0 -.0035 0 0 -1 -1 0 0 .002 16
 140 525 0 ?131 134 296 162 0 0 1 17 129 0 37 131 126 127 297 296 0 298 +17 126
 0 37 129 123 124 299 294 0 297 +17 297 0 300 78 298 124 129 296 0 256 -17 298 0
 300 297 81 127 194 192 0 139 -15 300 616 0 81 301 0 17 81 0 300 298 78 79 302 1
82 0 194 +17 194 0 303 84 139 79 298 192 0 304 +17 139 0 303 194 141 127 131 140
 0 0 -15 303 620 0 84 305 0 17 141 0 303 139 84 130 143 153 0 133 -17 84 0 303 1
41 194 82 304 184 0 143 +17 143 0 142 87 133 82 141 153 0 148 +17 148 0 306 304
 152 82 87 149 0 0 -15 306 394 0 302 307 0 17 304 0 306 302 148 79 84 184 0 0 -1
7 152 0 306 148 302 85 151 25 0 0 -17 302 0 306 152 304 76 81 182 0 151 -14 255
 307 396 308 ?309 310 306 5 19 -309 310 309 310 22 81 1 308 947 311 307 312 0 0
 313 314 14 309 383 313 ?157 307 315 5 19 -16 307 157 307 22 14 310 409 316 ?307
 16 317 5 19 -307 16 307 16 22 50 19 184 0 16 318 6 0 +0 0 -.0015 0 0 1 1 0 0 13
 22 98 0 0 0 0 0 0 9 16 14 16 422 319 ?310 0 264 5 19 -310 309 310 0 22 81 1 319
 950 311 16 320 0 316 321 322 80 255 1 311 323 324 9000 1 1 1 1 1 1 1 1 0 FFFFTF
TFFFFFFF1 81 1 320 852 325 16 0 319 0 326 327 81 1 316 949 311 310 326 0 313 319
 328 81 1 321 951 311 157 329 0 319 330 331 82 255 1 322 -238944088 14 157 370 3
21 ?18 309 332 5 318 -0 0 18 309 22 81 1 329 856 325 157 0 321 333 334 335 81 1
 330 952 311 336 337 0 321 338 339 82 1 331 -243924824 14 336 569 330 ?340 341 3
42 5 343 -0 0 340 341 22 81 1 337 868 325 336 0 330 344 345 346 81 1 338 953 311
 340 345 0 330 347 348 82 1 339 -259063640 14 340 573 338 ?270 336 28 5 349 -0 0
 270 336 22 81 1 345 869 325 340 0 338 337 350 351 81 1 347 954 311 270 350 0 33
8 352 353 82 1 348 -259325784 14 270 581 347 ?274 340 268 5 354 -0 0 274 340 22
 81 1 350 870 325 270 0 347 345 355 356 81 1 352 955 311 274 355 0 347 357 358 8
2 1 353 -259850072 14 274 585 352 ?359 270 273 5 360 -0 0 359 270 22 81 1 355 87
1 325 274 0 352 350 361 362 81 1 357 956 311 359 361 0 352 363 364 82 1 358 -260
112216 14 359 589 357 ?365 274 366 5 367 -0 0 365 274 22 81 1 361 872 325 359 0
 357 355 368 369 81 1 363 957 311 365 368 0 357 370 371 82 1 364 -260374360 14 3
65 597 363 ?372 359 373 5 374 -0 0 372 359 22 81 1 368 873 325 365 0 363 361 375
 376 81 1 370 958 311 372 375 0 363 377 378 82 1 371 -260898648 14 372 601 370 ?
379 365 380 5 381 -0 0 379 365 22 81 1 375 874 325 372 0 370 368 382 383 81 1 37
7 959 311 379 382 0 370 384 385 82 1 378 -261160792 14 379 605 377 ?301 372 386
 5 387 -0 0 301 372 22 81 1 382 875 325 379 0 377 375 388 389 81 1 384 960 311 3
01 388 0 377 390 391 82 1 385 -261422936 14 301 613 384 ?305 379 300 5 392 -0 0
 305 379 22 81 1 388 876 325 301 0 384 382 393 394 81 1 390 961 311 305 393 0 38
4 395 396 82 1 391 -261947224 14 305 617 390 ?147 301 303 5 397 -0 0 147 301 22
 81 1 393 877 325 305 0 390 388 398 399 81 1 395 962 311 147 398 0 390 400 401 8
2 1 396 -262209368 14 147 621 395 ?402 305 142 5 403 -0 0 402 305 22 81 1 398 87
8 325 147 0 395 393 404 405 81 1 400 963 311 402 404 0 395 406 407 82 1 401 -262
471512 14 402 629 400 ?136 147 93 5 408 -0 0 136 147 22 81 1 404 879 325 402 0 4
00 398 409 410 81 1 406 964 311 136 409 0 400 411 412 82 1 407 -262995800 14 136
 633 406 ?413 402 37 5 414 +0 0 413 402 22 81 1 409 880 325 136 0 406 404 415 41
6 81 1 411 965 311 18 334 0 406 417 418 82 1 412 -286064472 14 18 170 411 ?419 1
57 420 5 6 -0 0 419 157 22 81 1 334 857 325 18 0 411 329 421 422 81 1 417 966 31
1 413 415 0 411 423 424 82 1 418 610271404 14 413 789 417 ?425 136 426 5 427 -0
 0 425 136 22 81 1 415 881 325 413 0 417 409 428 429 81 1 423 967 311 425 428 0
 417 430 431 82 1 424 -1808531284 14 425 794 423 ?0 413 432 5 433 +0 0 0 413 22
 81 1 428 882 325 425 0 423 415 0 434 81 1 430 968 311 341 344 0 423 435 436 82
 1 431 -1810497364 14 341 107 430 ?336 437 438 5 439 -0 0 336 437 22 81 1 344 86
7 325 341 0 430 440 337 441 81 1 435 969 311 437 440 0 430 442 443 82 1 436 6028
65825 14 437 112 435 ?341 444 445 5 446 -0 0 341 444 22 81 1 440 866 325 437 0 4
35 447 344 448 81 1 442 970 311 444 447 0 435 449 450 82 1 443 603455649 14 444
 117 442 ?437 451 452 5 453 -0 0 437 451 22 81 1 447 865 325 444 0 442 454 440 4
55 81 1 449 971 311 451 454 0 442 456 457 82 1 450 604045473 14 451 122 449 ?444
 458 459 5 460 -0 0 444 458 22 81 1 454 864 325 451 0 449 461 447 462 81 1 456 9
72 311 458 461 0 449 463 464 82 1 457 604635297 14 458 127 456 ?451 465 466 5 46
7 -0 0 451 465 22 81 1 461 863 325 458 0 456 468 454 469 81 1 463 973 311 465 46
8 0 456 470 471 82 1 464 605225121 14 465 132 463 ?458 472 473 5 474 -0 0 458 47
2 22 81 1 468 862 325 465 0 463 475 461 476 81 1 470 974 311 472 475 0 463 477 4
78 82 1 471 605814945 14 472 137 470 ?465 479 480 5 481 -0 0 465 479 22 81 1 475
 861 325 472 0 470 482 468 483 81 1 477 975 311 479 482 0 470 484 485 82 1 478 6
06404769 14 479 142 477 ?472 486 487 5 488 -0 0 472 486 22 81 1 482 860 325 479
 0 477 489 475 490 81 1 484 976 311 486 489 0 477 491 492 82 1 485 606994593 14
 486 147 484 ?479 419 493 5 494 -0 0 479 419 22 81 1 489 859 325 486 0 484 421 4
82 495 81 1 491 977 311 419 421 0 484 0 496 82 1 492 607584417 14 419 152 491 ?4
86 18 497 5 498 -0 0 486 18 22 81 1 421 858 325 419 0 491 334 489 499 82 1 496 6
08174241 80 1 325 0 500 8001 0 0 0 0 3 5 0 0 0 FFFFTFTFFFFFFF2 83 255 3 499 .792
156862745098 .819607843137255 .933333333333333 79 255 15 500 SDL/TYSA_COLOUR15 4
97 260 0 501 419 253 50 498 182 0 419 494 318 0 +0 .004 -.005 0 0 1 1 0 0 51 255
 494 181 0 486 488 498 0 -0 0 .00843540107464968 0 0 1 .005 1 0 0 51 318 183 0 1
57 498 19 0 +0 0 .00843540107464968 0 0 1 .004 1 0 0 50 488 180 0 479 481 494 0
 +0 .005 -.001 0 0 -1 -1 0 0 51 481 179 0 472 474 488 0 -0 0 .00843540107464968
 0 0 1 .004 1 0 0 50 474 178 0 465 467 481 0 +0 .004 .001 0 0 1 1 0 0 51 467 177
 0 458 460 474 0 -0 0 .00843540107464968 0 0 1 .005 1 0 0 50 460 176 0 451 453 4
67 0 +0 .005 .005 0 0 -1 -1 0 0 51 453 175 0 444 446 460 0 +0 0 .008435401074649
68 0 0 1 .004 1 0 0 50 446 174 0 437 439 453 0 +0 .004 .0015 0 0 -1 -1 0 0 51 43
9 173 0 341 343 446 0 -0 0 .00843540107464968 0 0 1 .003 1 0 0 51 343 641 0 336
 349 439 0 -0 0 -.0035 0 0 1 .002 1 0 0 50 349 642 0 340 354 343 0 +-.0039686269
66596885 -.000500000000000014 -.0035 -3521288351871415e-30 1 0 -1 -3521288351871
415e-30 0 50 354 644 0 270 360 349 0 +-.00396862696659689 .000499999999999986 -.
0035 3521288351871415e-30 -1 0 1 3521288351871415e-30 0 51 360 645 0 274 367 354
 0 -0 0 -.0035 0 0 1 .002 1 0 0 50 367 646 0 359 374 360 0 +-5e-4 .0039686269665
96885 -.0035 1 0 0 0 0 -1 50 374 648 0 365 381 367 0 +5e-4 .003968626966596885 -
.0035 -1 0 0 0 0 1 51 381 649 0 372 387 374 0 -0 0 -.0035 0 0 1 .002 1 0 0 50 38
7 650 0 379 392 381 0 +.003968626966596885 .000500000000000021 -.0035 1600585614
487005e-31 -1 0 1 1600585614487005e-31 0 50 392 652 0 301 397 387 0 +.0039686269
6659689 -.000499999999999959 -.0035 -1045715934798178e-29 1 0 -1 -10457159347981
78e-29 0 51 397 653 0 305 403 392 0 -0 0 -.0035 0 0 1 .002 1 0 0 50 403 654 0 14
7 408 397 0 +.000500000000000028 -.003968626966596885 -.0035 -1 -69892238499266e
-28 0 69892238499266e-28 -1 0 50 408 656 0 402 414 403 0 +-.000499999999999972 -
.00396862696659689 -.0035 1 69892238499266e-28 0 -69892238499266e-28 1 0 50 414
 658 0 136 427 408 0 +0 0 -.0035 0 0 -1 -1 0 0 51 427 802 0 413 433 414 0 +0 0 -
.003 0 0 1 .0015 1 0 0 50 433 804 0 425 0 427 0 +0 0 -.003 0 0 1 1 0 0 17 501 0
 497 501 501 0 250 249 0 0 -15 253 151 0 252 419 0 17 250 0 502 250 250 0 501 24
9 0 0 +15 502 146 0 250 486 0 83 3 495 .792156862745098 .819607843137255 .933333
333333333 15 493 259 0 503 486 502 17 503 0 493 503 503 0 248 246 0 0 -17 248 0
 504 248 248 0 503 246 0 0 +15 504 141 0 248 479 0 83 3 490 .792156862745098 .81
9607843137255 .933333333333333 15 487 258 0 505 479 504 17 505 0 487 505 505 0 2
45 243 0 0 -17 245 0 506 245 245 0 505 243 0 0 +15 506 136 0 245 472 0 83 3 483
 .792156862745098 .819607843137255 .933333333333333 15 480 257 0 507 472 506 17
 507 0 480 507 507 0 242 240 0 0 -17 242 0 508 242 242 0 507 240 0 0 +15 508 131
 0 242 465 0 83 3 476 .792156862745098 .819607843137255 .933333333333333 15 473
 256 0 509 465 508 17 509 0 473 509 509 0 239 237 0 0 -17 239 0 510 239 239 0 50
9 237 0 0 +15 510 126 0 239 458 0 83 3 469 .792156862745098 .819607843137255 .93
3333333333333 15 466 255 0 511 458 510 17 511 0 466 511 511 0 236 234 0 0 -17 23
6 0 512 236 236 0 511 234 0 0 +15 512 121 0 236 451 0 83 3 462 .792156862745098
 .819607843137255 .933333333333333 15 459 254 0 513 451 512 17 513 0 459 513 513
 0 233 231 0 0 -17 233 0 514 233 233 0 513 231 0 0 +15 514 116 0 233 444 0 83 3
 455 .792156862745098 .819607843137255 .933333333333333 15 452 253 0 515 444 514
 17 515 0 452 515 515 0 230 228 0 0 -17 230 0 516 230 230 0 515 228 0 0 +15 516
 111 0 230 437 0 83 3 448 .792156862745098 .819607843137255 .933333333333333 15
 445 252 0 517 437 516 17 517 0 445 517 517 0 227 225 0 0 -17 227 0 518 227 227
 0 517 225 0 0 +15 518 106 0 227 341 0 83 3 441 .792156862745098 .81960784313725
5 .933333333333333 15 438 251 0 519 341 518 17 519 0 438 519 519 0 224 222 0 0 -
17 224 0 520 224 224 0 519 222 0 0 +15 520 169 0 224 18 0 83 3 434 .792156862745
098 .819607843137255 .933333333333333 15 432 796 0 521 425 0 17 521 0 432 521 52
1 0 522 168 0 0 +17 522 0 426 522 522 0 521 168 0 0 -16 168 783 0 ?521 164 523 5
24 0 0 1 16 523 786 0 ?525 168 0 526 0 0 1 31 524 806 0 168 0 526 0 +0 0 -.003 0
 0 1 1 0 0 .0015 31 526 805 0 523 524 527 0 +0 0 .005 0 0 1 1 0 0 .0015 31 527 7
06 0 188 526 528 0 +0 0 -.0035 0 0 -1 -1 0 0 .002 16 188 489 0 ?38 99 95 527 0 0
 1 30 528 705 0 99 527 285 0 +-.003968626966596885 -.000500000000000014 -.0035 -
1 -3521288351871415e-30 0 16 99 492 0 ?33 283 188 528 0 0 1 31 285 704 0 283 528
 284 0 +0 0 -.0035 0 0 -1 -1 0 0 .004 16 283 495 0 ?100 279 99 285 0 0 1 17 100
 0 37 105 33 97 261 283 0 271 +17 105 0 37 108 100 101 271 279 0 269 +17 33 0 37
 100 38 11 29 99 0 261 +17 261 0 150 31 259 11 100 283 0 0 -17 271 0 268 54 269
 97 105 279 0 259 -17 31 0 150 158 261 50 26 32 0 257 +17 257 0 315 529 94 50 15
8 255 0 0 -15 315 381 0 529 309 0 17 529 0 315 530 257 47 30 167 0 0 -17 94 0 31
5 257 530 88 91 95 0 158 -17 530 0 315 94 529 90 166 164 0 0 -17 166 0 342 531 9
6 47 530 164 0 529 +15 342 572 0 166 336 0 17 531 0 342 532 166 92 49 220 0 0 -1
7 96 0 342 166 532 90 42 160 0 530 +17 532 0 342 96 531 27 38 188 0 0 -17 42 0 9
3 40 91 27 96 160 0 532 -15 93 632 0 91 402 0 17 40 0 93 89 42 35 34 41 0 156 -1
7 89 0 93 91 40 88 156 154 0 94 +17 38 0 37 33 34 92 532 188 0 531 +17 49 0 28 3
0 29 47 531 220 0 166 +15 28 576 0 30 340 0 17 30 0 28 26 49 50 529 167 0 31 +17
 525 0 533 525 525 0 534 523 0 0 +15 533 793 0 525 413 0 17 534 0 420 534 534 0
 525 523 0 0 -15 420 777 0 534 18 520 15 426 792 0 522 413 533 83 3 429 .7921568
62745098 .819607843137255 .933333333333333 83 3 422 .792156862745098 .8196078431
37255 .933333333333333 83 3 416 .792156862745098 .819607843137255 .9333333333333
33 83 3 410 .792156862745098 .819607843137255 .933333333333333 83 3 405 .7921568
62745098 .819607843137255 .933333333333333 83 3 399 .792156862745098 .8196078431
37255 .933333333333333 83 3 394 .792156862745098 .819607843137255 .9333333333333
33 83 3 389 .792156862745098 .819607843137255 .933333333333333 15 386 608 0 75 3
79 0 17 75 0 386 535 202 73 536 180 0 199 +17 535 0 386 537 75 121 199 197 0 299
 -17 202 0 386 75 537 70 538 200 0 536 +17 536 0 317 539 540 70 75 180 0 0 -17 1
99 0 150 23 299 73 535 197 0 540 +17 23 0 150 541 199 64 540 10 0 0 +17 299 0 15
0 199 256 121 126 294 0 0 -17 540 0 317 536 542 73 23 10 0 0 -15 317 407 0 542 3
10 0 17 542 0 317 540 539 64 69 176 0 23 -17 539 0 317 542 536 67 72 178 0 0 -17
 69 0 373 543 66 67 542 176 0 205 +15 373 600 0 69 365 0 17 543 0 373 544 69 115
 205 203 0 545 -17 66 0 373 69 544 64 541 206 0 542 +17 205 0 380 72 545 67 543
 203 0 539 +15 380 604 0 72 372 0 17 72 0 380 538 205 70 539 178 0 202 +17 545 0
 380 205 538 115 120 290 0 0 -17 538 0 380 545 72 118 202 200 0 537 -17 120 0 37
 123 117 118 545 290 0 538 +17 123 0 37 126 120 121 537 292 0 535 +17 117 0 37 1
20 114 115 544 288 0 543 +17 114 0 37 117 111 112 262 281 0 544 +17 544 0 373 66
 543 112 117 288 0 541 -17 541 0 150 262 23 112 66 206 0 0 -17 262 0 150 210 541
 109 114 281 0 0 -17 111 0 37 114 108 109 277 278 0 263 +17 277 0 366 213 263 10
6 111 278 0 0 -17 263 0 366 277 63 109 210 208 0 262 -15 366 592 0 63 359 0 17 6
3 0 366 263 213 61 265 174 0 210 +17 213 0 366 63 277 58 275 211 0 265 +17 537 0
 386 202 535 118 123 292 0 0 -17 256 0 150 299 151 124 78 195 0 0 -17 78 0 300 8
1 297 76 256 195 0 302 +83 3 383 .792156862745098 .819607843137255 .933333333333
333 83 3 376 .792156862745098 .819607843137255 .933333333333333 83 3 369 .792156
862745098 .819607843137255 .933333333333333 83 3 362 .792156862745098 .819607843
137255 .933333333333333 83 3 356 .792156862745098 .819607843137255 .933333333333
333 83 3 351 .792156862745098 .819607843137255 .933333333333333 83 3 346 .792156
862745098 .819607843137255 .933333333333333 81 1 333 855 325 309 0 313 312 329 5
46 83 3 335 .792156862745098 .819607843137255 .933333333333333 81 1 313 948 311
 309 333 0 308 316 547 81 1 312 854 325 307 0 308 326 333 548 83 3 546 .79215686
2745098 .819607843137255 .933333333333333 81 1 326 853 325 310 0 316 320 312 549
 83 3 548 .792156862745098 .819607843137255 .933333333333333 83 3 549 .792156862
745098 .819607843137255 .933333333333333 82 1 547 -242679640 15 332 261 0 254 15
7 150 17 254 0 332 254 254 0 252 251 0 0 -82 1 328 -240189272 83 3 327 .79215686
2745098 .819607843137255 .933333333333333 79 14 324 SWEntUnchanged82 1 314 -2414
34456 19 17 94 0 1 0 9 5 S0 74 4 CI16 index_map_offset0 0 1 dCCZ20 15 8 0 0 491
 550 551 552 553 13 428 2 0 0 0 0 0 0 0 0 0 0 0 0 81 2 550 740 554 1 0 551 0 0 0
 555 81 2 551 755 556 1 550 552 0 0 0 557 81 1 552 815 558 1 551 553 0 0 559 81
 2 553 847 560 1 552 13 0 0 0 561 81 2 13 850 562 1 553 2 0 0 0 0 80 2 562 563 5
64 9000 0 0 0 0 3 5 0 0 0 FFTFFFFFFFFFFF9 1 79 16 564 BODY_RECIPE_200180 2 560 5
65 566 9000 0 0 0 0 3 5 0 0 0 FFTFFFFFFFFFFF9 1 82 1 561 1 79 24 566 BODY_IN_LIG
HTWEIGHT_PERM80 1 558 567 568 9000 1 1 1 1 1 1 1 1 0 FFTFFFFFFFFFFF1 82 1 559 61
69455 79 10 568 BODY_MATCH80 2 556 569 570 9000 0 0 0 0 3 5 0 0 0 FFTFFFFFFFFFFF
9 1 82 1 557 271 79 30 570 LAST_BODY_MODIFYING_FEATURE_ID80 2 554 571 572 9000 0
 0 0 0 3 5 0 0 0 FFTFFFFFFFFFFT9 1 82 1 555 116 79 19 572 ENT_TIME_STAMP_200180
 2 12 573 574 9000 0 0 0 0 3 5 0 0 0 FFTFFFFFFFFFFF9 1 82 1 14 104 79 12 574 ATO
M_ID_20011 0 
